<?xml version="1.0" encoding="UTF-8"?>
<!-- Created with Inkscape (http://www.inkscape.org/) -->
<svg width="178mm" height="230mm" version="1.1" viewBox="0 0 178 230" xmlns="http://www.w3.org/2000/svg" xmlns:cc="http://creativecommons.org/ns#" xmlns:dc="http://purl.org/dc/elements/1.1/" xmlns:rdf="http://www.w3.org/1999/02/22-rdf-syntax-ns#">
 <metadata>
  <rdf:RDF>
   <cc:Work rdf:about="">
    <dc:format>image/svg+xml</dc:format>
    <dc:type rdf:resource="http://purl.org/dc/dcmitype/StillImage"/>
    <dc:title/>
   </cc:Work>
  </rdf:RDF>
 </metadata>
 <g transform="translate(0,-67)">
  <g stroke-width=".26458">
   <path d="m133.73 72.61c-3.3495-0.0021-6.699 0.01233-10.048 0.02326-2.4758 0.90517-5.0243 1.6321-7.4228 2.7161-0.38845 0.60075-0.80888 1.1247-1.247 1.4568-0.55851 0.4234-1.2653 0.60292-1.8981 0.90434-0.15581 0.15828 3e-3 0.41305-0.10077 0.57981-0.64014 1.0317-1.1776 1.322-1.9503 2.1916-0.57032 0.64193-1.063 1.349-1.5994 2.0195-0.74679 1.9421-2.8938 3.0628-4.4302 4.332-5e-3 0.0046-0.0103 0.0084-0.015 0.01291-2.6e-4 0.0054 2.2e-4 0.01011-3e-3 0.01913-0.41045 1.3788-1.5491 2.0588-2.4639 3.083-0.38948 0.43602-0.71541 0.9247-1.0733 1.387-0.46189 0.49164-0.92406 0.98321-1.386 1.4748 0.0388 0.54645-1.8548 1.2732-2.1161 1.7839 0.02408 7.93e-4 0.36667-0.04495 0.2806 0.1571-0.20407 0.4791-0.48763 0.92052-0.73122 1.3808-0.30268 0.28267-0.62425 0.54692-0.92604 0.83044 0.10585-0.07822 0.20167-0.11955 0.24236-0.04806 0.16053 0.28205-0.25083 0.59998-0.41031 0.88263-0.19893 0.35256-0.41558 0.69704-0.63665 1.0392-0.47641 1.4728-1.0458 2.9075-1.634 4.3393-0.44055 1.418-1.2129 2.6924-1.8728 4.0127-0.59147 1.6704-1.5346 3.0956-2.5916 4.5015-1.2469 1.5715-2.6851 2.9618-3.8623 4.5884-1.096 1.5617-2.3568 2.9825-3.5 4.5108-1.1341 1.354-1.9982 2.8964-2.9848 4.3532-0.93608 1.3255-1.5594 2.8109-2.2479 4.2685-0.76402 1.7315-1.6177 3.4241-2.4526 5.1227-1.5661 2.6931-3.2863 5.2999-5.1056 7.8295-2.232 2.8915-4.6535 5.6343-7.0699 8.3726-2.2836 2.5852-4.1069 5.5206-5.9035 8.4512-1.5118 2.4081-3.0163 4.8105-5.0937 6.7706-1.8458 1.803-3.833 3.456-5.7614 5.1697-1.5772 1.4628-3.0469 3.0684-4.3899 4.7506-1.1186 1.4524-2.135 2.9902-3.0365 4.5868-0.65326 1.025-1.359 1.981-2.2479 2.8096-0.73021 0.93643-1.2997 1.9936-1.8991 3.0174-0.51895 0.5868-1.1264 1.1118-1.8578 1.4108l9.4118 0.99787c0.72777-0.52081 1.4056-1.1225 1.864-1.9027 0.57906-0.9584 1.0809-1.9883 1.8919-2.7786 0.86855-0.91144 1.5227-1.9859 2.1461-3.0753 0.88023-1.5547 1.87-3.0426 2.9843-4.4406 1.308-1.6356 2.7216-3.1978 4.27-4.6095 1.908-1.7451 3.9024-3.3959 5.7397-5.2162 1.9948-2.0834 3.4355-4.5679 4.9594-7.0037 1.7187-2.9154 3.6021-5.7412 5.8327-8.2951 2.4132-2.7654 4.8178-5.5457 7.0533-8.4574 1.8848-2.586 3.7402-5.2062 5.3811-7.9546 0.90016-1.6973 1.8604-3.3691 2.5983-5.1459 0.66545-1.4245 1.3681-2.8251 2.25-4.132 0.94415-1.4515 1.8061-2.9608 2.912-4.301 1.1556-1.5176 2.4433-2.9284 3.5011-4.5191 1.2056-1.5919 2.6613-2.9744 3.8473-4.5847 1.0891-1.4627 2.0263-2.9646 2.7171-4.6586 0.67673-1.3351 1.4085-2.6517 1.8521-4.0892 0.5976-1.4921 1.1758-2.991 1.6914-4.5139 0.38658-1.3133 0.69941-2.6611 1.4247-3.8406 0.54977-1.1496 1.0328-2.3324 1.7642-3.3853 0.6546-0.93314 1.3994-1.7826 2.1766-2.6159 0.80896-0.90124 1.4132-1.9476 2.1022-2.9394 0.70795-1.044 1.3813-2.1099 2.0727-3.1647 0.59861-0.79102 1.2137-1.5527 2.0531-2.1043 0.87954-0.67092 1.6785-1.4164 2.3998-2.2572 0.77233-0.81886 1.606-1.5673 2.3844-2.3766 0.59311-0.65118 1.1302-1.3688 1.8474-1.8919 1.0187-0.45199 2.1467-0.34215 3.2355-0.34985 0.97912-0.0021 1.9582-0.0054 2.9373-0.0088 0.91111 0.01249 1.8221 0.04784 2.7249 0.17828 1.4341 0.26234 2.722 0.71458 3.8675 1.6464 1.4632 1.1101 3.1823 1.7703 4.7403 2.7347 1.7082 0.95386 3.4195 1.9666 4.9124 3.238l9.5028-0.74776c-1.6359-1.3229-3.4804-2.363-5.2777-3.4479-1.4841-0.94651-3.0869-1.6923-4.5522-2.667-1.1715-0.94348-2.4714-1.5937-3.9104-2.0071-1.3576-0.33546-2.7593-0.37531-4.1501-0.39481-1.2375-0.0065-2.4749-0.0095-3.7124-0.01035zm-28.897 14.396c-0.11984 0.09864-0.23652 0.19973-0.31006 0.33331-0.0661 0.12004 0.14223-0.14287 0.31006-0.33331z"/>
   <path d="m163.53 87.872-9.5064 0.93741c1.1084 0.77113 2.2134 1.5036 3.4262 2.1032 1.0617 0.66786 2.2784 0.90303 3.4664 1.2294 1.2754 0.28541 2.5373 0.62699 3.8122 0.91468 0.81609 0.16969 1.9887 0.13476 2.2918 1.0862-0.0284 0.8058-0.6189 1.5935-1.0237 2.281-0.78784 1.2024-1.7645 2.2597-2.6484 3.3869-0.80316 0.82352-1.4896 1.7434-2.3787 2.4805-0.87926 0.43651-1.5216 1.199-2.4231 1.5901-0.88377 0.56597-1.7123 1.1848-2.4231 1.9637-0.55701 0.91195-1.2484 1.7122-1.9063 2.5466-0.50361 0.91538-1.2733 1.6222-1.7508 2.5508-0.56939 0.74281-1.0321 1.579-1.7312 2.2133-0.75106 0.88616-1.4433 1.811-2.1265 2.7502-0.63539 1.1544-1.4245 2.2045-2.1622 3.2897-0.77316 1.1014-1.4308 2.2859-2.0268 3.4918-0.5081 1.3063-1.134 2.562-1.5994 3.8845-0.6794 0.98956-0.78328 2.193-1.1901 3.2814-0.3268 1.0856-0.63628 2.1796-0.90899 3.2815-0.48072 1.2419-0.75968 2.5335-0.92242 3.8509-0.12816 1.3013-0.44401 2.5725-0.60617 3.8716-0.14227 1.3026-0.15928 2.6144-0.17208 3.9233-7e-3 1.2907-3e-3 2.5814-1e-3 3.8721-0.01 1.3863 0.0243 2.7717 0.0253 4.1579-5e-3 1.3994-0.0131 2.7988-0.0181 4.1982-0.0159 1.3949 0.0176 2.7894 0.0181 4.1842 0.0524 1.7543 0.0605 3.497-0.14572 5.241-0.36634 1.8464-0.75134 3.6868-1.125 5.5314-0.40796 1.604-0.42994 3.269-0.71159 4.8901-0.3884 1.3183-0.93948 2.5777-1.3632 3.883-0.45209 1.2384-0.33521 2.5816-0.62115 3.8452-0.31384 1.1168-0.43678 2.2676-0.51108 3.421-0.25923 1.3652-0.48122 2.7321-0.72967 4.099-0.45773 2.043-1.1645 4.0221-1.8459 5.9991-0.73388 2.2975-2.1402 4.2699-3.4478 6.2658-1.2699 2.0787-2.7345 4.0273-4.0923 6.0477-1.2438 1.6475-2.6929 3.131-4.301 4.422-1.0296 0.72176-1.753 1.8125-2.8577 2.421-0.69781 0.66683-1.5809 1.065-2.3316 1.6449-0.92237 0.47937-1.7055 1.1681-2.6639 1.5756-1.1054 0.39158-2.2913 0.25609-3.4163 0.52142-1.2127 0.25556-2.337 0.87961-3.3998 1.5053-1.1728 0.6235-2.488 0.71224-3.6814 1.2805-1.3113 0.54516-2.6947 0.86243-4.022 1.3653-1.5599 0.53191-3.0347 1.2629-4.6343 1.6784-1.8826 0.54313-3.7872 1.0268-5.7149 1.3829-1.9376 0.1953-3.8442 0.58898-5.7764 0.82837-1.4378 0.16636-2.8859 0.19056-4.3315 0.20205-1.4353 0.18266-2.734 0.828-4.1041 1.2459-1.6799 0.44046-3.3989 0.73736-5.0653 1.2258-0.46529 0.14639-0.93697 0.26217-1.4118 0.3576 7.0817-0.25832 3.5288 0.6298 1.0594 0.35036l-9.4465 1.0325c2.7866 2.376 9.85-2.8141 10.852 0.48369 1.2961-3e-3 2.5945-4e-3 3.8866-0.11989 1.4587-0.15964 2.8898-0.45763 4.2943-0.88728 1.6931-0.40567 3.3948-0.7829 5.0669-1.2697 1.3525-0.4458 2.7051-0.9688 4.1512-0.9648 1.4259-0.0366 2.8522-0.10881 4.2638-0.32608 1.91-0.29172 3.8167-0.60272 5.7268-0.89142 1.9398-0.41733 3.8674-0.89443 5.7702-1.4583 1.5818-0.5156 3.0996-1.2002 4.6814-1.7172 1.3701-0.43082 2.7534-0.83044 4.0721-1.4061 1.2568-0.41342 2.5732-0.66373 3.7109-1.3834 1.0762-0.53068 2.1519-1.0761 3.3662-1.1973 1.1971-0.11763 2.4173-0.20875 3.4923-0.80564 0.91115-0.54758 1.8036-1.129 2.7068-1.6898 0.81716-0.48319 1.5302-1.1099 2.3063-1.6547 0.95624-0.80274 1.779-1.7548 2.7554-2.5373 1.5061-1.4456 2.9467-2.9648 4.163-4.6674 1.3755-2.0047 2.7601-4.0033 4.052-6.0637 1.3587-2.0602 2.7612-4.1211 3.5316-6.4895 0.70577-2.0211 1.3838-4.0562 1.9523-6.12 0.31408-1.3992 0.58676-2.806 0.83199-4.2189 0.0871-1.1204 0.25229-2.2266 0.52038-3.3192 0.17739-1.2403 0.16677-2.5143 0.57567-3.715 0.45077-1.3448 1.0159-2.6524 1.3493-4.0354 0.23008-1.6101 0.22682-3.2529 0.61288-4.8431 0.41-1.8667 0.75308-3.7463 1.1358-5.6188 0.19791-1.78 0.23359-3.5561 0.22169-5.347 5.3e-4 -1.3949 0.034-2.7893 0.0181-4.1842-5e-3 -1.3995-0.0136-2.7987-0.0186-4.1982 5.3e-4 -1.3866 0.0334-2.7728 0.0196-4.1594-2e-3 -1.2872-6e-3 -2.5746 1e-3 -3.8618 0.0124-1.2725 0.0277-2.5476 0.16898-3.8137 0.16627-1.2979 0.48526-2.5691 0.60668-3.8716 0.16603-1.2807 0.47878-2.5201 0.93379-3.7305 0.29324-1.081 0.61639-2.1543 0.94155-3.2256 0.31056-1.1105 0.597-2.216 1.1265-3.2515 0.4724-1.2792 1.0642-2.5104 1.5922-3.7672 0.6123-1.1637 1.2743-2.3042 2.0464-3.3703 0.73754-1.0756 1.4443-2.1708 2.1735-3.252 0.68242-0.90282 1.354-1.819 2.1446-2.6319 0.64882-0.76681 1.2506-1.5723 1.7642-2.4371 0.54164-0.82014 1.1781-1.5774 1.7172-2.4009 0.66835-0.79164 1.2321-1.6602 1.9079-2.4448 0.74807-0.65542 1.5432-1.2308 2.4169-1.7105 0.82993-0.5695 1.6334-1.1865 2.419-1.8149 0.81744-0.84207 1.6-1.714 2.3342-2.6303 0.91394-1.155 1.8662-2.2851 2.6862-3.5093 0.55763-0.9367 1.213-1.8759 1.1121-3.0179-0.28775-1.3099-1.0919-2.0936-2.4768-2.1425-1.2857-0.21394-2.5083-0.63874-3.793-0.84905-1.1613-0.31211-2.3624-0.50497-3.4535-1.0263-1.1298-0.62158-2.3835-1.0026-3.2598-2.0195zm-96.791 144.2c-1.649 0.0601-3.8706 0.18211-6.8213 0.39584 1.2951 3e-3 2.5907 0.0128 3.885-0.0408 0.98693-0.0576 1.9697-0.16076 2.9363-0.35502z"/>
   <path d="m78.43 231.16c1.1395-0.0628 2.2275 0.0588 3.3419 0.27182 1.2323 0.38961 2.2464 1.2134 3.24 2.0115 0.9667 0.59959 2.0847 0.81551 3.0145 1.4848 0.99374 0.76276 1.3271 2.005 1.9716 3.0225 0.71576 1.2122 0.97963 2.1451 0.45212 3.479-0.67519 1.3052-1.7941 2.0354-3.1505 2.4816-1.0991 0.37267-2.2327 0.61894-3.3469 0.93715-1.1451 0.32689-2.319 0.48082-3.4548 0.8411-1.2698 0.56382-2.6283 0.87673-3.968 1.2259-1.3369 0.34705-2.7129 0.4612-4.0875 0.52455-4.3882 0.0954-8.7787 0.0436-13.168 0.0323-0.21466-5.3e-4 -0.42933-1e-3 -0.644-1e-3l9.2858-1.4686c0.21464 5.3e-4 0.42928 8e-4 0.64392 1e-3 3.588 6e-3 0.0034-2.7e-4 -7.9967 2e-3 -0.21514 5e-5 0.43028 1e-3 0.64542 1e-3 0.40299 5.3e-4 0.89317 1e-3 1.296-1e-3 0.21758-1e-3 0.43515-4e-3 0.65273-5e-3 1.3698-0.0246 2.7458-0.066 4.0943-0.33146 1.3124-0.28559 2.6259-0.62505 3.8821-1.0917 1.1067-0.55282 2.2757-0.72473 3.4826-0.94035 1.1239-0.32479 2.263-0.56242 3.3634-0.96725 1.2008-0.20516 2.3564-0.54669 3.0359-1.6453 0.56175-1.0014 0.09615-1.6474-0.4266-2.5772-0.51805-0.96562-0.95567-2.0096-1.9724-2.5501-1.0172-0.49365-2.1057-0.86359-2.9912-1.5896-0.96552-0.70311-1.9214-1.4187-3.1517-1.5544-1.1614-0.15228-2.329-0.10813-3.4982-0.0952l9.4539-1.4974z"/>
   <path d="m55.659 241.62c-0.67017-0.84822-1.3879-1.5571-2.3695-2.0388-0.57673-0.03-0.9677-0.60645-1.5531-0.57876-0.12349 6e-3 -0.46679 0.13918-0.34317 0.14067 8.8215 0.1063 11.969-1.0912 8.8351 0.0658-0.99512 1.0984-1.5928 2.5102-2.0753 3.8948-0.58742 1.5651-0.90312 3.2065-1.3288 4.8179-0.3115 1.4656-0.90404 2.8457-1.3258 4.2791-0.43914 1.5111-1.0874 2.9449-1.6526 4.4095-0.49885 1.6082-1.0892 3.178-1.7568 4.7227-0.65014 1.4093-1.3712 2.7836-2.0547 4.1766-0.5576 1.2775-1.3224 2.4307-2.0389 3.6182-0.69997 1.1758-1.3378 2.3904-1.8765 3.6484-0.48869 1.4589-1.1288 2.8604-1.7353 4.2731-0.54916 1.3172-1.1306 2.6239-1.7878 3.8911-0.56074 1.1418-1.3853 2.1097-2.208 3.0674-0.74065 1.0664-1.6828 1.9405-2.6496 2.7944-0.63944 0.47128-0.30533 0.26131-1.0016 0.63104l-9.3688-1.213c0.68155-0.0294 0.35314 0.0531 0.98209-0.25948 1.0082-0.73101 1.9676-1.577 2.6677-2.6165 0.78492-0.92396 1.6201-1.8219 2.1946-2.8942 0.75606-1.1779 1.24-2.5175 1.8172-3.7883 0.62874-1.3961 1.2768-2.7924 1.7552-4.2476 0.50874-1.3049 1.0921-2.5788 1.8123-3.7817 0.67358-1.1983 1.5725-2.251 2.0818-3.5475 0.67443-1.3919 1.4204-2.7479 2.099-4.138 0.68247-1.5244 1.2675-3.071 1.7468-4.6725 0.5339-1.4512 1.1539-2.8677 1.6346-4.338 0.4113-1.4297 0.9477-2.8212 1.3086-4.2645 0.45889-1.622 0.82854-3.2682 1.4032-4.8561 0.45198-1.5307 1.1236-2.961 1.8835-4.3618 2.359-3.664 8.5549-1.7102 11.894 0.15648 0.97638 0.68147 1.8044 1.5181 2.5468 2.4483l-9.5359 0.56137z"/>
   <path d="m36.928 194.91c-1.2352 2.3374-2.2296 4.8007-3.1584 7.2735-0.93282 2.5216-1.7436 5.0872-2.5077 7.6645-0.60712 2.046-1.3895 4.0328-2.1877 6.0101-0.65952 1.4792-0.97815 3.0421-1.1221 4.6449-0.08304 1.6092-0.78362 3.0337-1.3097 4.5219-0.49265 1.5429-0.89758 3.1087-1.3337 4.668-0.4281 1.5157-1.1409 2.9059-1.9106 4.2704-0.74817 1.3177-1.3363 2.7141-2.0594 4.0451-0.62362 1.2379-1.3651 2.4118-2.135 3.5629-0.77803 1.1285-1.714 2.1169-2.3251 3.3521-0.47448 1.1806-0.78042 2.4155-1.2228 3.6066 0.01508 0.026-0.46304 1.0062-0.11543 1.0274 0.20678 0.0126 0.69908-0.37217 0.49205-0.37965-2.9581-0.10687-5.92-0.0248-8.88-0.0372 1.8441-0.27391 3.3019-1.5595 4.7416-2.6484 1.4808-1.2197 2.7929-2.6197 4.2293-3.8897 1.3535-1.0918 2.5026-2.3992 3.8082-3.5425 0.96752-0.77606 1.8626-1.6249 2.7291-2.5103 2.5333-2.6828 9.2553-7.6801 11.524-1.1461 0.24023 1.3404 0.15576 2.7219 0.14878 4.0788 0.10974 1.5869-0.13303 3.113-0.57026 4.6305-0.52168 1.4539-1.2053 2.8402-1.7925 4.2678-0.58743 1.4805-1.331 2.8812-2.1238 4.2596-0.72639 1.1544-1.0273 2.4822-1.4024 3.7751-0.30203 1.3633-0.5786 2.7341-0.83321 4.1082-0.15978 1.4119-0.37375 2.8059-0.63845 4.2019-0.41828 1.2598-0.63547 2.5664-0.93808 3.8536-0.21458 1.0366-0.69644 1.9809-1.0103 2.9842-0.39621 0.93996-0.65844 1.9252-1.0268 2.8748-0.50553 0.86008-0.89447 1.7133-1.0832 2.6954-0.23494 1.1068-0.655 2.158-0.99106 3.2346-0.29824 1.0868-0.62842 2.1672-0.97118 3.241-0.36216 1.0974-0.71715 2.1764-1.1969 3.2301-0.54359 1.2041-1.2482 2.3172-1.9235 3.4482-0.55432 0.93316-1.2059 1.7996-1.9258 2.6102-0.50288 0.63746 0.66503 0.61095 1.0687 0.67165 3.2053 0.26212 7.7537 0.23685-7.279 0.0293-0.24317-3e-3 0.48621-0.0227 0.72784-0.0504 0.64704-0.0737 0.79278-0.13359 1.4227-0.2938 1.403-0.32962 2.7335-0.85045 4.0054-1.5203 0.99044-0.54049 1.8818-1.2322 2.7131-1.99 0.84796-0.76693 1.7437-1.4851 2.6628-2.1656 1.0519-0.75208 2.1455-1.443 3.2505-2.1137 1.2091-0.68677 2.3648-1.4585 3.537-2.206 1.2347-0.87799 2.2368-2.0213 3.207-3.1723 0.90332-1.0576 1.7046-2.1916 2.5256-3.3122 0.9851-1.1799 1.7675-2.5026 2.6164-3.7781 0.67273-0.99272 1.4963-1.8683 2.323-2.7321l9.3894 0.71066c-0.79495 0.85679-1.7195 1.6002-2.382 2.5752-0.86818 1.2728-1.6147 2.6299-2.6067 3.8159-0.83584 1.1395-1.6053 2.3246-2.5249 3.4018-1.0749 1.1395-2.0146 2.4163-3.245 3.4072-1.1335 0.79325-2.2856 1.5594-3.4867 2.2369-1.0737 0.70025-2.1837 1.3252-3.2445 2.0381-0.8915 0.67452-1.7986 1.3516-2.5962 2.1151-0.94024 0.73421-1.7754 1.598-2.8304 2.1884-1.3033 0.67115-2.5696 1.4228-4.0298 1.7152-4.3459 1.3025-9.1077 1.3319-13.538 0.29986-1.0301-0.46728-1.7866-1.3947-1.1314-2.5316 0.65314-0.81907 1.4213-1.5395 1.9773-2.4403 0.62726-1.129 1.4046-2.1652 1.9267-3.352 0.45575-1.04 0.81285-2.0825 1.1398-3.1686 0.43408-1.0119 0.65199-2.1379 1.0055-3.1789 0.29577-1.0499 0.66729-2.0744 0.96897-3.1228 0.15663-1.033 0.38736-2.0562 1.063-2.8873 0.3624-0.92678 0.60044-1.8871 1.0349-2.7863 0.26923-1.0285 0.77883-1.9453 1.0368-2.9763 0.40311-1.2316 0.48923-2.561 0.97294-3.777 0.27116-1.3938 0.51699-2.7812 0.67467-4.1934 0.25506-1.4029 0.48106-2.8124 0.79624-4.2022 0.3926-1.3676 0.7061-2.7765 1.453-4.0069 0.79652-1.3322 1.5427-2.6884 2.1355-4.1254 0.5671-1.4014 1.1653-2.7842 1.7503-4.1776 0.43924-1.4264 0.72332-2.8504 0.60608-4.3561-0.01313-1.0907 0.12698-2.4429-0.35708-3.4368-2.1203 2.5061-0.17366 0.12762 9.1132-0.0296 0.11123-2e-3 -0.23023-0.0127-0.33221 0.0318-0.58237 0.25381-0.86128 0.90645-1.4106 1.2099-0.86658 0.94381-1.7176 1.8832-2.7589 2.6376-1.4216 1.029-2.5408 2.393-3.9083 3.49-1.4613 1.2748-2.7999 2.6706-4.2557 3.951-1.4741 1.1365-2.8966 2.3606-4.5855 3.1784-2.2712 0.017-12.058 2.9364-10.274-2.334 0.47958-1.2052 0.85051-2.4396 1.2668-3.6699 0.57718-1.3061 1.4551-2.3704 2.3144-3.4992 0.76548-1.1328 1.5823-2.2362 2.1603-3.4857 0.76532-1.3195 1.3999-2.6927 2.0826-4.0548 0.7608-1.2907 1.4691-2.6061 1.9193-4.0423 0.46116-1.5694 0.84642-3.1564 1.3401-4.7159 0.47625-1.4269 1.1613-2.7789 1.2945-4.3004 0.16485-1.7014 0.44506-3.3673 1.201-4.9221 0.82712-1.9427 1.6574-3.8946 2.2793-5.9144 0.79703-2.6039 1.7115-5.1704 2.6719-7.7186 0.8977-2.4082 1.922-4.7752 2.6034-7.2586l9.5616 0.30776z"/>
   <path d="m34.71 264.25c0.90562-1.8597 1.6561-3.7918 2.3968-5.7222 0.72619-1.8523 1.5807-3.6426 2.5987-5.3515 0.74582-1.0757 1.3799-2.2039 1.9262-3.3921 0.45231-1.0585 1.1475-1.9716 1.7795-2.9228 0.65094-1.0213 1.2157-2.0903 2.0055-3.014 0.93491-0.78632 1.4732-1.8276 2.0309-2.885 0.48783-0.96591 1.1054-1.741 2.0568-2.2657 0.90627-0.50567 1.8405-0.91597 2.6096-1.6234 0.85996-0.80534 1.9325-1.2875 2.9789-1.7941 1.3001-0.58693 2.7099-0.73598 4.1158-0.82586 1.4433-0.11658 2.865-0.39855 4.3051-0.55099 1.314-0.0979 2.6176-0.089 3.9001-0.41587 1.3253-0.64116 2.1935-1.9065 3.1791-2.9563l9.1348 0.67419c-0.99424 1.138-1.7872 2.4595-2.9999 3.3862-1.2181 0.6908-2.5576 0.67467-3.9309 0.69937-1.4608 0.10058-2.9095 0.29404-4.3458 0.58216-1.3481 0.042-2.7126 0.0851-4.0086 0.50036-1.0205 0.38197-1.9971 0.88402-2.9053 1.4896-0.52826 0.47075-0.26671 0.21363-0.77865 0.77743-0.52224 0.46776-1.235 0.68544-1.8327 1.0332-0.95992 0.61692-1.4397 0.57528-2.0525 1.7407-0.56705 1.1132-1.1092 2.2765-2.0523 3.1281-0.81793 0.84471-1.4284 1.8131-1.9924 2.8426-0.55886 0.96459-1.286 1.806-1.8079 2.7923-0.53739 1.2536-1.1525 2.4587-1.9865 3.5451-1.1573 1.5775-1.975 3.3695-2.7786 5.1457-0.75264 1.9106-1.5077 3.837-2.0311 5.8243l-9.5146-0.44146z"/>
   <path d="m67.668 226.72c1.1822-0.33739 2.3533-0.71737 3.5127-1.1278 0.93116-0.30651 1.7726-0.8063 2.6181-1.29 0 0 9.1552 0.92716 9.1552 0.92716-0.7978 0.55045-1.6038 1.0738-2.4665 1.5194-1.1134 0.37959-2.219 0.78999-3.3274 1.1631l-9.492-1.1918z"/>
   <path d="m41.994 187.95c-0.75317 1.3212-1.532 2.6297-2.331 3.9264-0.95598 1.6145-2.1687 3.0502-3.2767 4.5577-0.78895 1.0989-1.5247 2.238-2.2455 3.3829l-9.3319-0.52055c0.72563-1.1761 1.5037-2.325 2.3048-3.4501 1.0908-1.4887 2.3208-2.8874 3.2475-4.4886 0.7948-1.2621 1.682-2.5221 2.0969-3.9691l9.5359 0.56137z"/>
   <path d="m131.18 69.363c-0.98518 0.45623-1.8993 1.0632-2.928 1.4294-1.263 0.23315-0.59002 0.07424-1.3343 0.47439 1.0258-0.21089 2.0721-0.32157 3.1218-0.38189 0.35937-0.01476 0.71889-0.02297 1.0785-0.02791 1.1032-0.0011 2.1983 0.04682 3.2887 0.262 1.423 0.38431 2.6173 1.2425 3.8122 2.0671 1.0532 0.74051 2.0604 1.5294 2.9967 2.4128 0.71321 0.68694 1.422 1.3641 1.9751 2.188 1.0717 1.4216 2.1597 2.8287 3.2034 4.2731 0.72129 1.0631 1.5259 2.0639 2.3771 3.0246 0.89527 0.82022 1.6827 1.7454 2.5321 2.6117 0.79832 0.81517 1.7201 1.5202 2.7518 2.0097l9.3782-1.1503c-1.0583-0.26777-1.9183-0.89062-2.7544-1.5741-0.82053-0.88598-1.6501-1.766-2.4794-2.6407-0.96551-0.83663-1.743-1.8934-2.5368-2.8882-0.31266-0.38413-0.61211-0.77895-0.90641-1.1777-0.91358-0.34205-1.8777-1.0514-2.7636-2.2242-0.28782-0.381-0.5374-0.79431-0.86352-1.1431-0.11906-0.12733-0.33747-0.13182-0.45165-0.26355-1.56-1.7998-0.94834-1.2995-1.8097-3.3476-0.0104-0.0082-0.0206-0.01664-0.031-0.02479-0.0121 0.02643-0.0251 0.08221-0.0372 0.10749-0.0252-0.06494-0.0503-0.12988-0.0755-0.19482-0.39885-0.3093-0.80307-0.61259-1.2087-0.91622-1.2631-0.80891-2.3926-1.8196-3.8106-2.3678-1.432-0.50092-2.8941-0.55944-4.4023-0.49092-1.5702-0.0021-3.1401-0.0062-4.7103-0.01291-1.1369-0.0078-2.2743-0.02133-3.4122-0.03359zm1.1028 1.4867c0.25595-2.64e-4 1.0239 0.0013 0.76791 0.0016-0.61991 2.65e-4 -0.40549 2.2e-4 -1.1162 5.29e-4 0.11609-2.64e-4 0.23222-0.0019 0.3483-0.0021zm-9.9984 2.2763c-0.741 0.25409-1.4839 0.50356-2.2247 0.75758l1.4475 0.04651c0.20931-0.3142 0.47652-0.57643 0.77721-0.80408z"/>
   <path d="m131.91 69.808c-0.56637-0.0013-1.132 0.01426-1.696 0.04444-0.63992 0.34336-1.276 0.69539-1.9632 0.94-1.7152 0.31664 0.15979-0.09781-2.8272 1.1607-3.0018 1.2647-6.1993 2.0534-9.1653 3.3931-0.38969 0.60316-0.8135 1.1261-1.2532 1.4593-0.0613 0.04647-0.12507 0.08915-0.18965 0.13022 7.2574 0.20757 5.245 0.98623 8.7953-0.57103 1.7422-0.8395 3.5017-1.6463 5.2999-2.358 1.5375 0.40606 3.0987 0.7787 4.4804 1.5973 1.288 0.61353 2.4554 1.4447 3.6675 2.1854 1.2483 0.89038 2.5754 1.6662 3.8235 2.5538 1.6858 0.89053 3.3562 1.7897 4.9682 2.8102 1.5034 0.66948 2.0069 1.63 3.1001 2.7771 0.59921 0.85867 1.29 1.7918 1.509 2.8231l9.5617-0.30799c-0.37826-1.1226-1.0458-2.1139-1.7126-3.083-0.93786-1.2084-1.8968-2.3684-3.1879-3.2034-1.68-0.92082-3.3134-1.9208-5.0049-2.8205-1.2926-0.73992-2.4762-1.6467-3.7248-2.4598-1.2012-0.8319-2.452-1.5818-3.7279-2.2924-1.4712-0.88856-3.0956-1.3667-4.7294-1.8448-0.0668-0.02048-0.13406-0.03797-0.20102-0.05736l5.5769-0.62477c-0.85751-0.47723-0.4348-0.2551-1.2661-0.66973-1.1408-0.36482-2.3778-0.4041-3.4592-0.98857-2.1911-0.35327-4.4373-0.58798-6.674-0.59324zm-10.694 5.6203c0.29643 0.0067 0.5873 0.01236 0.89711 0.02222 0.12683 4e-3 -1.3706 0.55798-0.9648 0.05116 0.022-0.02513 0.0453-0.04873 0.0677-0.07338z"/>
  </g>
  <path d="m129.45 74.829c-1.3218 0.0043-2.6844 0.49073-4.7594 1.3472-4.7804 1.9731-8.1762 4.8287-11.403 9.5891-1.2015 1.7723-3.1484 4.5508-4.3258 6.1743-1.1775 1.6235-2.814 4.9585-3.637 7.4114-2.3706 7.0654-4.8539 11.438-10.625 18.706-2.9593 3.7274-6.6463 9.2915-8.1933 12.365-3.0987 6.1558-7.9244 13.207-13.104 19.147-1.8544 2.1268-5.2896 6.781-7.6336 10.343-2.794 4.2452-5.8871 7.9358-8.9808 10.716-2.9569 2.6569-6.3735 6.6859-9.1493 10.79-2.4366 3.6021-4.6478 6.6837-4.9139 6.8482-0.2661 0.16446-2.0826 2.6913-4.037 5.6146-2.716 4.0624-4.3092 7.5175-6.7588 14.66-1.7627 5.1398-3.4009 10.36-3.6406 11.6-0.6636 3.4342-3.5908 12.488-4.2612 13.18-1.432 1.4779-0.36181 1.484 2.403 0.0139 3.6594-1.9457 4.9821-1.9932 6.7345-0.24082 1.2004 1.2004 1.3251 1.9436 1.1085 6.6063-0.20922 4.503-0.58828 5.9422-2.6541 10.074-1.5468 3.0941-2.8727 7.1271-3.7011 11.259-1.0279 5.1277-5.6092 20.104-8.0383 26.277-0.84992 2.1599 9.3185-5.2772 12.153-8.8884 2.4007-3.0587 8.1582-12.579 8.1582-13.49 0-0.17714-1.3363-0.32194-2.9693-0.32194-2.1269 0-2.8727-0.22857-2.6293-0.80564 0.18687-0.44308 1.0617-2.5458 1.9441-4.6726 2.0721-4.9942 5.3826-10.823 9.1266-16.07 3.1949-4.4772 8.9788-8.7426 11.855-8.7426 0.86772 0 1.3796-0.19807 1.1374-0.44028-0.66928-0.66929 3.3073-2.1379 5.7893-2.1379 1.2065 0 4.291-0.54798 6.8544-1.218s7.5611-1.5674 11.106-1.9942c6.4822-0.78046 15.726-3.3732 22.154-6.2136 1.905-0.8418 4.0363-1.5301 4.7361-1.5301 4.1576 0 12.438-6.8615 17.562-14.551 4.4517-6.6815 6.3508-11.462 7.4052-18.643 0.41618-2.8342 1.1654-6.6034 1.665-8.3757 2.2172-7.865 2.8706-13.788 2.8706-26.032 0-13.366 0.74271-18.79 3.621-26.437 2.5703-6.8286 11.772-20.01 16.215-23.229 2.8516-2.0657 7.8659-7.7134 7.8724-8.8661 2e-3 -0.42942-1.2282-1.0874-2.7347-1.4624-1.5065-0.37501-4.5575-1.4012-6.78-2.2805-2.2224-0.87929-4.5865-1.5989-5.2534-1.5989-0.70305 0-1.773-0.94948-2.5461-2.2598-0.73337-1.243-2.6767-3.0557-4.3186-4.0282s-5.1485-3.1189-7.7928-4.7697c-3.8534-2.4057-5.6981-3.4293-7.63-3.423zm-53.628 149.46c0.95421-8e-3 2.0227 0.0691 3.36 0.22117l4.5114 0.51263-2.2557 1.4221c-2.2378 1.4108-5.5626 1.69-11.44 0.96066-2.9754-0.36924-2.6036-1.0341 1.2888-2.3042 1.6716-0.54549 2.9448-0.79833 4.5351-0.81235z" stroke-width=".64448"/>
  <g stroke-width=".26458">
   <path d="m135.36 75.282c-1.6283-4e-3 -4.2484 0.38609-7.2383 0.37982-0.77857-0.31103-0.47382-0.41798-0.45785-0.0036-0.10662-0.0019-0.20985 7.94e-4 -0.31729-0.0021-0.16713-0.0044-0.20034 0.26786-0.30076 0.40153-0.12959 0.17247-0.2593 0.34448-0.38912 0.51676-0.3022 0.39981-0.61547 0.79031-0.93276 1.1772-1.5556-0.0013-3.1112 0.0013-4.6669 0.01963-1.6219 0.01564-3.2524 0.04313-4.8504 0.3545-1.8131 0.42516-3.5671 1.1197-4.9961 2.3482-0.67311 0.67486-1.2674 1.4008-1.8138 2.1627-0.22692 0.53163-0.55676 1.0027-0.95085 1.4309-0.20401 0.32762-0.40449 0.6584-0.60048 0.99426-1.2526 1.9532-2.5226 3.9014-3.5471 5.9877-1.2217 2.5611-2.2593 5.2049-3.0096 7.9453-0.55895 1.9287-1.4306 3.9152-1.2526 5.9547 0.1936 0.42894 0.4465 0.79056 0.74259 1.0981-1.4726-7.9e-4 -1.8196 0.93913-3.2773 3.3584-0.27102 0.41956-0.54524 0.83702-0.81752 1.2557-0.70859-0.0205-1.4169-0.0452-2.1234-0.0858-0.04822 0.10795-0.10292 0.21257-0.15348 0.31936-0.08494 0.0362-0.11473 0.15257-0.13539 0.28215-0.9906 1.9983-2.3467 3.814-3.4349 5.7536-2.3951 3.967-4.8681 7.888-7.1784 11.905-0.55283 1.0809-1.3417 2.4494-0.83354 2.5213 0.45641 0.0646 0.80102 0.11883 1.2103 0.17984-0.1622 0.33037-0.32923 0.66739-0.4346 0.86919-0.25681 0.49183-0.52984 0.97496-0.79478 1.4624-0.24908 0.44172-0.50239 0.88142-0.7581 1.3193-1.2141 9e-3 -1.4199 0.50755-2.7673 2.5544-0.68791 1.0609-1.375 2.1224-2.0614 3.1843-0.81705-0.0542-1.6349-0.0957-2.4536-0.11524-0.05601-1e-3 -0.06948 0.0448-0.07287 0.10335-0.04426-1e-3 -0.08855-2e-3 -0.13281-3e-3 -0.7188 1.6873-1.5216 3.3361-2.3714 4.9614-0.16768 0.28126-0.33136 0.56467-0.49609 0.84749-0.12478-8e-3 -0.25006-0.0137-0.37466-0.0233-0.0092 0.0367-0.02164 0.0721-0.03152 0.10853-0.06886 5e-3 -0.13786 9e-3 -0.2067 0.0155-0.42671 0.0386-0.27835 0.81116-0.44803 1.2046-0.25162 0.58334-0.52909 1.1553-0.80305 1.7286-2.1108 3.3479-4.2656 6.6661-6.4187 9.9875 0.02724 3e-3 0.05441 7e-3 0.08165 0.0103-0.01844 0.0266-0.03634 0.0535-0.05478 0.0801-0.12482 9e-3 -0.20926 0.0102-0.12041 0.0124 0.03668 1e-3 0.07339 1e-3 0.11007 2e-3 -0.83431 1.2013-1.6737 2.3989-2.5213 3.592-0.3714 0.52283-0.78873 1.0164-1.11 1.5715-0.10797 0.18652-0.31193 0.44285-0.49351 0.69247-4.0081-1.6589-2.1092-0.74767-3.422 1.6123-0.03605 0.0648-0.09176 0.15467-0.13436 0.22789-0.37562 0.07-0.47633 0.48866-0.56379 0.92708-0.30634 0.48764-0.58631 0.92259-0.83406 1.3069-0.65413-0.0375-1.3072-0.0813-1.9554-0.14986 0.0071 0.0941 0.0021 0.19324-0.01138 0.29508-0.10181 0.0122-0.20371 0.0228-0.30541 0.0367-0.51614 0.0707-0.38991 0.96686-0.61185 1.4382-0.33703 0.7157-0.68884 1.4249-1.064 2.1213-1.5562 2.8889-3.3114 5.6513-5.1036 8.3964-1.1628-0.22426-1.5556-0.26937-1.9275 0.38344-0.01714-2e-3 -0.03294-3e-3 -0.05013-4e-3 -0.03719-3e-3 -0.01643 0.0351 0.0093 0.0822-0.2036 0.38476-0.41423 0.97876-0.76016 1.8722-0.06327 0.15788-0.12937 0.31423-0.1943 0.47129-0.22288 0.42365-0.45684 0.84195-0.68471 1.263-0.38424 0.66928-0.76787 1.3388-1.1529 2.0076-0.27894 0.0166-0.57993 0.0295-0.89969 0.0408-3.9748-0.32218-4.69-1.1617-5.149-0.14004-0.04221-4e-3 -0.08148-6e-3 -0.12402-0.01-0.04541-4e-3 0.06617 0.0558 0.08526 0.10387-0.15228 0.38473-0.28557 0.98975-0.51883 1.9167-1.367 5.0296-3.3156 9.8629-5.1754 14.722-0.53522 1.2309-0.98864 2.4953-1.5172 3.729-0.29109 0.67939-0.73421 1.308-0.89297 2.0298-0.04296 0.19534-0.18442 0.59397 0.0155 0.59996 0.17431 5e-3 0.34866 5e-3 0.52296 7e-3 0.01662 0.0267 0.04592 0.0458 0.08733 0.0579-1.0041 1.0149-1.1805 1.0279 1.4872 0.67748-0.15627 0.34209-0.21798 0.47519-0.75189 1.6526-0.30237 0.66682-0.6241 1.3251-0.9033 2.002-0.19496 0.47261-1.016 1.3285-0.5178 1.4433 0.2063 0.0475 0.41313 0.0907 0.62063 0.13126-0.36252 1.1256-0.72592 2.2491-1.0692 3.374-0.48214 1.3935-1.3424 3.9279-1.9136 5.3914-0.27392 8e-3 -0.54796 0.0163-0.82166 0.0191-0.39628 0.913-0.76248 1.8396-1.1384 2.7621-0.36125 0.41318-0.72894 0.82094-1.1095 1.2175-0.3559 0.40282-0.82226 0.73993-1.0857 1.202 0.25155-4e-3 0.56464-2e-3 0.85886-3e-3 -0.31077 0.10621-0.64411 0.18621-0.97978 0.24391-0.16558 0.35387-0.53492 0.95856-0.19275 1.0051 0.25943 0.0353 0.4923 0.0696 0.73381 0.10439-0.06127 0.10596-0.11825 0.21395-0.1819 0.31884-0.20997 0.36668-0.42367 0.73141-0.62994 1.1002-0.15373 0.27485-0.76104 0.78054-0.4501 0.83044 0.35207 0.0565 0.65747 0.11106 0.98134 0.1664-0.14506 0.19177-0.24162 0.32381-0.35502 0.47542-0.09445 0.0568-0.16365 0.10369-0.09043 0.10904 0.0029 1.9e-4 0.0054 2.3e-4 0.0083 5.3e-4 -0.98971 1.3376-0.54589 1.0925 2.39 0.82321-0.0057 0.0112-0.01195 0.0223-0.01757 0.0336-0.67351 1.0427-1.0883 2.2484-1.7921 3.2587-2.409-0.34793-2.2547-0.76283-1.5973 0.48886 0.02708 0.11751 0.05779 0.26425 0.09302 0.45734-0.49647 0.0718-0.49178 0.0815 0.0098 0.0517 0.08392 0.45948 0.17976 0.97202 0.25838 0.97565 0.10255 5e-3 0.18582 0.0121 0.28577 0.017 0.31456 0.80499 0.62424 1.6101 0.9648 2.4076 0.64459 1.5899 2.159 2.7592 3.9357 3.3724 0.01785 0.13986 0.03651 0.27983 0.05839 0.41961 0.49717 1.5516 1.4855 2.2173 2.7487 2.4242-0.34122 1.1407-0.68178 2.2817-1.0284 3.4205-0.74133 2.2138-1.449 4.4638-2.2981 6.6523-1.0328 2.0395-0.92276 1.8042-1.8743 3.7502-0.14685 0.30032-0.69487 0.78622-0.60151 0.97772 0.09101-7.9e-4 0.18184-2.6e-4 0.27285 0-3.18e-4 5.3e-4 -7.15e-4 1e-3 -1e-3 2e-3 -0.01743 0.028-0.02994 0.0646-0.04341 0.0997 0.70774 0.18431 1.4223 0.33858 2.142 0.4687-0.90182 2.2614-1.8584 4.4992-2.8985 6.6968 0.05457 6e-3 0.10924 0.0114 0.16381 0.0175-0.15757 0.26257-0.33965 0.50983-0.51676 0.75965-0.05643 0.0796-0.28146 0.23188-0.18397 0.22788 1.3197-0.0555 2.6379-0.13774 3.9558-0.22632-0.5208 1.0226-1.0514 2.0402-1.5896 3.0536-0.04427 0.0672-0.08859 0.13433-0.13281 0.20154-0.58731 0.77121-1.1708 1.5457-1.7492 2.3239-0.51786 0.73758-1.2166 1.64-0.86816 1.7301-1.127 1.7888-2.2238 3.5962-3.2701 5.4332-0.19488 0.3752-0.4099 0.74057-0.5917 1.1219 0.128 3e-3 0.25597 9e-3 0.38396 0.013 0.05055 0.014 0.0922 0.0265 0.14211 0.0403-0.1382 0.12689-0.25985 0.21796-0.339 0.23563-0.07417 0.0167-0.18417-0.0913-0.23823-0.18084-0.01187 0.0262-0.02522 0.0517-0.03669 0.078-0.15935 0.3661-0.77804 1.0706-0.38396 1.1348 0.32656 0.0532 0.61278 0.10451 0.91519 0.15658-0.5465 0.63739-1.0917 1.2757-1.6304 1.9203-0.71252 0.8718-2.4196 2.5463-2.4939 3.7248-0.0156 0.24734 0.0579 0.49234 0.08682 0.73846 8.6786 0.0246 8.3252 1.7857 12.635-2.2448 2.2065-2.0556 4.1251-4.3852 6.1562-6.6105 3.2686 1.0921 3.0249 1.6222 3.9326-0.72088 1.1785-1.372 2.3147-2.7778 3.2701-4.3191 1.2681-1.8772 2.3654-3.845 3.3502-5.8725 0.14751-0.22463 0.29283-0.45077 0.44183-0.67437 0.24717-0.41185 0.43183-0.71996 0.60565-1.016 0.17604-0.11498 0.32049-0.21894 0.18449-0.23563-0.01463-3e-3 -0.02572-4e-3 -0.04031-6e-3 0.41428-0.72594 0.53024-1.0796 0.23461-1.2175 0.14382-0.34002 0.28698-0.6803 0.42633-1.0227 0.6094-1.6075 1.2244-3.224 1.6816-4.8839 0.09042-0.32835 0.55518-0.92575 0.22221-0.99735-0.06932-0.0149-0.13936-0.0259-0.20877-0.0403 0.09909 0.1218 0.30239 0.30001 0.18087 0.30179-0.15431 3e-3 -0.30869-5.3e-4 -0.46302 0 0.07209-0.10571 0.14605-0.21016 0.22118-0.31368-1.176-0.24121-2.3647-0.41258-3.56-0.54002 0.25778-0.45733 0.44634-0.80925 1.0025-1.91 0.16365-0.32386 0.83844-0.90123 0.48318-0.97513-0.36023-0.0749-0.667-0.14553-0.99736-0.21807 1.8973-3.0212 3.8081-6.0335 5.7728-9.0124 3.1051-4.4115 6.1481-8.8681 9.3219-13.231 0.66874-0.83553 1.2417-1.7383 1.7978-2.652 0.37338-0.18994 0.74581-0.3824 1.1167-0.57877 1.4536-0.78016 2.8938-1.5822 4.3625-2.3234 1.6629 0.21333 3.3284 0.41034 4.9894 0.63613 1.2367-0.16665 2.4754-0.33389 3.6509-0.78083 0.19869-0.0718 0.39595-0.14776 0.59428-0.22066 0.27792-0.0533 0.55571-0.10842 0.83354-0.16071 1.781-0.46849 3.6143-0.75597 5.3847-1.265 0.89466-0.25726 1.7653-0.59216 2.6557-0.86403 3.0432-0.95043 6.1522-1.6857 9.2733-2.3301 1.7577-0.50902 3.6143-0.72854 5.3413-1.3498 0.68364-0.24594 1.3232-0.60001 1.9901-0.88832 2.1074-0.96582 4.1147-2.1358 6.1588-3.2272 2.4188-1.151 5.0124-1.8222 7.4791-2.8567 1.729-0.54468 3.2409-1.5139 4.6514-2.6195 0.81137-0.50681 1.6244-1.0245 2.3776-1.6154 0.99522-0.48242 1.9489-1.0499 2.8195-1.7353 0.97927-0.87333 1.9188-1.7985 2.7512-2.8138 0.88149-1.1947 1.7461-2.4024 2.6986-3.5424 0.99793-1.1804 2.0791-2.2887 3.0608-3.484 0.86241-0.9352 1.7326-1.843 2.2965-3.0045 0.69445-1.2404 1.4799-2.4341 2.0448-3.7429 0.90916-1.8696 1.3675-3.8612 1.5803-5.9309 0.31159-2.6642 0.5103-5.3498 0.4439-8.0336-3e-3 -0.22408-0.0502-2.3664-0.0894-3.2179 0.64895-1.5599 0.75241-3.2347 0.79841-4.902-0.0476-2.1113 0.24544-4.2031 0.38137-6.305 0.0178-0.23042 0.0384-0.46038 0.0594-0.6904 0.0225-0.072 0.0466-0.14337 0.0687-0.21549 0.605-1.6669 1.0424-3.3823 1.3141-5.1361 0.4085-1.9697 0.90631-3.9196 1.263-5.9004 0.29631-2.1142 0.42247-4.245 0.75137-6.3552 0.40407-2.3328 0.66473-4.693 0.67903-7.0631 0.0504-2.1208 0.18324-4.2418 0.5116-6.3397 0.28123-1.7092 0.40468-3.4484 0.88935-5.1175 0.54479-1.8017 1.1335-3.5865 1.8702-5.3206 0.74103-1.7565 1.4493-3.5312 2.3166-5.2307 0.72649-1.3027 1.7027-2.3909 2.5492-3.6101 0.74765-1.1462 1.6129-2.2081 2.6469-3.1109 1.3688-1.1499 2.7231-2.3221 4.0287-3.5429 1.8582-1.7882 3.6201-3.664 5.1459-5.75 0.61354-0.76997 1.2358-1.5342 1.8516-2.3032 1.5523-0.0872 2.9557-0.54305 4.0225-1.7032l-2.5156-0.23152c0.0989-0.13253 0.19554-0.26687 0.293-0.40049 0.23431 2.7e-4 0.41962-1e-3 0.66249-5.3e-4 0.61105 1e-3 -0.18818-4e-3 -0.65732-6e-3 0.27664-0.37943 0.54862-0.76225 0.8108-1.1524 2e-3 -0.0031 0.2977-0.37626 0.57516-0.78445-0.0637-0.0011-0.1285-0.0024-0.19431-0.0036 0.0666-0.04842 0.13087-0.09948 0.19534-0.15038 0.0381-0.0081 0.0775-0.01474 0.11628-0.02223 0.0322-0.05004 0.0611-0.09866 0.091-0.14779 0.0207-0.01815 0.0432-0.03417 0.0636-0.05271 0.0379-0.07983 0.0678-0.15671 0.092-0.23203 0.10096-0.20696 0.14744-0.37285 0.0682-0.42685-3e-3 -0.80527-0.80813-1.3277-1.5255-1.7704-1.1481-0.6634-2.4522-0.83085-3.7419-0.99942-0.99824-0.14773-1.9679-0.41427-2.9399-0.67334-0.29011-0.44778-0.55498-0.91373-0.81493-1.371-0.62423-0.92233-1.3651-1.7439-2.095-2.5756-0.83504-0.83644-1.4525-1.8552-2.2789-2.7032-0.77902-0.78537-1.7433-1.3986-2.7171-1.9131-0.30264-0.19899-0.6272-0.3639-0.92398-0.57154-0.61072-0.42728-1.0228-1.0963-1.7141-1.4258-0.92172-0.80257-2.011-1.3829-2.96-2.1492-1.1776-0.90925-2.4794-1.6386-3.7434-2.419-1.0888-0.57712-2.2421-1.1054-3.4448-1.3787-0.9297-0.22192-1.8064-0.28089-2.7125-0.28629 0.0112-0.01214 0.0229-0.024 0.0341-0.03617 0.17446-0.25547 0.31463-0.4845 0.42529-0.69195-0.0837-0.0065-0.15811-0.01312-0.24029-0.01963 0.10847-0.0096 0.23101 0.0092 0.24236 0.01601 0.73988-1.3899 0.0841-1.7512-1.4537-1.7549zm1.4537 1.7549c-7.9e-4 0.0013-1e-3 0.0024-2e-3 0.0036 0.0103 7.94e-4 0.0192 0.0019 0.0295 0.0026 0.0177 0.0013-0.0248-0.0046-0.0274-0.0062zm30.836 21.828c-0.0387 0.06002-0.0769 0.11677-0.1173 0.17622 6.3067 0.10768 2.6082-0.65632 0.1173-0.17622zm-122.72 165.84c0.02029 4e-3 0.0407 8e-3 0.06098 0.0119-0.01244-0.0153-0.02911-0.0331-0.03721-0.046-0.0082 0.0112-0.01564 0.0229-0.02376 0.0341zm-29.237 22.012c-0.01758 0-0.03513-3e-3 -0.05271-3e-3 -0.04968 0-0.03382 0.0515 0.0016 0.11007 0.0164-0.0361 0.0341-0.0717 0.05116-0.1075zm5.5392-21.808c-0.04435-0.0115-0.08904-0.0218-0.13332-0.0336-0.05112-0.0136-0.08031-0.0374-0.09509-0.0677-0.0374 2.6e-4 -0.07473-5.3e-4 -0.11214 0-0.16497 2e-3 -0.08437 0.48772 0.08062 0.48834 0.1583 7.9e-4 0.19524-0.21822 0.25993-0.38706zm-1.587-33.742c0.01048-0.0224 0.02658-0.0522 0.03514-0.0724 0.02494-0.0586 0.05458-0.11426 0.08578-0.16898-4.5432 0.0636-2.3274 0.62061-0.12092 0.24133zm104.45-151.5c-0.48344 0.55332-0.96828 1.1056-1.4469 1.6635-0.0836 0.06743-0.16558 0.13677-0.25011 0.20309-2.168 1.7275-4.3153 3.5044-6.2668 5.4772 0.31832-0.46821 0.63975-0.93454 0.96067-1.4009 0.88734-1.6759 1.9908-3.111 3.392-4.3791 1.1096-0.76264 2.3294-1.2542 3.6112-1.5637zm9.2956 0.93379c1.2234 0.62841 2.3925 1.3561 3.5243 2.1363 0.94968 0.72633 1.9258 1.4151 2.8949 2.1151 0.92722 0.64601 1.7193 1.4521 2.6582 2.0795 0.0517 0.02957 0.10204 0.06101 0.15348 0.09095-0.16875 0.03332-0.34643 0.06727-0.54054 0.10439-5.1078 0.30881-6.6137 0.02365-5.9645 0.77204-0.0259 0.0021-0.0463 0.0047-0.0724 0.0067-0.054 0.0041 0.0156 0.01511 0.10232 0.02687 0.33014 0.36144 1.1152 0.95022 2.2133 1.9311 1.5649 1.5615 3.2508 2.9801 4.995 4.3346 1.5373 1.2155 3.0382 2.4732 4.5847 3.6773 0.51493 0.39127 1.0259 0.78614 1.5425 1.1731-0.71882 1.69e-4 -1.4376-2.65e-4 -2.1565 0-0.2157 1e-4 -0.4313 0.0028-0.64699 0.0041-1.2878 0.019-2.5839 0.03973-3.853 0.2837-1.1462 0.26548-2.2683 0.66461-3.2427 1.3389-0.85261 0.72894-1.4381 1.5052-1.6573 2.6391-0.51335 1.1896-1.3076 2.23-1.8526 3.407-0.66606 1.4436-1.1997 2.9389-1.3637 4.532-0.20354 1.3802-0.25501 2.7508-0.19741 4.1465 8e-3 1.4492 0.0252 2.8983 0.0124 4.3475-0.0341 1.79-0.10667 3.581-0.26665 5.3645-0.27323 2.7532-0.40126 5.5097-0.63407 8.2656-0.3774 2.9479-1.0403 5.8309-1.7064 8.725-0.33855 2.1575-0.61233 4.3338-0.78342 6.5102-0.21245 2.3706-0.49477 4.7353-0.57257 7.1158-0.18012 2.1793-0.51525 4.3408-0.66766 6.5216-0.13198 1.7324-0.38538 3.4509-0.55811 5.178-0.0411 0.11902-0.0799 0.23875-0.12144 0.3576-0.49522 1.5748-1.0686 3.1228-1.5978 4.6865-0.71459 1.7482-1.306 3.5404-2.0082 5.2937-0.66951 2.0254-1.3176 4.0522-2.2603 5.9697-0.95555 1.8246-1.8149 3.6976-2.6536 5.578-0.67637 1.4088-1.3173 2.8489-2.2515 4.1093-0.76352 1.0982-1.4871 2.219-2.0087 3.4535-0.59561 1.3971-1.0686 2.8445-1.5689 4.2809-0.25059 0.63654-0.48615 1.2776-0.72554 1.9172-0.82129 1.0646-1.6405 2.1313-2.4515 3.2039-1.9491 2.5396-3.9602 5.0557-6.3045 7.2435-0.35094 0.1144-0.70153 0.22976-1.0526 0.34313-2.1528 0.72496-4.3826 1.036-6.6389 1.1694-1.9693 0.16387-3.8564 0.70703-5.7314 1.296-0.0132-8e-3 -0.03051-0.0162-0.04083-0.0248-0.50148-0.16206-0.99088-0.36395-1.5017-0.49351-0.55152-0.13988-1.1087-0.2404-1.6692-0.31523 3.6008-3.1652 6.906-6.6382 9.8945-10.393 3.2946-4.4461 6.3252-9.0907 9.2862-13.765 2.5189-3.6378 4.5995-7.5418 6.3552-11.597 1.4134-3.174 2.0972-6.1046 1.9611-9.572-0.30364-3.3814-1.5308-6.5601-2.7234-9.7064-1.3196-3.5827-2.827-7.0862-4.1098-10.683-0.99115-2.906-1.7126-5.874-2.1306-8.9132-0.25343-2.5939-0.27666-5.2014-0.28266-7.8052 0.0185-2.5526 0.58546-5.0288 1.1415-7.5029 0.65069-2.1733 1.4582-4.2937 2.1642-6.4497 0.77352-2.4427 2.2427-4.5736 3.4845-6.7929 0.83434-1.7908 1.8514-3.4918 2.7022-5.2731 0.0476-0.0842 0.0944-0.16901 0.14211-0.25322 0.41982-1.0988 1.6442-2.8868 1.5854-4.1191-0.0128-0.2678 0.0681-0.78446-0.19998-0.77876-0.14279 3e-3 -0.28521 0.0122-0.42788 0.017 0.18904-0.88353 0.43667-1.7478 0.79478-2.5818 0.27863-0.60297 0.56383-1.1994 0.84491-1.7978 1.6295-1.8668 3.2126-3.7712 4.6788-5.7754 2.166-2.8937 4.2802-5.8335 6.6518-8.5654 0.21002-0.24066 0.42493-0.4774 0.63717-0.71624 0.0538-0.04071 0.10688-0.08239 0.16072-0.12299 0.67775-0.57873 1.3579-1.1608 2.0309-1.7513zm18.186 19.899c9e-3 6e-3 0.0186 0.0121 0.0279 0.0181-0.57304-1.4e-4 -0.46029 5.3e-4 -1.3741 5.3e-4 0.44874-6e-3 0.89742-0.0127 1.3462-0.0186zm0.2899 0.18345c0.50641 0.30561 1.029 0.56886 1.5674 0.7953-0.42414 0.30323-0.84575 0.60973-1.2583 0.92862-0.86672 0.73818-1.8742 1.4026-2.4417 2.4112-0.59172 1.5788 0.17709 2.4103 1.5586 2.7559-0.98061 1.0663-2.0251 2.073-3.099 3.0546-1.3693 1.1967-2.7993 2.3208-4.2101 3.4696-0.0301 0.0292-0.059 0.0594-0.0889 0.0889 5e-3 -0.93634 0.0422-1.8688 0.16846-2.8019 0.14459-1.5152 0.6879-2.8993 1.3581-4.2452 0.62073-1.1831 1.4534-2.2089 1.926-3.4654 0.15771-1.056 0.79721-1.5983 1.6697-2.1022 0.91318-0.45696 1.8502-0.73268 2.85-0.88935zm-50.05 4.0142c-0.0684 0.0165-0.13653 0.0306-0.20516 0.0388-0.17745 0.0211-0.71406-0.0315-0.53537-0.0336 0.24683-2e-3 0.4937-3e-3 0.74053-5e-3zm49.322 0.5302c-0.25515 0.0823-1.315 0.0127-1.0434 0.0104 0.34775-3e-3 0.69559-7e-3 1.0434-0.0104zm-70.27 30.875c0.01339-1e-3 0.02684 5.3e-4 0.03979 5e-3 0.09395 0.0308 0.04771 0.27834-0.06356 0.6165-0.06889-7e-3 -0.13793-0.0124-0.20671-0.0207-0.20303-0.0243 0.02978-0.58633 0.23048-0.60048zm17.035 0.0341c0.01847 1.6218 0.07334 3.2426 0.27337 4.8529 0.39992 3.1253 1.3534 6.1199 2.3606 9.0982 1.2869 3.5893 2.8064 7.0874 4.0416 10.696 1.1182 3.0675 2.3628 6.1338 2.6556 9.418 0.0849 3.1903-0.57079 6.2522-1.8397 9.1896-1.6181 4.0191-3.6644 7.837-6.0265 11.47-2.8872 4.6787-5.9136 9.291-9.2418 13.668-3.2755 4.0794-6.8965 7.8431-10.936 11.17-0.29077 0.0128-0.58134 0.0234-0.87075 0.0294-1.6769 0.13869-3.3241 0.45488-4.8343 1.2371-0.49689 0.27449-0.97929 0.57175-1.4552 0.8785-2.078-1.0509-7.1158 0.0864-9.1106 1.7007-1.2415 0.79364-2.5144 1.5345-3.7905 2.2707-0.56246-0.019-1.1248-0.0383-1.6872-0.0568-1.5482-0.45838-1.6668-0.59446-2.0133-0.0522-1.1138-0.0245-2.2275-0.0394-3.3414-0.0176-0.14294 3e-3 -0.11247 0.26322-0.17622 0.39119-0.13576 0.27254-0.27846 0.54136-0.4222 0.80977-0.79985 1.4936-1.6809 2.9389-2.606 4.3584-0.18011 0.28955-0.36352 0.57709-0.54519 0.86558-0.07891 0.059-0.15702 0.1162-0.2372 0.17674-9e-3 5e-3 -0.01786 0.01-0.02687 0.0145 0.0021-2e-5 0.0063 2e-5 0.0083 0-0.03008 0.0227-0.05931 0.0425-0.0894 0.0651-0.01545 2.6e-4 -0.02906 7.9e-4 -0.04444 1e-3 -0.11304 0.0589-0.22487 0.11987-0.33848 0.17776-0.25058 0.16575-0.40833 0.27288-0.59273 0.39636 0.03566 3e-3 0.06442 6e-3 0.09974 9e-3 -7.94e-4 5.3e-4 -0.0019 1e-3 -0.0026 2e-3 -0.02516 0.0124-0.0729 0.01-0.11937 4e-3 -0.99594 0.66812-1.0179 0.78452 0.20309 0.76533-0.70615 0.86154-1.4279 1.708-2.1606 2.544 0.03813-0.41382 0.06848-0.82792 0.0832-1.2413 0.01445-0.40544 0.37346-1.1737-0.02997-1.2165-0.90127-0.0956-1.6841-0.19942-2.4123-0.30438 0.21245-1.5702 0.41674-3.1412 0.62115-4.7118 0.21278-2.3643 0.2581-2.4061-1.6051-2.0112-0.17126-1.8242-0.16349-2.291-0.96635-2.2567 0.23979-0.42667 0.48412-0.85122 0.73639-1.2712-0.03688-4e-3 -0.07371-8e-3 -0.11059-0.0114 0.07552-0.11894 0.15513-0.23491 0.23771-0.34881 0.04983-0.0687 0.27197-0.17286 0.18707-0.17312-0.07029-2.4e-4 -0.14055 1e-3 -0.21084 1e-3 0.53666-1.1594 1.0682-2.3214 1.589-3.4882 0.73802-2.4043 0.70615-2.2821-2.4557-1.6598 0.62653-2.1557 1.177-4.3338 1.6366-6.5366 0.1171-0.71545 0.21836-1.2658 0.30076-1.8014 0.08189-0.17318 0.16404-0.34619 0.24598-0.51935 0.50959-1.0104 1.0224-2.0187 1.5126-3.0386 0.18819-0.39157 0.96425-1.09 0.54054-1.186-0.01132-3e-3 -0.02022-5e-3 -0.03152-7e-3 0.0366-0.076 0.07342-0.15191 0.11007-0.22789 0.0071-4e-3 0.01529-7e-3 0.02223-0.0119-0.0055 3e-5 -0.01103-3e-5 -0.01654 0 0.03076-0.0638 0.06171-0.12745 0.0925-0.19121 0.24838-0.0599 0.42189-0.27264 0.63769-0.68522 1.3272-0.24258 1.8227-1.3881 3.6716-3.8912 1.0396-1.4686 2.0877-2.9321 3.145-4.3884 2.9999-3.6984 5.8768-7.4944 8.8196-11.237 0.33661-0.46722 0.66257-0.86982 0.9648-1.2299 0.47063-0.33739 1.0969-0.70202 0.71778-0.79478-0.01188-3e-3 -0.02125-5e-3 -0.03307-8e-3 0.50121-0.58095 0.82513-0.99072 0.70694-1.2046 0.14493-0.0339 0.28972-0.0686 0.43408-0.1049-0.11839 0.2784-0.38784 0.62914-0.15761 0.74104 0.25324 0.12309 0.2165-0.50338 0.31471-0.78135 0.10919-0.0282 0.2188-0.0552 0.32763-0.0847 0.63623-0.173 0.61835-1.1651 0.94671-1.7368 1.1688-2.0351 2.0279-3.3648 3.2959-5.396 1.2231-1.9044 2.4612-3.7984 3.7052-5.6885 1.8454 0.42933 2.2378 0.10873 3.0029-1.2661 0.0013-1.2e-4 0.0028-5.3e-4 0.0041-5.3e-4 0.4301-0.0368 0.44154-0.74217 0.67076-1.108 0.36119-0.57637 0.73345-1.1454 1.1002-1.7182 0.52315-0.84567 1.0677-1.6767 1.6206-2.5016 0.41831-8e-4 0.8364-8e-3 1.2547-0.0248 0.2955-0.0121 0.26518-0.52913 0.40618-0.7891 0.27436-0.50588 0.56367-1.0035 0.83974-1.5084 0.54017-0.98801 1.0665-1.9832 1.5875-2.9812 0.10439-0.17644 0.20617-0.35437 0.31161-0.5302 2.3751-0.32314 5.2918-1.3983 6.2332-1.6278-0.0011 0.0676-0.0041 0.13209-0.0016 0.20516 0.0032 0.0878 0.03143-0.08 0.05684-0.21756 0.05027-0.0113 0.11586-0.0288 0.15141-0.0336 0.24576-0.0332 0.20613-0.45124 0.31109-0.67593 0.11061-0.23677 0.13139-0.2767 0.20464-0.43253 0.28041-0.17793 0.28834-0.32495 0.1726-0.36484 0.21686-0.45485 0.37858-0.78177 0.90279-1.8397 1.8925-3.5006 4.1339-6.7899 6.4627-10.014zm-50.909 92.824c0.0068-5e-3 0.01537-0.01 0.02222-0.0145-0.04529-4e-3 -0.08076-8e-3 -0.12661-0.0119-0.0466-4e-3 0.02695 0.0169 0.10439 0.0264zm0.95343-0.5886c0.04196-0.0219 0.08369-0.0441 0.12557-0.0661-3.8254 0.0395-2.3165 0.10191-0.12557 0.0661zm89.15-47.863c0.22334 0.92222 0.18847 1.082-0.37207 0.93482 0.12393-0.31162 0.24634-0.6239 0.37207-0.93482zm-12.676 29.011c0.0921-8e-4 0.17757 1e-3 0.25528 5e-3 0.8839 0.047 0.69409 0.39383-2.6293 0.63923-1e-3 -0.0502-2e-3 -0.0971-3e-3 -0.14934 0.77299-0.35487 1.7328-0.4892 2.3771-0.49506zm-2.2128 1.9663c0.042-3e-3 0.0748-3e-3 0.0951 5.3e-4 0.0803 0.015-0.0103 0.0717-0.25218 0.1385 3e-3 -0.0403 5e-3 -0.0812 7e-3 -0.12196 0.0568-8e-3 0.10788-0.014 0.14987-0.017zm-81.331 10.91c0.19242 4e-3 0.53792 0.1598 0.39481 0.1633-0.24703 6e-3 -0.4853 9e-3 -0.72089 0.0103 0.09112-0.0761 0.17864-0.13914 0.25476-0.16484 0.01937-7e-3 0.04383-9e-3 0.07132-9e-3zm1.8428 38.876c0.1138 6e-3 0.26478 0.062 0.19276 0.0605-0.10852-2e-3 -0.21704-7e-3 -0.32556-0.0103 0.0141-0.0112 0.02574-0.0251 0.04082-0.0351 0.01998-0.0134 0.05405-0.0169 0.09199-0.015z"/>
   <path d="m133.74 73.22c-2.0309-0.02088-4.0541 0.05328-6.0648 0.39636-2.0492 0.41603-4.0432 1.0392-6.0441 1.6407-1.9631 0.61385-3.9654 1.1781-5.7614 2.2087-1.1026 0.77601-2.2126 1.7669-1.6433 3.238 0.72758 0.01601 1.4052 0.05219 2.0454 0.09715-0.92283 1.4974-1.6109 3.0965-2.2242 4.7475-0.0842 0.26884-0.1685 0.53783-0.2527 0.80667l9.325 0.27854c0.0764-0.25272 0.15252-0.50538 0.22892-0.75809 0.64533-1.7841 1.4307-3.4942 2.4469-5.102 0.20341-0.32022 0.41818-0.62722 0.64285-0.92242 0.0901-0.05232 0.18-0.10401 0.2713-0.1602 1.5176-0.7781 3.1204-1.4205 4.8292-1.6061 0.22913-0.0209 0.45695-0.03822 0.68471-0.05426 0.28206 0.02011 0.5636 0.04349 0.84491 0.07493 1.2567 0.18108 2.3999 0.45422 3.4453 1.2113 0.82889 0.64882 1.5866 1.394 2.5508 1.8521 1.0082 0.76111 1.9385 1.6249 2.958 2.374 0.76495 0.61212 1.5951 1.1134 2.3719 1.696 0.70831 0.84808 1.55 1.584 2.3172 2.3787 0.7997 0.89758 1.778 1.6139 2.7156 2.3554 0.84364 0.73458 1.7721 1.3691 2.6355 2.0826-1.0829 0.02856-2.3455 0.06429-3.961 0.0925-0.25738 0.0045-0.69271 0.23345-0.81545 0.47232-0.10534 0.20501-0.10511 0.44841-0.15762 0.67283 0.0166 0.06673 0.025 0.137 0.0357 0.20619 0.0112 2.25e-4 0.0316 7.94e-4 0.0434 0.0011-0.0131-2.02e-4 -0.0314-2.23e-4 -0.0434-5.3e-4 0.0148 0.09604 0.0338 0.19068 0.0832 0.27234 0.5601 0.92536 2.154 0.66965 2.9001 1.3803 1.2858 0.79242 2.5982 1.5303 3.96 2.1828 1.3814 0.62865 2.6646 1.4221 4.007 2.1249 1.3434 0.63592 2.6629 1.347 4.129 1.6635 2.3162 1.5254 1.2004 0.83022 5.0152-0.1416 1.9129 0.46478 4.0578 0.3962 5.5118-0.0692 4e-3 -0.0954 0.01-0.19115 8e-3 -0.28526 0.40589-0.77617 0.73227-1.6012 1.1767-2.3539-0.16595-0.18142-0.36728-0.36786-0.62063-0.5612-0.73417-0.3863-1.4901-0.72838-2.2516-1.0578-0.79076-0.77639-1.7173-1.4262-2.6448-2.0226-1.0971-0.7943-2.3051-1.5174-3.6892-1.5901-0.22516-0.03109-0.44895-0.0703-0.67335-0.10594-0.73823-0.49944-1.4687-1.0091-2.2329-1.4702-1.0425-0.73813-2.0465-1.5313-3.0525-2.3187-0.89115-0.76262-1.8374-1.4637-2.7006-2.2577-0.77766-0.75567-1.5016-1.5638-2.2562-2.342-0.68492-0.7737-1.5824-1.3086-2.4293-1.8841-1.0131-0.73428-1.9977-1.5056-2.9383-2.3306-0.83358-0.64217-1.7422-1.1692-2.5446-1.8516-1.0399-0.88326-2.2641-1.3632-3.576-1.6681-1.5328-0.29698-3.1002-0.30541-4.6555-0.32039-2.1718 0.0544-4.3491 0.0038-6.5257-0.02997 2.1218-0.5692 4.2899-0.89255 6.4782-1.0826 0.34995-0.02402 2.7764-0.07241 2.9719-0.34158 0.44729-0.61598 0.29654-0.82718 0.1292-1.3364-0.29762-0.15099-0.53187-0.30201-0.89194-0.30851-2.0422-0.03695-4.0808-0.15276-6.1118-0.17363zm13.424 20.28v-5.29e-4c-0.31099-0.0062-0.30816-0.0046 0 5.29e-4zm-31.61-13.996c-0.14325 0.03095-0.28739 0.05512-0.43357 0.06253-0.17093 0.0087-0.68119-0.05968-0.51004-0.06098 0.3145-0.0024 0.6291-8e-6 0.94361-0.0016z"/>
   <path d="m118.84 80.761c-0.15449 0.92135-0.0115 1.8701-0.104 2.7923-0.0541 0.53889-0.26478 1.3543-0.38963 1.8822-0.56755 2.1791-1.2474 4.3222-1.827 6.4995-0.56232 2.1824-1.2679 4.3379-2.1094 6.4291-0.78527 1.9922-1.451 4.0197-2.2513 6.0048-0.74356 2.0325-1.7494 3.933-2.7941 5.8212-0.95693 1.7668-2.0474 3.4193-3.39 4.915-1.491 1.6564-2.8727 3.404-4.3682 5.0573-1.764 1.8276-3.2815 3.8636-4.9625 5.7648-1.4977 1.6695-3.1637 3.1736-4.7349 4.7722-1.2229 1.2095-2.6774 2.1376-3.9838 3.2441-1.1484 0.98017-2.2181 2.0446-3.3266 3.0687-1.1203 1.0295-2.014 2.232-2.8663 3.4822-1.177 1.7997-2.554 3.4541-3.7368 5.2496-0.81438 1.4497-1.6055 2.9096-2.5285 4.2937-1.0641 1.4351-2.3385 2.7045-3.5786 3.9868-1.1329 1.1254-2.1471 2.3615-3.1735 3.5826-1.0215 1.3274-2.1739 2.5408-3.3971 3.6823-1.1193 1.0395-2.1802 2.1372-3.3064 3.1696-1.2629 1.0313-2.4974 2.0957-3.7214 3.1727-1.1133 0.85129-2.1613 1.7467-3.149 2.74-0.96884 1.0226-2.0938 1.8804-3.1462 2.815-0.99952 0.8734-1.9488 1.7679-3.0612 2.4995-1.3191 0.9073-2.5241 1.9727-3.7174 3.0371-1.766 1.5067-3.6637 2.837-5.4215 4.3551-1.2893 1.046-2.2837 2.366-3.2409 3.7064-1.0016 1.2393-1.9294 2.5357-2.9079 3.7937-0.96736 1.3013-1.892 2.6311-2.801 3.9735-0.79816 1.044-0.90549 2.3474-0.99526 3.6124 0.10098 1.7415-0.41594 3.3126-1.0571 4.9043-0.70115 1.8089-1.3628 3.6302-2.1207 5.417-0.78986 1.689-1.3357 3.4709-2.0378 5.1939-0.65138 1.504-0.95623 3.1158-1.3647 4.6942-0.34741 1.4258-0.45209 2.8902-0.50906 4.3515 0.05884 1.5984-0.35009 3.1398-0.99305 4.5902-0.89929 1.6702-1.9081 3.253-2.6364 5.0127-0.67376 1.8614-1.6573 3.5816-2.4485 5.3912-0.80919 1.8109-1.3989 3.7089-2.2246 5.5116-0.86904 1.5949-1.7518 3.1855-2.6734 4.7509-0.44424 0.12267-1.0323 2.5145 0.09574 1.3179-17.907-0.0847-11.047 0.90567-8.2519-0.26563 1.4066-0.58935 2.7393-1.4139 4.0915-2.1163 2.0615-1.0567 3.9769-2.3584 5.9458-3.5725 1.1334-0.69585 0.59335-0.34208 1.6236-1.056l9.235 0.88015c-1.0649 0.78325-0.51074 0.40952-1.6647 1.1179-2.0072 1.2226-3.9913 2.4781-6.046 3.623-1.021 0.54232-2.0654 1.0642-3.0567 1.6602-0.04564 0.0274-1.3373 0.88664-1.4118 0.89098-3.2877 0.19171-6.5845 0.16574-9.8767 0.24861-1.069-0.99539-0.79677-2.1428-0.020489-3.2641 1.0341-1.4594 1.8476-3.0791 2.7315-4.631 0.89075-1.7647 1.4611-3.6615 2.2809-5.4595 0.72616-1.8332 1.7074-3.5468 2.4238-5.3854 0.37416-0.93207 0.73947-1.8861 1.232-2.7646 0.29402-0.52438 0.68134-0.99329 0.96848-1.5215 0.13719-0.25236 0.2376-0.52303 0.3564-0.78455 0.68315-1.3133 0.9966-2.7371 0.9372-4.2158 0.07535-1.5223 0.21451-3.0431 0.55746-4.5318 0.37036-1.6365 0.78297-3.2727 1.4272-4.8265 0.68762-1.7387 1.2521-3.5208 2.0594-5.2106 0.75434-1.7831 1.4146-3.6031 2.1378-5.398 0.59688-1.4992 0.98383-2.9918 0.91069-4.6189 0.10152-1.4266 0.21442-2.9322 0.99394-4.1714 1.1017-1.2108 1.8831-2.6937 2.9165-3.9646 0.97075-1.2294 1.7787-2.5742 2.7988-3.758 1.0052-1.414 2.103-2.7868 3.4285-3.9165 1.7404-1.4992 3.63-2.8006 5.339-4.3326 1.1705-1.1079 2.3869-2.1776 3.6454-3.1844 0.36366-0.25126 0.76683-0.44187 1.1304-0.69324 0.7077-0.48928 1.211-1.219 1.9132-1.7127 1.0867-0.84609 2.0896-1.7978 3.1425-2.6799 0.91412-1.1166 2.0143-1.9982 3.1798-2.8381 1.2005-1.0962 2.4632-2.1417 3.7521-3.1331 1.0724-1.1013 2.2348-2.1187 3.3114-3.2208 1.2609-1.0166 2.3967-2.2296 3.3477-3.5387 1.0503-1.2545 2.1185-2.4879 3.2783-3.6431 1.1989-1.2281 2.4099-2.4553 3.4329-3.838 0.97834-1.3851 1.9518-2.7724 2.7734-4.2595 1.1625-1.7834 2.4162-3.5039 3.5774-5.2881 0.47966-0.66478 0.84311-1.4009 1.3396-2.0513 0.46932-0.61479 0.4428-0.46292 0.9848-1.0215 0.18869-0.19444 0.36155-0.40364 0.54233-0.60546 1.1014-1.0333 2.1411-2.1226 3.3005-3.0867 1.2596-1.197 2.788-2.0511 4.108-3.1798 1.5855-1.5937 3.242-3.1052 4.795-4.7296 0.86413-0.92169 1.7546-1.8403 2.5201-2.8481 0.27453-0.36143 0.49132-0.76543 0.77665-1.1184 0.51383-0.63561 1.1848-1.133 1.6778-1.788 1.4663-1.6673 2.8284-3.4189 4.2994-5.0794 1.3463-1.4063 2.3677-3.0292 3.3557-4.7005 1.053-1.8382 2.1047-3.682 2.8037-5.6916 0.76208-2.0069 1.5579-4.0007 2.264-6.0292 0.90266-2.0322 1.5185-4.1762 2.1452-6.3067 0.60857-2.1462 1.1901-4.304 1.7149-6.4714 0.35788-1.4795 0.43872-2.9398 0.24041-4.4565h9.5399z"/>
  </g>
 </g>
</svg>
