<?xml version="1.0" encoding="UTF-8"?>
<!-- Created with Inkscape (http://www.inkscape.org/) -->
<svg width="210mm" height="297mm" version="1.1" viewBox="0 0 210 297" xmlns="http://www.w3.org/2000/svg" xmlns:cc="http://creativecommons.org/ns#" xmlns:dc="http://purl.org/dc/elements/1.1/" xmlns:rdf="http://www.w3.org/1999/02/22-rdf-syntax-ns#">
 <metadata>
  <rdf:RDF>
   <cc:Work rdf:about="">
    <dc:format>image/svg+xml</dc:format>
    <dc:type rdf:resource="http://purl.org/dc/dcmitype/StillImage"/>
    <dc:title/>
   </cc:Work>
  </rdf:RDF>
 </metadata>
 <g>
  <path transform="scale(.26458)" d="m261.16 249.31c-11.412-0.0234-22.981 1.3665-34.215 2.3633-7.4378 1.0738-14.777 2.7148-22.232 3.6855-8.84 1.7506-17.524 4.3109-25.615 8.3477-10.148 5.1083-20.499 9.9555-29.854 16.459-8.1796 6.1302-16.498 12.278-23.629 19.627l42.244 2.7226c6.6962-6.9559 14.451-12.835 22.229-18.525 9.5072-6.2177 20.025-10.645 30.154-15.717 8.1801-3.5124 16.739-5.8355 25.531-7.1289 2.2832-0.27183 4.5506-0.62819 6.8144-1.0039 3.9354 1.1576 7.8288 2.4584 11.734 3.7168 5.9228 1.9584 11.587 4.574 17.227 7.2168 6.2324 2.9605 12.563 5.7053 18.375 9.4512 5.2344 3.6947 10.593 7.2358 15.674 11.141 4.371 3.3515 8.4172 7.0574 12.129 11.123 4.2258 4.4946 7.8727 9.4671 11.828 14.191 3.3199 3.8113 6.8401 7.4363 10.209 11.203 4.2214 4.4627 8.1806 9.1574 12.031 13.941 4.145 5.3257 9.0892 9.9512 12.982 15.469 3.6388 5.0052 5.6018 10.901 8.168 16.467 2.2821 5.1784 4.9079 10.163 7.7129 15.076 2.7236 4.8263 5.5564 9.5625 7.9785 14.553 2.0883 4.5406 5.1818 8.4596 7.9551 12.576 2.9024 4.5517 4.3964 9.6567 6.0625 14.723 1.5128 4.5045 2.9201 9.0282 4.4375 13.533 1.4451 4.1521 3.9727 7.7576 6.1738 11.523 2.5126 4.0222 5.0255 8.0365 7.6894 11.961 3.1208 5.2525 6.7081 10.196 10.33 15.109 3.4889 4.3115 5.6525 9.4515 8.791 13.99 3.4257 4.4338 7.5348 8.2829 12.148 11.445 3.8542 2.8398 7.6198 5.7961 11.18 8.998 4.2653 3.454 8.6268 6.7545 12.648 10.494 4.7074 4.4692 9.0325 9.3193 13.373 14.141 3.2749 3.6472 6.5218 7.3213 9.9316 10.844 3.225 3.9715 7.4368 6.6431 11.768 9.2363 4.9257 3.3623 9.8172 6.8137 15.236 9.334 5.1591 2.1656 10.741 2.4218 16.24 2.8203 5.2516 0.62014 10.218 2.3741 15.283 3.7695 5.4695 1.6118 10.908 3.1454 16.557 3.9844 17.533 1.8797 35.528 0.38852 52.932 0.2207l-41.521-6.1504c69.64 0.26567 45.287 0.63635 30.129-0.15429-5.6133-0.47751-11.194-1.3104-16.43-3.5098-5.219-1.0312-10.046-3.1584-15.283-4.0606-5.2937-1.3371-10.913-0.3836-16.213-1.9531-5.5809-1.722-10.534-4.9111-15.111-8.4648-3.884-2.7396-8.4014-4.4399-11.504-8.1484-3.1581-3.7887-6.9226-7.0538-10.205-10.746-4.1966-5.0643-8.9698-9.6495-13.395-14.516-3.9036-3.9457-8.0548-7.4329-12.428-10.834-3.8628-2.9497-7.2948-6.4396-11.26-9.2774-4.2046-3.1974-8.9078-5.764-12.141-10.135-3.4804-4.4219-5.5127-9.6446-8.9121-14.129-3.8705-4.551-7.2182-9.6145-10.148-14.82-2.6542-3.8933-5.2272-7.7825-7.5312-11.895-2.3991-3.2228-4.1642-6.9282-6.1973-10.387-1.4098-4.6083-3.1585-9.0792-4.5371-13.699-2.1047-5.1602-3.1621-10.745-6.0762-15.602-2.4494-4.1862-5.6346-7.8187-8.002-12.051-2.3226-5.2054-5.2025-10.033-8.0938-14.916-2.8135-4.8236-5.3671-9.755-7.625-14.857-3.0941-5.4948-4.5757-11.817-8.3535-16.963-3.6922-5.7755-8.609-10.483-12.883-15.818-3.8273-4.8593-7.849-9.53-11.971-14.143-3.2932-3.8422-6.5703-7.6394-10.279-11.08-3.908-4.7829-7.808-9.5463-11.748-14.312-3.6641-4.3674-7.6866-8.4227-12.324-11.77-4.8386-4.3374-10.515-7.6778-15.768-11.49-5.6245-4.2272-11.982-7.2042-18.395-10.061-5.5568-2.9638-11.357-5.5445-17.264-7.7129-6.0526-2.4108-12.387-4.1222-18.633-5.957-8.4539-2.5799-17.235-3.4525-26.111-3.4707zm17.57 7.9395c1.1064 3e-3 1.0443 0.0131-1.3438 0.0195-1.2516 3e-3 -1.9792-2e-3 -3.1699 0 1.7793-0.0123 3.6335-0.0219 4.5137-0.0195z"/>
  <path transform="scale(.26458)" d="m293.07 749.6c0.30924 6.4801 0.38729 12.975 0.41601 19.463-0.0735 7.4981-0.0339 14.996-0.0723 22.494-0.0473 6.3241-0.0831 12.648-0.10157 18.973-0.0136 5.7384-0.0131 11.476-0.0137 17.215-5e-5 5.7063-2.4e-4 11.413 0 17.119 0.069 5.3743 0.26032 10.65-0.87304 15.916-1.1979 5.1161-1.576 10.357-1.8184 15.59 0.11309 2.8181-0.0199 5.5929-0.29688 8.3555-5.5311-0.0464-11.062-0.0633-16.592-0.0215-2.846 2.9668-7.1622 5.6078-13.107 7.3887-9.2206 2.762-19.019 1.2509-28.26 3.8027-1.2822 0.35415-2.3654 1.2217-3.5977 1.7227-20.741 8.4327 6.7674-3.2901-9.2559 3.5938-1.6818 1.8619-0.74797 0.9417-2.7559 2.0684-2.17 4.0154-4.7279 5.802-8.0859 7.8106h112.1c1.5436-0.84464 3.0265-1.7892 4.3848-2.9336 3.8583-3.972 5.373-8.9358 5.957-14.395 0.96421-5.7087 1.6818-11.373 1.5274-17.182 0.27317-5.0351 0.74107-10.058 1.9004-14.979 1.0095-5.5442 0.77576-11.121 0.75195-16.738 2.4e-4 -5.7063 5e-5 -11.413 0-17.119-3.8e-4 -5.7384 5.2e-4 -11.476-0.0137-17.215-0.0185-6.3242-0.0542-12.649-0.10156-18.973-0.0385-7.4982 1e-3 -14.996-0.0723-22.494 0.0287-6.4877 0.10678-12.983 0.41602-19.463zm-21.451 141.69c1.0195-0.0408 2.1365 0.0435 3.2812 0.15235-1.0693-4.5e-4 -3.7579 4.2e-4 -4.6328 0 0.42478-0.0836 0.87646-0.13333 1.3516-0.15235z"/>
  <path transform="scale(.26458)" d="m358.04 751.28c0.30943 6.4801 0.38773 12.977 0.41797 19.465-0.0736 7.4981-0.0357 14.996-0.0742 22.494-0.0472 6.3241-0.0807 12.648-0.0996 18.973-0.0144 5.7384-0.0151 11.476-0.0156 17.215-4e-5 5.7063-2.7e-4 11.413 0 17.119 0.069 5.3743 0.25844 10.648-0.875 15.914-1.1979 5.116-1.5741 10.359-1.8164 15.592 0.1131 2.8181-0.0199 5.5929-0.29687 8.3555-12.356-0.10364-24.711-0.10973-37.045 0.52929-5.6725 0.62121-11.164 1.8694-16.176 4.7324-7.5431 3.863-15.494 6.803-23.521 9.498-8.6979 2.7271-17.385 5.4802-25.885 8.7891-0.86018 0.33528-1.9304 0.72034-3.0449 1.1387h134.48c1.4231 0 2.7553 0.0892 4.0352 0.22656 0.68216-0.46165 1.3504-0.94664 1.9863-1.4824 3.8583-3.972 5.371-8.9358 5.9551-14.395 0.96419-5.7087 1.6839-11.375 1.5293-17.184 0.27319-5.0351 0.74106-10.058 1.9004-14.979 1.0094-5.5442 0.77463-11.119 0.75196-16.736 2.6e-4 -5.7063 3e-5 -11.413 0-17.119 0-5.7384-6.6e-4 -11.476-0.0156-17.215-0.0185-6.3242-0.0524-12.649-0.0996-18.973-0.0385-7.4982-6.2e-4 -14.996-0.0742-22.494 0.0287-6.4877 0.10881-12.983 0.41797-19.463v-2e-3zm-21.453 141.69c1.0195-0.0408 2.1384 0.0435 3.2832 0.15234-1.0698-4.5e-4 -3.7596 4.2e-4 -4.6348 0 0.42525-0.0838 0.87585-0.13331 1.3516-0.15234z"/>
 </g>
 <g stroke-width=".26458">
  <path d="m18.106 88.81c1.5176 0.90993 3.0477 1.8091 4.5653 2.7251 0.26079 0.13096 0.51264 0.28147 0.78236 0.39287 1.3058 0.53933 0.4118 0.0026 1.7407 0.63831 0.78309 0.37458 1.4998 0.81745 2.306 1.1515 0.70201 0.14936 1.308 0.52673 1.9604 0.80686l-11.065 1.2809c-0.63269-0.29104-1.2766-0.54957-1.9176-0.82192-1.5947-0.79264-3.236-1.4705-4.8062-2.3049-1.5609-0.90745-3.0764-1.8945-4.6841-2.719l11.118-1.1496z"/>
  <path d="m11.985 94.157c1.6061 0.88097 3.2354 1.7488 4.9464 2.413 1.6807 0.61238 3.4578 0.70384 5.2258 0.75576 0.29921 0.0042 0.5984 0.0097 0.89762 0.01259 0.87961 0.0084 2.8941 0.0067 2.0069 0.0067-17.596-5.29e-4 -11.582 0.0076-7.7636-0.0083 1.2377-2.2e-4 2.6301 0.19744 3.3054-1.0255-0.0093-0.31746-0.3408-0.66843-0.69065-0.65067-0.20809 0.01056-0.79401 0.2115-0.58576 0.21822 8.5172 0.27445 13.837-0.22066 9.3207 0.17424-1.2561 0.11525-2.4781 0.40673-3.6794 0.77859l-10.989-1.3399c1.1845-0.51392 2.4413-0.86275 3.7249-1.0267 4.6048-0.80722 2.4989-0.49057 12.652-0.1658 1.0051 0.03215 1.4648 1.7041 1.3943 2.4575-0.63899 1.8614-1.5684 2.4027-3.5549 2.3023-5.657 0.01482-11.317 0.12198-16.971-0.05665-1.8021-0.12357-3.5826-0.38631-5.2435-1.1431-1.7561-0.79866-3.524-1.6219-5.1484-2.6652l11.152-1.0371z"/>
  <path d="m44.73 78.395c-0.88752 1.6024-1.9119 3.1139-2.9697 4.6059-1.0588 1.6397-2.2632 3.177-3.4605 4.7161-0.86205 1.0297-1.4579 2.2508-1.9788 3.4809-0.40819 1.1855-0.4559 2.4495-0.51298 3.6903l-11.091-0.05056c0.06157-1.3609 0.13586-2.73 0.46328-4.0582 0.50125-1.3576 1.2059-2.679 2.0813-3.8286 1.2733-1.4338 2.4017-3.0096 3.4643-4.6048 0.9471-1.4759 2.1598-2.8108 2.8009-4.4708 0 0 11.203 0.5198 11.203 0.5198z"/>
 </g>
 <path transform="scale(.26458)" d="m78.781 401.03c1.5068 6.7666 1.968 13.691 3.0234 20.525 1.8218 7.3085 3.4222 14.676 5.1641 22.01 1.6858 6.4412 2.5531 13.048 4.8066 19.33 2.9388 7.169 6.6817 13.956 10.561 20.648 4.388 7.5195 10.337 13.9 16.336 20.139 5.5643 6.0722 11.683 11.486 18.139 16.574 2.4839 2.166 5.2824 3.8192 8.1699 5.3652l41.67-4.8164c-2.9859-1.0697-5.8368-2.2687-8.3281-4.3066-6.3625-5.027-12.821-9.8378-18.174-16.025-5.9006-5.9832-11.845-12.013-16.475-19.07-3.665-6.5545-7.2133-13.146-9.918-20.162-2.8602-5.8916-3.2059-12.477-5.0918-18.693-1.8792-7.1878-3.146-14.538-5.1074-21.709-1.2641-6.5146-1.5507-13.221-2.3379-19.809z"/>
 <g stroke-width=".26458">
  <path d="m16.448 96.504c0.69712 1.1668 1.9655 1.8064 3.1203 2.4465 1.6937 1.0219 3.6274 1.6041 5.4668 2.3185 2.0186 0.82909 4.1323 1.4209 6.1254 2.3095 1.7057 0.62507 3.5295 1.2159 4.5704 2.789 0.37414 1.2668-0.30258 2.2222-1.2028 3.0363-3.8648 0.0277-7.7296 0.0555-11.594 0.0833l11.051-1.6974c-3.5201 0.0439-7.0403 0.0877-10.56 0.1316 0.13503 0.0666 0.25476 0.20845 0.40508 0.19984 0.29714-0.017 0.87299-0.74044 0.75659-1.0246-1.1402-1.1966-2.9082-1.5636-4.3671-2.2236-2.0136-0.77287-4.0483-1.4906-6.0547-2.2838-1.9349-0.7158-3.9225-1.3774-5.6684-2.5-1.188-0.78566-2.3326-1.5807-3.2344-2.7047 0 0 11.187-0.88042 11.187-0.88042z"/>
  <path d="m14.71 98.716c-0.26214-1.6626-0.50854-3.3325-0.2183-5.0023 1.8095-4.5201 6.244-1.6161 12.351-1.4624 0.26734 0.0067 1.3977 1.4869 1.564 1.7127 1.0152 1.4277 2.0738 2.8044 2.7795 4.4131 0.7765 1.3122 1.3463 2.7895 1.4957 4.3071-0.85953 4.9377-7.731 1.8296-12.163 1.7128-0.19596-5e-3 -0.25504-0.30013-0.40499-0.42639-0.13838-0.11652-0.30278-0.19804-0.45417-0.29706-0.62307-0.71286-1.6919-1.7296-1.609-2.7877 0.02018-0.25753 0.13891-0.49761 0.20836-0.74642 0.14931-0.17517 0.26961-0.37998 0.44793-0.52552 0.23202-0.18936 0.96776-0.51444 1.2661-0.52153 10.091-0.23977 8.3893-1.2062 13.248 0.44571 3.983 2.3355 4.7065 0.17801-9.6987 0.40529-0.13757 0.0021-0.08917 0.32718 0.01891 0.41234 0.10204 0.0804 0.01367-0.25972 0.01-0.38956-0.0059-0.20812-0.02575-0.41561-0.03862-0.62342 0.03973-1.0612 0.0093-0.53041 0.09161-1.5922l11.101 0.07903c-0.06258 0.96817-0.04557 0.49723-0.05542 1.4126 0.02851 0.24431 0.30993 2.3677 0.01751 2.3891-11.544 0.84542-7.9246 0.98474-12.448-0.66852-0.49498-0.11965-2.0186-0.22701-1.5095-0.2354 18.029-0.29708 12.62-0.3018 8.7467 0.0105-0.82151-0.18056 1.0166 1.8601 1.3154 1.7787 0.15935 0.0844 0.3051 0.20224 0.47805 0.25337 0.12292 0.0363 0.51271-7.9e-4 0.38455 2e-3 -3.5987 0.0676-7.1988 0.0792-10.796 0.19407-0.18083 6e-3 0.39754 0.20576 0.53547 0.0887 0.08201-0.0696 0.10529-0.1876 0.15793-0.2814-0.07016-1.3961-0.82485-2.6774-1.4142-3.9126-0.73931-1.4845-1.7505-2.8217-2.7927-4.1066-0.33059-0.31806-0.58655-0.63455-1.0349-0.79678-0.1573-0.05692-0.66647-0.04537-0.49928-0.05082 3.5177-0.11456 7.0378-0.15209 10.555-0.27665 0.14569-0.0052-0.29633-0.14102-0.4296-0.08194-0.15834 0.0702-0.21066 0.275-0.31598 0.41249-0.43631 1.4762-0.05924 3.0266 0.33132 4.4811l-11.221 0.27496z"/>
  <path d="m30.13 96.039c-5.2539-0.15628-10.931 1.4418-15.671-1.1344-1.5791-0.61377-2.0764-1.9544-2.5264-3.4511-0.3211-1.7832-1.3636-3.2698-2.1174-4.8799-2.1212-3.8009-8.711-1.4933 10.63-1.2909 0.18732 0.0019 0.12968 0.35206 0.21034 0.52114 0.11373 0.23841 0.24803 0.46646 0.37204 0.69969 0.99225 1.5891 1.5708 3.3685 2.3584 5.0498 0.37124 0.87128 0.15536 0.47827 0.62545 1.191l-11.122 0.57323c-0.42258-0.85895-0.22601-0.42028-0.58879-1.3164-0.66402-1.7037-1.3536-3.3804-2.3406-4.9326-0.14831-0.25357-0.29866-0.50596-0.44492-0.76071-0.1094-0.19055-0.53982-0.54617-0.32202-0.57515 11.521-1.5331 9.7087-4.1011 11.676 0.35058 0.79065 1.6407 1.757 3.205 2.1602 5.0059 0.49463 1.289 1.0917 2.0749 2.4527 2.5515 0.62196 0.22802 0.86175 0.33852 1.5303 0.4831 0.27986 0.06052 1.1343 0.13149 0.84806 0.13668-17.557 0.31844-12.557 0.02434-8.8202 0.02204l11.09 1.7565z"/>
 </g>
 <path transform="scale(.26458)" d="m81.691 418.51c0.5119 8.3152 0.45931 16.652 0.49219 24.979-0.08417 8.19-0.15128 16.378-0.17774 24.568-0.04418 6.5184-0.09224 13.036-0.11719 19.555 0.1344 8.346 0.2049 16.693 0.33008 25.039-0.56911 12.351 2.5266 24.186 6.459 35.762 3.3008 9.2258 8.3585 17.665 13.428 26.004 3.8193 6.8852 8.6538 13.111 12.949 19.691 5.5776 8.5228 11.899 16.58 18.275 24.523 5.4198 7.1684 10.775 14.394 16.604 21.238 4.6346 5.1098 9.7953 9.6895 14.748 14.479 4.343 4.7323 8.9427 9.207 13.428 13.801 5.1544 5.7477 11.674 9.9627 17.641 14.801 9.2121 7.3292 17.627 15.452 25.469 24.207 6.0043 7.2689 11.694 14.859 18.639 21.27 7.0093 6.4626 15.78 9.9706 24.637 13.061 10.911 3.3343 22.235 4.7355 33.496 6.2754 9.7037 1.5063 19.442 2.7133 29.242 3.3379 8.9492 0.44984 17.912 0.40222 26.869 0.39844 22.372 0.0436 44.745-0.0245 67.117-2e-3 0.79952 9.5e-4 1.5989 8.5e-4 2.3984 2e-3 14.119-0.0394 28.235-0.22892 42.357-0.57422 2.7358-0.0669 5.8337-1.066 8.5703-1.4394 5.6233-1.6584 11.188-3.5543 16.883-4.9824 5.7816-1.4835 11.429-3.1493 17.385-3.8887 1.454-0.20125 2.9258-0.43654 4.3945-0.71875-0.71753-2.5915-1.4038-5.1444-2.0137-7.584-1.1867-4.7474-1.9406-9.5904-2.791-14.412-2.5279 1.5473-5.0619 3.0847-7.6367 4.5547-5.6548 3.2732-11.589 5.976-17.525 8.6953-5.165 1.7677-10.564 2.8451-15.973 3.5508-5.8864 1.1277-11.585 2.9378-17.404 4.3555-5.5718 1.6584-11.145 3.4017-16.863 4.4805-1.9052 0.30988-3.8058 0.65372-5.7148 0.93945-0.94557 0.14173-3.7998 0.36757-2.8438 0.37891 3.1216 0.0412 5.1504 0.0602 7.9082 0.0937-11.18-7.7e-4 -22.359-2e-3 -33.539 2e-3 -6.2593 4e-3 -12.518 0.0104-18.777 0.0293-0.57557 2e-3 -1.143 2e-3 -1.7695 4e-3 -3.3113-0.0315-6.6213-0.077-9.9316-0.16993-9.9594-0.40645-19.884-1.3166-29.734-2.8789-11.045-1.7065-22.215-2.6365-33.033-5.6387-8.6022-2.5693-17.321-5.5038-24.252-11.432-7.3635-5.9389-13.173-13.456-19.189-20.705-7.9105-8.7839-16.007-17.312-25.211-24.795-2.2709-2.0013-4.423-4.1414-6.7734-6.0488-3.4281-2.782-7.5666-4.7146-10.254-8.3613-4.4219-4.7-9.2799-8.926-13.432-13.891-4.7982-4.9569-10.119-9.3536-15.07-14.16-5.9774-6.754-11.431-13.923-16.947-21.055-6.252-7.7929-12.488-15.662-17.887-24.074-4.0866-6.7139-9.1696-12.763-12.711-19.811-5.6396-7.7201-10.592-16.066-14.32-24.875-3.7184-11.176-6.8693-22.508-6.0215-34.436 0.12518-8.3462 0.19568-16.693 0.33008-25.039-0.0251-6.5186-0.073-13.036-0.11719-19.555-0.0265-8.1902-0.0955-16.38-0.17968-24.57 0.0327-8.3267-0.0179-16.661 0.49414-24.977v-2e-3zm341.93 332.99c-2.478 7e-3 -4.9553 0.0186-7.4336 0.0156 20.043 5.2e-4 34.707 2e-3 24.072-2e-3 -5.5465-3e-3 -11.092-8e-3 -16.639-0.0137zm112.89-48.453c-0.0377 0.19177-0.0652 0.38519-0.0957 0.57812 0.0612-0.0508 0.12244-0.1015 0.18359-0.15234-0.0276-0.13887-0.0604-0.2873-0.0879-0.42578z"/>
 <g stroke-width=".26458">
  <path d="m137.44 193.31c3.5995-0.0244 9.024 0.47452-7.2867-0.0303-0.60083-0.0186 1.1975-0.10776 1.7947-0.17666 0.61231-0.0707 1.2241-0.14794 1.8332-0.24196 0.57126-0.0882 1.1381-0.203 1.7071-0.3045 2.7481-0.49966 5.4122-1.2959 7.9678-2.4143 2.1624-1.2249 4.3525-2.4012 6.4067-3.8041 1.4764-0.94815 2.7562-2.1353 4.0094-3.3534 1.3737-1.5199 2.7066-3.0656 4.138-4.535 1.7403-1.7415 3.52-3.4416 5.2697-5.1736 1.5667-1.4396 2.9087-3.0445 3.9882-4.8745 0.73792-1.4958 1.6246-2.8873 2.134-4.4845 0.59919-1.9427 1.714-3.6667 2.6808-5.4392 0.84701-1.6324 1.814-3.1939 2.7496-4.7754 0.84998-1.3242 1.5135-2.7431 2.171-4.167 0.58895-1.3291 1.1284-2.6773 1.734-4.0005 0.30025-0.69947 0.50136-1.4352 0.73542-2.1582l11.072 0.32769c-0.22021 0.77077-0.40784 1.5536-0.70845 2.2985-0.59158 1.3471-1.203 2.6817-1.7294 4.0511-0.7652 1.3873-1.285 2.9135-2.1928 4.2302-0.90981 1.6065-2.013 3.0935-2.8542 4.7412-0.92428 1.7025-1.9453 3.3777-2.5672 5.2218-0.50209 1.6981-1.389 3.1654-2.1836 4.7314-1.0872 1.9342-2.4515 3.6426-4.0836 5.1516-1.7096 1.775-3.5807 3.3683-5.2683 5.1639-1.4239 1.4774-2.7913 2.9963-4.085 4.5844-1.3066 1.2146-2.4452 2.628-4.0273 3.5134-2.0746 1.5069-4.4036 2.5918-6.5579 3.9744-2.5502 1.3236-5.2767 2.152-8.1021 2.6776-1.5477 0.31687-3.7527 0.83001-5.3104 0.87225-4.841 0.1313-9.6832 0.0892-14.525 0.15053l11.09-1.7565z"/>
  <path d="m158.01 151.74c3.9474-0.1527 12.012 0.68707-5.3483-0.0348-0.64173-0.0267 1.2785-0.13404 1.9115-0.2427 0.66852-0.11474 1.3264-0.2846 1.9896-0.4269 4.2825-1.1705 8.586-2.2459 12.807-3.6265 2.8861-0.97681 5.7824-1.9531 8.6148-3.0798 2.1874-0.94876 4.1763-2.2967 6.1423-3.6324 0.27111-0.19914 0.54222-0.39828 0.81333-0.59743l10.974 0.99389c-0.27525 0.23155-0.5505 0.46309-0.82575 0.69463-2.0556 1.2913-4.0395 2.7189-6.1969 3.8326-2.893 1.2405-5.955 2.093-8.9261 3.1215-4.2154 1.4084-8.5211 2.4752-12.783 3.7236-0.5579 0.14445-3.1498 0.85374-3.7924 0.87605-5.4714 0.18996-10.944 0.0793-16.415 0.14608l11.035-1.7478z"/>
  <path d="m191.93 145.85c-2.878 1.1785-5.7912 2.2676-8.6954 3.3817-3.0866 1.1342-6.1277 2.3852-9.1893 3.5834-0.39175 0.15463-0.78349 0.30927-1.1752 0.4639l-10.868-1.301c0.40169-0.16168 0.80338-0.32337 1.2051-0.48505 3.1547-1.1187 6.2282-2.4615 9.3978-3.5439 2.7434-1.075 5.4926-2.1477 8.1786-3.3382l11.146 1.2391z"/>
  <path d="m178.48 146.52c2.2425-0.80242 4.3468-1.8934 6.4478-3.0025 1.3917-0.65052 2.7153-1.4177 4.0363-2.1976l10.956 1.1643c-1.38 0.73665-2.6619 1.6444-4.1318 2.214-2.0229 1.0789-4.0153 2.2651-6.1614 3.0609l-11.146-1.2391z"/>
  <path d="m198.63 138.34c-2.9603 1.4783-5.7245 3.2648-8.4244 5.1678-1.8765 1.3796-0.96117 0.71231-2.7451 2.0029l-10.792-1.042c1.8627-1.2485 0.91635-0.58855 2.8347-1.9862 2.6127-1.8554 5.2475-3.6616 8.0087-5.2922l11.118 1.1496z"/>
 </g>
 <path transform="scale(.26458)" d="m247.84 263.44c-1.8372 0.019-3.6533 0.13223-5.4453 0.33789-15.564 1.7862-46.067 16.901-64.316 31.871-18.512 15.185-40.363 45.813-40.363 56.572 0 6.9991-1.0858 8.0137-8.5723 8.0137-5.7143 0-8.5703 1.428-8.5703 4.2852 0 2.3571 2.4213 4.2852 5.3808 4.2852 5.4535 0 8.9676 7.0452 6.7715 13.572-0.66091 1.9643-3.0219 3.5723-5.248 3.5723-5.8597 0-5.0112 2.7374 3.2109 10.357 5.986 5.5476 6.7202 7.7346 4.1856 12.471-1.6905 3.1588-4.7897 5.7422-6.8867 5.7422-5.9439 0 2.7556 37.957 13.252 57.82 8.1765 15.473 28.265 37.301 40.77 44.299 8.2107 4.5949 5.2457 5.8682-18.732 8.041-20.555 1.8626-21.855 1.6134-30.74-5.8633l-9.2793-7.8066 1.8574 12.469c2.591 17.401 9.5736 32.509 27.076 58.582 22.776 33.928 46.373 61.78 69.203 81.682 11.307 9.8561 30.212 28.068 42.012 40.473 23.813 25.033 31.671 29.367 62.881 34.658 11.786 1.9982 39.839 3.7645 62.34 3.9258 35.09 0.25123 45.05-0.75116 70-7.041 15.999-4.0333 33.416-9.8634 38.703-12.955 8.9145-5.2122 9.8682-5.2735 13.102-0.85156 3.2552 4.4515 4.4562 4.4471 18.062-0.0723 22.65-7.5232 45.459-24.065 73.859-53.564 21.695-22.534 28.396-31.828 39.971-55.434 7.6487-15.599 14.254-29.043 14.678-29.875 0.4238-0.83222-19.492-1.4743-44.258-1.4277-29.16 0.0548-49.559-1.2452-57.885-3.6894-23.297-6.8389-42.404-17.941-52.881-30.727-5.6231-6.8623-19.49-20.073-30.814-29.357-22.572-18.505-49.743-56.902-58.246-82.311-2.546-7.6079-6.8477-17.046-9.5606-20.975-2.7128-3.9286-10.79-18.715-17.949-32.857-9.5205-18.807-20.452-34.04-40.695-56.711-36.697-41.098-69.312-61.796-96.871-61.512zm-27.02 74.146c5.68-0.0864 9.9118 2.9098 11.555 7.4023 0.9421-0.10237 2.2269-0.21563 4.4648-0.35937 9.2864-0.59649 16.941 5.7094 23.094 11.611 0.98559 3.1301 2.1961 6.1985 2.957 9.3906 0.88473 3.7112-0.96744 9.3804-0.0996 13.27 0.47295 8.3508 1.2407 16.764-1.8223 24.789-0.41201 2.3016-0.58527 4.6587-1.2363 6.9043-0.89671 3.093-2.3496 5.7712-4.0664 8.4199-4.6292 7.1422-7.6083 12.63-18.193 11.838-7.7394 0.0431-15.574 2.888-22.66-2.084-0.7624-2.4055 0.20499 0.0304-5.4688-1.834-3.7735-1.2406-7.7214-2.1954-11.16-4.1836-7.2701-4.2034-12.651-13.229-12.396-21.586-0.47917-7.608-1.4576-15.781 1.4199-23.035 2.5788 4.9237-0.87559-1.3035-0.7793-5.9668 0.19461-9.4243 5.2268-16.073 11.791-22.227 2.3331-2.187 4.9976-3.9905 7.4961-5.9863 5.5248-4.4132 10.738-6.2969 15.105-6.3633z" stroke-width="2.8571"/>
 <path d="m21.35 97.598c-1.3039-1.2599-2.7709-2.3726-4.1984-3.5026-1.7103-1.1612-3.4881-2.2104-5.2924-3.2151-1.4048-0.90914-2.9007-1.6396-4.3074-2.5465-1.2683-1.0712-3.0114-1.7875-3.7263-3.3599-0.070064-5.0197 6.5011-1.2545 11.658-0.84939 0.13955 0.01095 1.0813 1.5319 1.2363 1.7392 1.1923 1.3914 2.2193 2.9045 3.2555 4.4123 0.9361 1.5244 2.3177 2.5952 3.6506 3.7304 1.2891 0.80434 2.563 1.6131 3.8755 2.3868 1.3723 0.76632 2.7785 1.2833 4.3295 1.5288l-11.002 1.5074c-1.5483-0.41119-2.9945-1.0729-4.3626-1.908-1.3096-0.8407-2.7241-1.5263-3.9039-2.5543-1.3825-1.173-2.6107-2.5166-3.6262-4.0227-1.0422-1.4988-2.1-2.9828-3.2954-4.365-0.29262-0.38608-0.53651-0.76041-0.90902-1.074-0.13037-0.10975-0.59908-0.27606-0.42868-0.2786 3.3805-0.050443 12.238 3.6409 10.712-0.79082 0.83216 1.2391 2.4047 1.8714 3.548 2.7664 1.441 0.82681 2.8831 1.6493 4.2944 2.5273 1.7781 1.0881 3.6134 2.0934 5.2626 3.3779 1.4836 1.1894 3.0081 2.3319 4.4166 3.6098l-11.187 0.88042z" stroke-width=".26458"/>
 <path d="m12.738 99.258c1.2 0.91521 2.5726 1.6493 3.9053 2.3732 1.2916 1.0558 2.6896 1.7529 4.3 2.1566 2.1233 0.40188 4.1776 1.0619 6.3038 1.4634 1.6411 0.48191 3.096 1.3371 4.784 1.6856 1.2942 0.16697 2.5164 0.74864 3.6643 1.3527 0.09697 0.0983 0.24014 0.16645 0.29092 0.29484 0.10668 0.26976 0.12588 1.5028-0.30519 1.5262-12.682 0.69017-8.053 0.86877-13.166-0.94646-2.4202-0.97229-4.7771-2.1134-7.12-3.2594-1.8153-0.91021-3.732-1.5788-5.4975-2.5803-1.5706-0.49741-2.8677-1.5084-4.341-2.1953-1.0803-0.90143-2.2639-1.6046-3.5468-2.1794-0.34242 0.1081-1.2711-0.98668-1.5819-0.94989-0.083714 0.0099-0.15419 0.24759-0.070014 0.24301 7.9512-0.43251 7.6395-0.398 11.572-0.88685 1.3251 0.81655 2.5526 1.7605 3.9975 2.3768 0.67008 0.49901 1.5362 0.58847 2.2694 0.92794 0.77941 0.36082 1.4882 0.8638 2.2816 1.2172 0.55118 0.35349 1.55 0.19086 2.0539 0.64128 0.42222 0.37745-0.02784 1.409-0.15774 1.6008-0.10987 0.16229-0.3799 0.0965-0.56984 0.14471-5.2621 0.0643-10.842 1.2801-15.885-0.34579-1.7815-0.70998-3.6029-1.274-5.3054-2.168-0.11536-0.10767-0.27695-0.18116-0.34608-0.32301-0.11512-0.23621-0.17561-1.491 0.16124-1.5108 12.884-0.7574 7.8891-0.84209 12.594 0.65698 1.6383 0.22806 3.0692 1.0292 4.6609 1.4331 1.1177 0.14062 2.1411 0.63009 3.1925 1.0052l-10.899 1.354c-1.0623-0.36035-2.13-0.69468-3.2264-0.93905-1.5937-0.50682-3.1589-1.0786-4.7849-1.4781-4.3625-1.6258-2.4634 0.59448 9.6301-0.43331 0.67156-0.0571-0.7248-1.4525 0.09534-0.98966 1.6591 0.80893 3.4125 1.4147 5.1848 1.9226 4.2256 0.68044 1.1882 0.14121-9.1894 0.18022-0.29593 1e-3 0.59187-1.8e-4 0.8878-2.7e-4 1.0578-1e-3 0.50746 8e-4 1.5306-5e-3 0.21437-1e-3 0.42874-2e-3 0.64312-4e-3 0.15678 0.0155 0.38521-0.086 0.47035 0.0466 0.1992 0.31017 0.25476 1.206 0.20636 1.2089-0.52012 0.0312-1.455-0.72623-1.9565-0.75375-1.4993-0.76595-3.0363-1.4272-4.5554-2.1524-1.4364-0.78534-2.7787-1.7247-4.1551-2.6087-2.4578-3.6059-0.74203-0.75577 10.806-1.7342 0.08668-0.0074-9e-3 0.18524 0.03854 0.2581 0.28604 0.43853 1.0887 0.51617 1.4508 0.8323 1.2352 0.66621 2.3706 1.4563 3.554 2.2032 1.4011 0.80928 2.826 1.5341 4.2966 2.2113 1.7676 0.88788 3.5987 1.6461 5.359 2.5512 2.3622 1.1313 4.72 2.2993 7.2071 3.1352 4.7007 1.7372 3.7509-0.50511-8.9125 0.59311-0.53813 0.0467 0.75087 1.4291 0.02853 1.1233-1.1517-0.51624-2.3348-0.9106-3.5782-1.1428-1.572-0.5075-3.0197-1.3531-4.6613-1.6413-2.1385-0.48354-4.2585-1.0519-6.3909-1.5575-1.5725-0.57518-2.9455-1.4534-4.3241-2.3935-1.3374-0.78466-2.7007-1.527-4.0408-2.3017 0 0 11.146-1.2391 11.146-1.2391z" stroke-width=".26458"/>
 <path transform="scale(.26458)" d="m202.87 261.93c-6.1068-0.10407-11.847 1.4123-17.668 3.3281-6.6384 3.2891-12.743 7.764-18.211 12.764-5.7072 5.2096-10.181 11.536-14.51 17.889-4.1772 4.2655-7.5277 9.1205-10.773 14.1-4.2318 4.9382-5.8698 11.03-7.8652 17.033-2.0145 6.0943-4.6054 12.001-7.1836 17.893-1.2108 3.2796-2.3308 6.6127-3.3203 9.9844l-4.8867-0.11914c-0.96157 6.6883-1.5505 13.432-1.8301 20.182-0.11493 2.4338-0.18587 4.8679-0.24024 7.3027-1.6964 6.7501-2.2782 13.662-2.6992 20.586-0.21883 7.1312-0.31004 14.266-0.36132 21.4 0.089 6.7056 0.0356 13.411 0.01 20.117 0.15114 8.3571 0.26437 16.712 0.20117 25.07-0.60401 8.442-1.7367 16.831-2.4492 25.264-0.38531 7.2921-1.8788 14.454-2.6035 21.723-0.0952 0.93179-0.17863 1.864-0.25195 2.7969-0.13962 0.16928-0.27502 0.34147-0.40235 0.50195-0.70314 0.88624-1.167 2.0038-1.5371 3.1504-0.63663-0.0214-1.3414-0.0326-0.0156 0.0566-0.31002 0.9696-0.55921 1.9563-0.8125 2.8398-0.69224 4.513 0.39166 8.6727 2.1836 12.641-0.10898 6.7609 1.3598 13.052 4.5469 19.057 2.7081 4.7209 6.6194 8.2836 10.959 11.336 1.285 2.998 2.5121 6.0221 3.7129 9.0449 1.8218 6.7126 4.1718 13.107 8.1309 18.861 3.9678 4.9872 8.6181 9.4596 13.713 13.283 4.0476 2.6973 7.8364 5.7598 11.574 8.8652 5.6738 4.4972 10.835 9.5138 15.893 14.682 5.4174 6.3333 10.1 13.228 14.23 20.455 4.0763 7.5858 7.9125 15.328 11.35 23.227 2.0055 6.1783 5.4 11.722 9.2695 16.887 3.7705 5.1188 8.225 9.6573 13.139 13.672 7.315 4.6779 13.475 10.779 20.078 16.342 7.4062 5.6483 15.799 9.6565 24.115 13.738 7.8902 4.1056 15.308 9.0014 23.236 13.039 8.4401 4.0922 17.462 6.8466 26.51 9.2363 20.757 4.4308 42.705 4.6986 63.646 1.7324 0.25541-0.037 0.50737-0.0907 0.76172-0.13282 3.6112-0.0906 7.8128-0.18151 12.814-0.26757 2.5024-0.043 7.7716-1.568 9.332-3.8574 0.55551-0.81528 0.53432-1.9016 0.80078-2.8516-7e-3 -0.0242-9e-3 -0.0499-0.0156-0.0742 4.92-1.4523 9.839-2.9183 14.713-4.5215 7.5785-1.9053 15.084-4.2442 22.754-5.7578 8.9593-2.4286 18.221-3.4742 27.369-4.9746 8.785-1.2493 17.623-2.4907 26.246-4.6133 8.297-1.86 16.675-3.4374 25.096-4.6387 3.4325-0.57629 6.8948-1.0379 10.359-1.4961 3.4924-0.0424 6.9846-0.0934 10.477-0.16992 6.803-0.32943 13.669-0.78206 20.129-3.1387 2.4085-0.92949 4.798-1.9347 7.1074-3.0879 5.8882-1.58 12.048-1.3489 17.979-2.6152 6.8337-1.1591 12.999-4.9032 18.275-9.2578 6.9046-4.2107 9.8081-11.692 13.346-18.592 4.5405-6.0364 6.8255-13.335 11.129-19.492 3.7128-5.3076 7.8868-10.338 12.182-15.203 5.8839-5.7715 11.646-11.5 16.248-18.383 2.3662-5.7321 5.3087-10.97 8.7031-16.135 3.0529-6.1409 6.5567-12.045 9.4785-18.275 2.7958-6.2608 3.8139-12.618 2.6309-19.35-2.0404-6.7938-6.9997-10.493-13.465-12.639-34.171-7.6069-39.979-4.7068-60.771 7.0312-5.7925 3.2865-12.143 4.4803-18.637 5.1328-5.6919-1.1383-11.3-2.8427-16.824-4.6172-5.9676-1.8183-10.455-6.1786-14.893-10.344-5.3793-5.3589-11.147-10.245-15.824-16.248-4.4983-6.7676-9.461-13.146-14.883-19.189-4.3878-5.4381-8.3405-11.211-12.84-16.559-4.2051-5.2764-9.8373-8.9793-15.051-13.135-7.4935-5.8152-15.05-11.551-22.549-17.359-4.532-3.7037-9.7658-6.793-13.482-11.412-1.4902-1.852-2.9363-4.6466-4.0625-6.6387-5.1345-9.2785-10.551-18.401-15.314-27.885-3.2358-6.4106-4.4169-13.542-7.2031-20.121-2.4495-4.4587-4.791-8.9398-6.8594-13.594-3.9048-6.8419-6.8194-14.182-10.727-21.016-3.8085-5.9644-7.5437-11.871-10.77-18.174-3.0542-6.1639-6.8118-11.949-10.717-17.6-4.4706-5.926-9.172-11.662-13.631-17.598-4.513-4.0676-7.3844-9.3505-10.893-14.221-5.0137-7.3354-11.109-13.791-17.295-20.129-7.3968-7.1442-16.423-12.323-25.213-17.543-10.206-5.6202-20.711-10.762-31.58-14.973-7.991-3.0883-16.497-3.728-24.967-4.0313-21.897-0.37892-43.801-0.15851-65.701-0.0664-0.88864-0.0845-1.7682-0.13357-2.6406-0.14844zm34.699 6.7773c5.9382 0.2363 11.856 0.80456 17.578 2.5332 11.048 3.6014 21.485 8.7313 31.74 14.154 8.5134 5.043 17.138 10.025 24.652 16.527 6.1031 6.1125 12.43 12.181 17.135 19.477 3.4736 4.932 5.7166 10.835 10.678 14.475 4.824 5.6026 9.1792 11.666 13.883 17.367 4.0362 5.3283 7.2535 11.218 10.395 17.109 1.7486 2.9366 3.0732 6.0452 4.8984 8.9414 1.3331 2.1154 2.9522 4.0414 4.2832 6.1582 0.66485 1.0574 1.2014 2.1904 1.8027 3.2852 4.3243 6.3385 6.7947 13.654 10.42 20.385 1.9545 4.7728 4.082 9.4427 6.7949 13.834 3.6685 6.2706 4.4622 13.764 8.0195 20.121 4.8157 9.4298 10.148 18.579 15.104 27.928 0.87217 1.8498 2.6954 5.9508 3.9297 7.7168 3.5779 5.1194 9.213 8.3502 13.996 12.158 7.4531 5.5097 14.56 11.48 21.83 17.225 4.9502 4.3101 10.822 7.4501 15.16 12.459 4.7139 5.223 8.6576 10.996 12.84 16.646 5.4316 5.9068 10.871 11.764 15.002 18.725 4.4205 6.5116 10.148 11.512 15.744 16.982 4.5615 4.5389 9.0645 9.4317 14.936 12.273 6.2243 1.9618 12.498 3.6831 18.688 5.7774 6.1109 1.0159 12.325 0.43904 18.504 0.625 19.916-2e-3 40.322 0.9438 60.318-0.79297 4.204-0.60772 8.2954-1.5193 12.234-2.8965 0.63615 5.0153-0.85308 9.9159-2.8926 14.596-2.9182 6.0567-6.1996 11.897-9.5801 17.705-3.3274 5.132-5.7731 10.6-8.4922 16.047-4.6837 6.6026-10.475 12.098-16.107 17.871-4.4735 4.9922-8.8488 10.107-12.377 15.83-0.64021 1.0618-1.242 2.1458-1.8301 3.2363-0.44599-1.1439-0.94926-2.2726-1.5703-3.3652-3.4748-5.3574-7.9006-10.278-13.363-13.65-4.5619-3.5889-9.5479-6.4837-14.018-10.176-1.1717-1.2698-2.5885-2.3118-3.6738-3.6562-2.1591-2.6746-3.5102-6.0902-6.1172-8.4512-3.3392-5.2576-7.1514-10.174-9.9219-15.775-3.7655-6.0195-7.3421-12.149-10.551-18.486-3.3985-6.2417-6.8946-12.444-13.592-15.611-6.3402-3.1061-12.6-6.5699-19.785-7.2129-20.353-0.17058-42.939-3.0964-63.334 2.3262-11.601 3.7294-22.534 9.1232-34.014 13.188-12.446 3.8906-25.144 7.1602-38.291 7.0566-4.5428 1e-3 -8.8823 3e-3 -13.238 6e-3 -15.253-0.0731-30.51-0.19516-45.744-1.0078-15.187-0.99012-30.295-2.8293-45.463-4.0469-16.407-2.1722-32.912-4.9527-48.529-10.576-12.023-4.1617-23.867-9.03-34.932-15.342-2.3868-1.2953-4.803-2.6323-7.1074-4.123-1.2022-2.8462-2.4245-5.6828-3.6875-8.498-3.1355-4.9541-4.929-10.707-8.2617-15.561-0.81146-1.1345-1.5512-2.3517-2.1934-3.6191 0.022-1.9378 0.0531-3.8762 0.0937-5.8144 13.673 1.9176 27.032 1.8391 46.498 0.52148 5.6135-0.3566 13.974-0.15404 12.328-8.1328-3.8566-4.1621-9.4407-6.3217-13.453-10.398-4.6412-4.2148-9.4001-8.3038-14.021-12.508-5.3386-5.3505-11.165-10.339-15.426-16.662-4.4366-7.2347-7.0371-15.12-7.4414-23.662 0.0203-6.6726 0.058-13.345-0.0547-20.018-0.0615-7.6567-5e-3 -15.311 0.041-22.967 0.0124-6.7368 0.0331-13.472-0.0332-20.209 0.0105-4.3034 0.027-8.6086 0.0918-12.912 0.067-0.27125 0.12699-0.54374 0.19726-0.81445 1.3727-5.8592 2.4679-11.774 4.4238-17.488 1.5455-6.3722 3.2138-12.77 5.6191-18.873 2.6755-6.0093 5.5549-11.971 7.4297-18.293 1.8576-5.7237 3.8313-11.233 7.8066-15.914 3.2918-4.895 7.079-9.3635 10.654-14.043 4.1947-6.1057 8.5587-12.08 14.324-16.83 5.4947-4.5139 11.375-8.8556 18.234-11.016 3.5616-1.0256 7.1574-1.5924 10.789-1.8633zm-87.016 245.19c0.91872 0.79775 1.8335 1.6001 2.75 2.4004 0.48993 0.47438 0.99179 0.93526 1.502 1.3848-1.5466-0.25746-3.0848-0.48242-4.6055-0.64649 5e-3 -0.0579 7e-3 -0.11594 0.0117-0.17382 0.1009-0.9899 0.21781-1.9778 0.3418-2.9648zm474.15 63.977c0.48357 0.0853 0.95238 0.18056 1.4238 0.27539-8.155 0.11479-10.227 0.24666-1.4238-0.27539zm-128.99 4.5488c0.89369-8e-3 -0.7204 0.0607-4.2617 0.14844 2.0134-0.0894 3.6263-0.14274 4.2617-0.14844zm-29.189 3.625c2.0247 0.78209 4.0182 1.6631 5.9805 2.6211 6.3453 2.5539 10.036 7.4332 13.422 13.115 3.482 6.2394 6.7343 12.59 10.508 18.658 2.8777 5.5086 6.3872 10.638 9.7715 15.84 3.1553 4.3731 6.133 8.8705 9.7949 12.84 4.0923 4.4531 9.3949 7.4373 14.268 10.92 5.1089 3.3109 9.5222 7.4665 13.174 12.324 3.0749 4.6305 3.6902 10.055 4.0605 15.457 0.64165 5.8998-1.188 10.222-4.0352 15.162-1.6648 2.7523-1.9814 6.3943-4.7168 8.4258-0.5037 0.37406-1.1098 0.58682-1.6641 0.88086-0.5506 0.44992-1.0998 0.89973-1.6504 1.3496-1.1638 0.76119-2.3518 1.4668-3.5606 2.123-1.5166 0.28211-3.0266 0.60249-4.5293 0.97656-6.4249 0.87099-12.813 1.8974-19.121 3.4277-4.0609 0.68645-8.13 1.3226-12.203 1.9375-5.0304 7.7e-4 -10.061 0.0171-15.092 0.0254-22.469-0.0227-44.937-0.0166-67.406 0.0137-0.60417 2e-3 -1.2083 3.9e-4 -1.8125 2e-3 -19.284 1.3232-30.11-0.41362-43.951 0.72266-0.80734-5.2534-1.0188-10.593-1.1602-15.904 0.31672-5.2269-0.54562-10.556-0.13477-15.773 0.17028-2.1623 1.1161-5.5586 1.6367-7.6348 1.8685-8.4726 4.8662-16.612 7.1348-24.984 1.8576-8.7822 5.0176-17.151 6.7852-25.969 1.2271-6.1292 1.4967-12.359 1.6777-18.586l-41.748-0.12109c-0.17156 5.9852-0.47108 11.983-1.4883 17.895-1.7021 8.728-4.8249 17.031-6.7168 25.705-2.1952 8.441-5.4884 16.529-7.2344 25.088-1.8365 8.1127-1.9951 16.206-1.4746 24.502 0.2418 7.5782 0.19091 15.256 1.9726 22.672-1.7077 0.22647-3.4255 0.40834-5.1523 0.54883-5.0996 0.24026-10.235 5e-3 -15.008 1.668-7.2574-3.5644-14.566-6.9942-21.316-11.498-6.7279-5.3537-12.554-11.716-19.699-16.57-5.0074-3.3618-9.2332-7.7728-12.951-12.502-3.7756-4.9116-7.5966-9.8385-9.3828-15.9-3.5803-8.0192-7.9887-15.657-11.689-23.627-4.1976-7.5002-8.6816-14.793-14.148-21.451-4.787-5.325-9.8942-10.402-15.379-15.016-3.549-3.6275-7.8513-6.3824-11.773-9.5918-5.334-2.8579-9.6494-7.3387-13.703-11.768-0.54764-0.67776-1.0628-1.3678-1.5508-2.0684 12.746 3.8006 25.913 6.1164 39.057 8.082 15.071 1.5354 30.134 3.2666 45.246 4.3691 16.914 1.0659 33.868 1.1275 50.809 1.2148 29.437 0.10697 58.875 0.0947 88.312 0.0645 13.306-0.30074 26.137-3.8895 38.58-8.3398 9.7146-3.9417 19.265-8.231 29.264-11.326zm-54.812 136.1c0.15214-0.0104 0.2921-0.0165 0.44531-0.0273 12.423-0.87742-24.909 3e-3 -37.363 4e-3 -2.6251 1.9e-4 10.566-4e-3 7.875 8e-3 9.6811 0.0249 19.362 0.0399 29.043 0.0156zm-64.693-122.76c2.4093 5e-3 4.5353 0.0107 28.535 0.0195 2.7955 1e-3 -5.5893-3e-3 -8.3848-2e-3 -15.264 6e-3 -1.4131 0.0169-17.24-2e-3 -0.96996-4e-3 -1.9401-0.0112-2.9102-0.0156zm147.95 122.79c-0.43996 9.9e-4 -0.34598 4e-3 -1.0469 6e-3 -1.1897-7.5e-4 -4.76-3e-3 -3.5703-4e-3 10.059-4e-3 -1.7878 2.6e-4 4.6172-2e-3zm-110.81 6.3223c13.178-0.0344 26.359 0.20053 39.537 0.13477 10.221-0.0265 20.441-0.0459 30.662-0.0156 1.1339 2e-3 2.2481 2e-3 3.5664 4e-3 -0.0228 5e-3 -0.0456 0.0103-0.0684 0.0156-6.4194-2e-3 -1.9427 2e-3 -17.951-4e-3 5.9532 7e-3 11.906 0.0308 17.859 0.0254-0.80682 0.18748-1.6135 0.3758-2.418 0.57422-8.6134 1.69-17.264 3.1537-25.949 4.4238-9.3158 1.5386-18.701 2.7184-27.846 5.1465-5.3986 1.3462-10.794 2.7357-16.148 4.2539-3.46-0.42221-6.9252-0.74927-10.168-2.1465-2.5172-1.1746-3.7838-3.3716-4.625-5.8379 3.8012-0.82737 7.5662-1.8025 11.369-2.7227 6.6163-1.2068 13.276-1.8382 19.941-2.7012 2.2189-0.31646 8.909-0.8195 6.668-0.85351-10.423-0.1647-37.796 0.0176-39.643-0.0664-2e-3 -8e-3 -4e-3 -0.017-6e-3 -0.0254 0.31316-0.0161 0.76075-0.0336 2.043-0.0605 4.3919-0.092 8.7832-0.13306 13.176-0.14453z"/>
 <path d="m64.602 83.597c-0.62947-1.5098-1.2671-2.9958-1.6731-4.5883-0.60721-1.6268-0.8956-3.3117-1.0512-5.032-0.07878-1.2009-0.04553-0.60386-0.10018-1.7911l11.071-0.04805c0.04691 1.1513 0.01606 0.57374 0.09291 1.7326 0.17128 1.6588 0.51989 3.2759 1.0607 4.8562 0.42965 1.6094 1.1428 3.0816 1.8214 4.5958l-11.221 0.27495z" stroke-width=".26458"/>

</svg>
