<?xml version="1.0" encoding="UTF-8"?>
<!-- Created with Inkscape (http://www.inkscape.org/) -->
<svg width="190mm" height="74mm" version="1.1" viewBox="0 0 190 74" xmlns="http://www.w3.org/2000/svg" xmlns:cc="http://creativecommons.org/ns#" xmlns:dc="http://purl.org/dc/elements/1.1/" xmlns:rdf="http://www.w3.org/1999/02/22-rdf-syntax-ns#">
 <metadata>
  <rdf:RDF>
   <cc:Work rdf:about="">
    <dc:format>image/svg+xml</dc:format>
    <dc:type rdf:resource="http://purl.org/dc/dcmitype/StillImage"/>
    <dc:title/>
   </cc:Work>
  </rdf:RDF>
 </metadata>
 <g transform="translate(0,-223)" stroke-width=".26458">
  <path d="m148.35 233.69c-0.54988 0.80943-1.1414 1.5798-1.7937 2.311-1.2147 1.3783-2.3741 2.8066-3.4277 4.3129-1.2536 1.7193-2.5108 3.4411-3.8918 5.0612-1.19 1.2786-2.5112 2.3915-3.8302 3.5331-0.86578 0.86076-1.6257 1.8073-2.4236 2.7295-1.0634 1.0799-2.1227 2.1644-3.2334 3.1962-1.6177 1.462-3.3329 2.8079-5.179 3.9734-2.6039 1.7055-5.2043 3.4158-7.722 5.2477-2.1271 1.5534-4.2667 3.1174-6.5748 4.393-1.6566 0.81865-3.3484 1.5611-5.0359 2.3136-1.0226 0.45424-2.0488 0.90107-3.0624 1.3751-1.0257 0.51867-2.0608 1.0306-3.1621 1.3715-1.3844 0.36684-2.7902 0.63334-4.1966 0.90021-0.97529 0.2291-1.9581 0.42446-2.8965 0.78548-0.84612 0.29034-1.6597 0.67788-2.5611 0.77308-0.86124 0.1836-1.7329 0.28809-2.5942 0.47077-0.93404 0.22132-1.8756 0.39139-2.8319 0.48679-0.89969 0.0412-1.8027 0.0247-2.6996 0.12041-0.85697 0.097-1.7003 0.28573-2.56 0.34933-0.86493 0.0457-1.7298 0.12621-2.5668 0.36329-0.90737 0.24634-1.8259 0.46274-2.7719 0.47904-1.2744 0.0291-2.5511 0.0723-3.8168 0.23306-1.2931 0.18541-2.576 0.44113-3.8819 0.52813-1.5733 0.1408-3.1509 0.0872-4.7289 0.0987-2.5042 2e-3 -10.45 2.7e-4 0.32298-5.3e-4 -1.7446 5.3e-4 -3.4893 5e-3 -5.2338-0.0207-1.7891-0.0339-3.5792-0.0897-5.3609-0.26613-1.4894-0.14918-2.9765-0.21633-4.4716-0.29043-0.68447-0.0579-1.3969-0.19745-2.082-0.21135-2.5611-0.0521-5.1229-0.0777-7.6843-0.0713-1.4065-7e-3 -2.8137-0.0195-4.2173-0.11472-1.6225-0.12992-3.2182-0.40404-4.8276-0.62993-1.5346-0.18649-3.072-0.30095-4.6085-0.47026-0.78018-0.0944-1.5531-0.0858-2.3384-0.0863-2.2221-1e-3 -4.4442-1e-3 -6.6663-1e-3 -0.1643 0-0.3287 1e-3 -0.49299 2e-3 -0.99294 0.0197-1.9875 0.0676-2.9647 0.25941-1.589 0.32698-3.1167 0.85701-4.6741 1.3043-1.6185 0.47115-3.2529 0.88718-4.8493 1.4325v5.3e-4l6.2528 0.78496c1.4918-0.61749 3.0757-0.96644 4.6157-1.4428 1.5832-0.4716 3.1469-0.9668 4.7827-1.2201 0.22144-0.0306 0.44328-0.0523 0.66559-0.0713 1.4082 0.13664 2.8196 0.23371 4.2256 0.39429 1.6106 0.19472 3.2043 0.48749 4.8193 0.64854 1.6739 0.15032 3.3561 0.15802 5.0354 0.17002 2.9028 8e-3 5.8057 5e-3 8.7085 3e-3 -0.6919 0.0113-0.97122 0.0121-1.8826 0.0294-0.22586 4e-3 0.45005 0.0397 0.67489 0.0615 2.7406 0.26617-1.4199-0.12771 1.4108 0.13849 1.5045 0.13262 3.0133 0.15218 4.5181 0.28163 1.7877 0.17823 3.5827 0.25915 5.378 0.30645 1.7407 0.0335 3.4815 0.0359 5.2224 0.0367 3.9091 6e-3 7.8183-7e-3 11.727-6e-3 1.6152 0.0265 3.2194 0.0328 4.825-0.14572 1.3158-0.0881 2.5973-0.38705 3.9052-0.54364 1.2753-0.12592 2.5576-0.14671 3.838-0.15761 0.97391-0.0789 1.8885-0.39194 2.8298-0.6196 0.83931-0.18363 1.6998-0.21084 2.5554-0.22945 0.84225-0.20906 1.7001-0.32154 2.5642-0.38343 0.89335-0.0704 1.7914 0.0156 2.6758-0.13333 0.97357-0.0912 1.905-0.35275 2.8567-0.55552 0.88332-0.0768 1.7319-0.29019 2.5998-0.45579 0.90151-0.12602 1.6862-0.60241 2.5657-0.83199 0.91475-0.36648 1.8931-0.53605 2.8525-0.74776 1.3929-0.25161 2.7873-0.52938 4.1434-0.93999 1.1269-0.3933 2.1713-0.96881 3.2494-1.4702 1.011-0.44616 2.017-0.89919 3.0205-1.3632 1.6306-0.76446 3.2653-1.5137 4.8529-2.3647 2.2607-1.3533 4.3834-2.9307 6.5009-4.4958 2.4709-1.88 5.081-3.5586 7.706-5.2121 1.9431-1.1356 3.6758-2.5577 5.3444-4.0556 1.1482-1.0409 2.2534-2.1281 3.3522-3.2205 0.79527-0.91591 1.5304-1.8796 2.4035-2.7239 1.348-1.1525 2.5808-2.2404 3.7595-3.5739 1.3186-1.6772 2.5746-3.4056 3.8308-5.1304 1.0723-1.5022 2.2822-2.8946 3.5434-4.239 0.69844-0.76086 1.375-1.529 1.9374-2.3968z"/>
  <path d="m169.67 245.48c-0.30573 0.51385-0.65181 1.0003-1.0066 1.4816-0.74357 1.0178-1.6416 1.8978-2.5998 2.7146-1.3074 1.0799-2.7388 1.9588-4.268 2.6949-1.4319 0.74072-2.8464 1.5098-4.2643 2.2764-1.1329 0.52011-2.3027 0.94674-3.4644 1.3978-1.5118 0.54413-3.0586 0.98784-4.6256 1.3436-1.9277 0.42549-3.8875 0.65834-5.825 1.033-2.0765 0.4278-4.1422 0.89954-6.211 1.3632-2.3913 0.50955-4.7872 1.0142-7.135 1.7027-1.9614 0.62906-3.8731 1.3818-5.8141 2.0681-1.8174 0.58736-3.631 1.1862-5.4539 1.756-1.6778 0.54329-3.3886 0.99446-5.0193 1.6738-1.3106 0.57483-2.6026 1.1888-3.8644 1.864l6.2968 0.70022c1.0995-0.80645 2.4096-1.3133 3.6566-1.8552 1.6335-0.60488 3.3142-1.0603 4.9614-1.6258 1.823-0.56287 3.639-1.1491 5.4488-1.7539 1.9092-0.73282 3.8204-1.4414 5.7671-2.0702 2.3373-0.6281 4.6996-1.1632 7.0709-1.6469 2.0985-0.49817 4.217-0.90011 6.3257-1.3482 1.9425-0.33401 3.8969-0.57485 5.812-1.0496 1.603-0.38805 3.21-0.80493 4.7475-1.4082 1.1813-0.42755 2.3424-0.8878 3.4649-1.4526 1.3675-0.82159 2.7757-1.5646 4.1879-2.3048 1.5797-0.73677 2.9977-1.7013 4.3243-2.822 1.0027-0.85817 1.941-1.78 2.6949-2.866 0.41608-0.4751 0.76466-0.99352 1.0356-1.5617z"/>
  <path d="m118.58 262.57c-0.38489 0.18524-0.77007 0.3708-1.155 0.55604-2.697 1.321-5.4691 2.486-8.0956 3.9486-1.2962 0.75705-2.5419 1.5915-3.8266 2.3673-0.79594 0.53983-1.6029 1.06-2.4598 1.4996-0.83701 0.41473-1.6705 0.83187-2.5352 1.186-0.98864 0.50251-1.9965 0.95622-3.0582 1.2852-1.2296 0.54169-2.4148 1.1931-3.7006 1.5989-1.11 0.39102-2.2262 0.76142-3.3538 1.0986-1.5825 0.46573-3.1915 0.82477-4.8348 0.99839-1.1923 0.12628-2.3886 0.2376-3.5874 0.26303-0.01069 0-0.02135-1e-5 -0.03204 0-0.32186 6e-3 -0.64411 8e-3 -0.96635 0-0.51553-5.3e-4 -1.0311 7.9e-4 -1.5467-1e-3 -1.07-3e-3 -2.1397-2e-3 -3.2096 0-3.197 7.9e-4 -6.3942-4e-3 -9.5911 1e-3 -1.099 7.9e-4 -2.1979 1e-3 -3.297 5.3e-4 0.65009-8e-4 1.3002 7.9e-4 1.9503-1e-3 2.1692-3e-3 5.5603-2e-3 -4.4705-1e-3 -0.1964 2e-5 0.39272 8e-4 0.58911 1e-3 0.99022 2e-3 0.28929 1e-3 1.2718 1e-3 -0.54846 9e-5 -1.0969 3e-3 -1.6454 1e-3 -1.2419 0-2.4839-6e-3 -3.7259 1e-3 -3.6467 1e-3 -7.2932 2e-3 -10.94 5e-3 -1.935 5e-3 -3.8703 1e-3 -5.8053 4e-3 -0.34211 7e-5 -0.68419 2.5e-4 -1.0263 5.3e-4 -4.5148 5e-3 7.5124 4e-3 2.605 4e-3 -0.39846 0-0.79733 8e-4 -1.1958 5.3e-4 -0.3971 0-0.79405-2e-3 -1.1911-2e-3 -1.8783-5e-3 -3.7565-0.0118-5.6348-0.01-3.9512 5e-3 -7.9024-0.029-11.854-8e-3 -2.2068 0.0175-4.4135 0.0866-6.6146 0.25529-2.5737 0.23396-5.1623 0.51378-7.5778 1.4991-1.6817 0.51536-3.4053 0.8825-5.1165 1.2847-0.26611 0.0369-0.53177 0.0777-0.7984 0.11058-0.24886 0.0308-0.99892 0.0731-0.74827 0.0801 1.3173 0.039 1.8542 0.0585 2.7316 0.0868l-4.7708 0.63614c3.1627 0.71492 6.4731 0.44095 9.6599-0.0413 1.1168-0.40899 2.3007-0.57015 3.4463-0.86145 0.0052-1e-3 1.6342-0.50897 1.6692-0.51987 2.3008-1.0288 4.8511-1.2086 7.3313-1.4025 1.8352-0.12177 3.6741-0.15851 5.5128-0.17001 0.3671 2e-3 0.73412 2e-3 1.1012 4e-3 1.9061 9e-3 3.8124 2e-3 5.7185-2e-3 4.2446-5e-3 8.489 2e-3 12.734 3e-3 1.9501 3e-3 3.9007 1.3e-4 5.8508 4e-3 2.5476 3e-3 9.8133 5.3e-4 -1.1818 5e-3 1.2369 6e-3 2.474 7.9e-4 3.7109 1e-3 1.4119-6e-3 2.824-2e-3 4.2359 2e-3 3.2126 7e-3 6.4251-5.2e-4 9.6377-5.2e-4 1.3193-2e-3 2.6381-1e-3 3.9574 0 0.18131 5.2e-4 0.36285 7.9e-4 0.54415 1e-3 -1.0685 3e-3 -2.137 2e-3 -3.2055 0-2.2491-5.3e-4 1.093 2e-5 4.2225 5.3e-4 -0.46078 2.7e-4 -0.08489 8e-4 -0.96273-5.3e-4 1.3385-5e-3 2.6773-5e-3 4.0158-2e-3 3.2296 9e-3 6.4592-2e-3 9.6888 2e-3 1.5128 0.0151 3.0269-0.15346 4.5253-0.35553 1.6763-0.20861 3.3293-0.57228 4.9346-1.0966 1.1608-0.29522 2.274-0.73346 3.4091-1.109 1.2598-0.46825 2.4138-1.1579 3.668-1.6418 1.1192-0.2423 2.1032-0.83502 3.1264-1.3172 0.87077-0.35274 1.7605-0.72653 2.5657-1.2128 0.8646-0.42136 1.6084-1.0406 2.4174-1.5518 1.2594-0.71979 2.4013-1.6151 3.6458-2.357 2.5596-1.473 5.2675-2.6575 7.936-3.915 0.4072-0.17946 0.81442-0.35901 1.2216-0.53847zm-37.605 14.802c0.3221 2.6e-4 0.64425 1.2e-4 0.96635 0 0.7622 5.3e-4 -2.0244 1.7e-4 -1.0299-1e-3 0.02119 5.3e-4 0.04237 5.3e-4 0.06356 1e-3zm-55.819 0.94723c0.04875 5e-5 0.09749 5.3e-4 0.14624 5.3e-4 -0.89434-5.3e-4 0.56131 7.9e-4 -1.2041 0-0.35249-7e-5 0.70533-8e-4 1.0578-5.3e-4z"/>
  <path d="m108.37 270.67c-2.4844-0.0168-4.2002 0.30231-7.1996 0.86041-1.9619 0.35095-3.6864 1.3467-5.5459 1.9937-1.288 0.43804-2.6612 0.29898-3.9698 0.59066-1.5976 0.2777-3.1292 0.79206-4.715 1.1214-1.4411 5.3e-4 -2.8822 2e-3 -4.3232 2e-3 -1.8143 0.2924-3.6178 0.60107-5.4524 0.73587-1.4974 0.0823-2.9969 0.1118-4.4964 0.12557-0.13164-0.0132-0.34312-0.12583-0.36432-5e-3 -5.29e-4 3e-3 -5.29e-4 6e-3 -0.0011 9e-3 -0.14917 1e-3 -0.29834 4e-3 -0.44752 5e-3 0.23864-2.5e-4 0.17599 2.7e-4 0.44752 0-0.0019 0.0115-0.0019 0.0231-0.0031 0.0346-1.2954-6e-3 -2.5907-0.016-3.8861-0.03-0.61571 2.2e-4 -0.40027-3e-3 -0.13849-2e-3 -0.67834-7e-3 -1.3567-0.0138-2.035-0.0243-0.06176 0.49669-0.11927 0.75758-0.11679 0.9002-0.43525 0.0114-0.81643 0.0193-0.81907 8e-3 -2.2215 0.0422-4.4561 0.0537-6.6554 0.40565-1.2858 0.23328-2.5747 0.45192-3.8654 0.65578-0.55093 0.0452-1.1021 0.0873-1.6557 0.11834-1.14 0.0484-2.2816 0.0564-3.4225 0.0589-0.65296 1e-3 -1.3061 1e-3 -1.9591 1e-3 -3.3783-1e-3 -6.7564 4e-3 -10.135-4e-3 -1.2539-2e-3 -2.5077 2e-3 -3.7615 6e-3 -1.6052 4e-3 -3.2105 5e-3 -4.8157 7e-3 -0.51391-7.9e-4 -1.0276-2e-3 -1.5415-2e-3 -1.32-4e-3 -2.6401 7.9e-4 -3.96 9e-3 -1.4967-0.18091-2.9983-0.30368-4.5052-0.37155-1.8009-0.0657-3.6035-0.0688-5.4054-0.0718-3.7656-0.23576-7.1844-0.42711-10.582 1.0423-0.07846 0.0295-0.80542 0.28105-0.91261 0.39326-0.27092 0.28363-0.054416 0.78763 0.21032 0.97306 0.19184 0.13438 1.5837 0.18269 1.7079 0.19069 3.8765 0.0129 7.8428 0.47764 11.672-0.21187 3.2459-0.42397 6.5252-0.48881 9.7973-0.53899 1.8074 0.05 3.6137 0.14337 5.411 0.35088 1.4702 0.16737 2.9556 0.37468 4.4375 0.39998 1.825 0.0312 4.0429 0.0459 5.5351 0.0543 1.8755-4e-3 3.7515-7e-3 5.627 2e-3 1.8668 0.01 3.7333 0.0247 5.6002 0.0207 3.8364-0.0101 7.673 2e-3 11.509-0.0129 1.2691-0.0118 2.5402-0.0277 3.8013-0.1881 1.2036-0.13607 2.4066-0.27955 3.621-0.22324 1.3707-3e-3 2.7412-9e-3 4.1119-7e-3 1.349 1e-3 2.6984-2.1e-4 4.0473 0.0165l-5.4875-0.86921c0.87228 4e-3 1.7446 8e-3 2.6169 5e-3 0.66836 0 1.3367-6e-3 2.005-3e-3 0.16126 7.9e-4 0.53259 0.17021 0.48369 0.0165-0.0033-0.0102-0.0071-0.0203-0.01035-0.0305 1.9615 8e-3 3.923 0.0165 5.8844 0.0217 0.14376-0.33023 0.3352-0.64358 0.4315-0.99063 0.01423-0.0514-0.10648 0.01-0.15968 0.0109-0.17601 4e-3 -0.35208 4e-3 -0.52813 5e-3 -0.32552 1e-3 -1.0246-1e-3 -1.3519-2e-3 -0.20388-1e-3 -0.40796-2e-3 -0.61185-2e-3 -1.1172-3e-3 -2.234 2e-4 -3.3512 6e-3 -0.20996 8e-4 -0.41997 2.7e-4 -0.62994 1e-3 -0.0013-4e-3 -0.0024-7e-3 -0.0036-0.0109-0.18069 3e-3 -0.34961 7e-3 -0.54209 0.01 1.4526-0.24988 2.9056-0.49537 4.3744-0.6351 1.7197-0.17222 3.4427-0.33696 5.1532-0.58602 0.77499 2e-3 1.5499 4e-3 2.3249 7e-3 1.4388-0.0273 4.3202-0.0682 6.304-0.1018 1.4824-0.25274 2.995-0.307 4.4814-0.51728 0.35759-0.0506 1.6768-0.33358 2.0521-0.41238 0.75699-0.24101 1.5796-0.24175 2.3425-0.44648 0.59062-0.15849 1.173-0.43892 1.7586-0.6258 0.19416-0.0456 0.39399-0.0725 0.5829-0.13643 0.50666-0.17131 0.67037-0.32827 1.1431-0.56999 0.55659-0.2846 1.1477-0.49311 1.7172-0.74982 0.68376-0.28422 2.0685-0.82385 2.4319-1.5048 0.0813-0.15321 0.061-0.34165 0.0915-0.51263-0.0971-0.178-0.0896-0.51514-0.29146-0.53433-1.6398-0.15552-2.9278-0.23266-4.0571-0.2403zm-18.556 6.3521c-1.5329 0.0291-1.4189 0.0428 3.4799 0.0139 0.57479-3e-3 -1.1497-7e-3 -1.7244-9e-3 -0.58516-3e-3 -1.1703-2e-3 -1.7554-5e-3zm-10.598 3.0463 0.0036 5.2e-4v-5.2e-4c-0.0013-2e-5 -0.0024 1e-5 -0.0036 0zm-38.318 0.39273c-1.0852 2e-3 -2.1704 5e-3 -3.2556 7e-3 5.8207 3e-3 5.3563 5e-3 3.2556-7e-3zm27.377-4.3506c0.04617 5.3e-4 0.09233 2e-3 0.13849 2e-3 0.60511-2.1e-4 1.0404-2e-3 1.6717 1e-3 0.57316-1e-3 1.146-3e-3 1.7193-6e-3 -1.8535 2e-3 -3.277 3e-3 -3.5295 3e-3zm38.138-4.7625c-4e-3 0.16906-0.24406 0.36278-0.56534 0.55294 0.0937-0.11237 0.281-0.28605 0.56534-0.55294zm-12.834 4.718c1.1706 0.0111 1.9695 0.0252 1.1984 0.0506-0.39086 0.0129-0.78202 0.019-1.1731 0.0274 0.0011-5.2e-4 0.0021-1e-3 0.0031-2e-3 -0.01125-0.0241-0.01857-0.0513-0.02842-0.0765zm-15.069 2.1782c1.2523 4e-3 2.5046-1e-5 3.7569 9e-3 0.58777 5e-3 -1.1754 7e-3 -1.7632 0.01-0.66182 3e-3 -1.3236 3e-3 -1.9854 5e-3 -0.0027-8e-3 -0.0056-0.0158-0.0083-0.0238zm-15.492 0.93225c-0.57351 0.0631-1.1458 0.1435-1.7198 0.20154-1.2344 0.12161-2.4759 0.12666-3.715 0.14056-0.17461 2e-3 -0.34939 3e-3 -0.524 4e-3 -0.82506 2e-4 -1.6502 8e-4 -2.4753 5e-3 0.62536-5.3e-4 0.92361 5e-5 1.4263 0-0.46695 1e-3 -0.96138 3e-3 -1.3234 3e-3 -0.13494 0-0.18714-5.3e-4 -0.40463-1e-3 -0.63843 3e-3 -1.2767 6e-3 -1.9151 9e-3 -0.19791 8e-4 -0.39585-1.2e-4 -0.59376 5.3e-4 0.23451-2e-3 0.46877-2e-3 0.70332-4e-3 2.0455-0.0303 4.0814-0.16914 6.1154-0.35192 0.8103-2e-3 1.6206-3e-3 2.4309-4e-3 -0.0028 0.0106-0.0075 0.0203-0.0098 0.031-0.03303 0.15072 0.30821-0.0192 0.4625-0.0222 0.28347-6e-3 0.56708-7e-3 0.8506-0.0108 0.23064-8e-5 0.46131-1e-3 0.69195-1e-3zm-8.7359 0.35243c0.10061-5.3e-4 0.20119-1e-3 0.30179-2e-3 -0.36842 2.7e-4 -0.43238 6e-5 -0.84026 5.3e-4 -0.17958 1.6e-4 0.24904 5.3e-4 0.53847 1e-3zm19.326-0.34881c0.91502 2e-3 1.83 3e-3 2.7451 6e-3 0.35676 1e-3 1.4275 3e-3 1.0707 4e-3 -1.714 4e-3 -2.7813 2e-3 -3.7383 2e-3zm-34.122 0.0191c0.83232-1e-3 0.61354-5.2e-4 1.4542 0 0.08427 2e-5 0.16842-2e-5 0.2527 0 0.85348 2e-3 1.7071 5e-3 2.5606 4e-3 2.4508-6e-3 0.15793-1e-4 -4.9423-3e-3 -0.22501 0 0.44989-8e-4 0.67489-1e-3z"/>
  <path d="m166.01 256.41c0.10379 1e-3 0.21084-0.0223 0.31137 4e-3 0.48845 0.12556 0.98326 0.47358 1.4206 0.70865 0.67439 0.36246 0.58423 0.3069 1.2925 0.62747 1.3059 0.7282 2.4548 1.6841 3.4815 2.7636 0.15842 0.1522 0.31683 0.30441 0.47525 0.45661l-6.1672 0.48727c-0.15127-0.15558-0.30255-0.31117-0.45383-0.46676-1.0193-1.0097-2.1561-1.9112-3.4521-2.5418-1.011-0.47703-2.015-1.129-3.1737-1.0462 0 0 6.2656-0.99237 6.2656-0.99237z"/>
  <path d="m165.09 255.25c0.57771 1.0313 1.435 1.7952 2.2654 2.6122 1.0344 1.0436 2.1604 1.9394 3.4198 2.6946 0.97557 0.70475 1.9889 1.2883 3.1131 1.719 1.0328 0.40373 2.1097 0.63456 3.1756 0.9235 1.0303 1.3272-1.6191 1.0352-2.0991 1.0391-3.2794 0.0728-6.7562 0.81265-9.4454-1.2234-1.1067-1.008-2.255-1.9658-3.4039-2.9263-1.0858-0.96135-1.6166-2.145-1.6133-3.5801 0.11761-0.91917 0.55339-1.7446 0.93075-2.5781 1.3828-2.3167 4.2803-0.8557 7.1628-0.76523 0.10879 3e-3 1.2702 0.974 1.3971 1.0756 0.94467 0.78773 1.7996 1.672 2.6876 2.5224 0.68477 0.69608 1.3418 1.43 2.2114 1.8989 0.68185 0.50954 1.3799 0.92359 2.1806 1.2236 0.88777 0.29397 1.8228 0.34665 2.7498 0.37503 1.2464 0.18971 1.383 1.0059 1.1872 2.0881-0.3058 0.92468-0.89737 1.7249-1.6089 2.379-0.74007 0.59262-1.6423 0.70775-2.5557 0.77263-3.2215 0.0795-6.445 0.0341-9.6674 0.0228-0.64986 0.0158-1.505 0.14238-0.90734-0.95142 0.0488-0.0894 0.74722-0.28163 0.89721-0.32732 1.4873-0.24427 2.9409-0.63392 4.409-0.97017 0.18704 0.14719 1.1491-0.41065 1.3786-0.41128 0.1325-2.7e-4 -0.12525 0.27327-0.25362 0.30607-0.12895 0.0329-0.26423-0.0322-0.39634-0.0483-0.17822-0.0195-0.35942-0.0205-0.53465-0.0584-0.45001-0.0972-0.88079-0.26915-1.3256-0.38782-0.62631-0.16708-1.2537-0.2964-1.8919-0.40716-0.81978-0.20204-1.7509-0.0131-2.5436-0.34523-0.14617-0.0612-0.26431-0.17491-0.39647-0.26237-0.93635-0.60912-1.8523-1.2508-2.8328-1.7873-0.57296-0.27943-1.0626-0.70398-1.6414-0.97259-0.43899-0.20374-0.40048-0.16288-0.82741-0.16238 2.0104 0.0218 4.0207 0.0436 6.0311 0.0654-0.41371-0.46568 0.29835 0.76008 0.3368 0.81501 0.31712 0.75436 0.84684 1.3319 1.3371 1.9692 0.67487 0.70293 1.4766 1.2497 2.2885 1.7804 0.89299 0.42892 1.7664 0.87732 2.7026 1.2059 0 0-6.1596 0.74539-6.1596 0.74539-0.93875-0.3916-1.8636-0.82484-2.7431-1.337-0.85141-0.56716-1.6675-1.1996-2.3422-1.9741-0.52479-0.63863-0.96827-1.3101-1.3543-2.0421-0.37161-0.6691-0.7998-1.4211-0.32823-2.1516 6.8915 0.0676 5.1245-0.80565 8.8485 1.409 0.97173 0.57666 1.9152 1.203 2.9129 1.7347 0.93545 0.26536 1.9126 0.24693 2.8603 0.45732 1.2756 0.2785 2.524 0.66649 3.8105 0.89661 0.43507 0.18212 0.62704 0.1555 0.76998 0.70531 0.22396 0.86146-1.1303 0.92754-1.6084 1.0915-1.4508 0.29015-2.8533 0.76315-4.3229 0.94696-0.15435 0.0367-0.30927 0.0711-0.46307 0.11007-0.0971 0.0246-0.228 0.15961-0.28939 0.0805-0.68763-0.88596 0.35317-0.69588 0.7291-0.6937 2.1436 0.0134 5.4757 2e-3 -4.4141 8e-3 -0.3661 2.1e-4 0.55978 4e-3 1.2231-1e-3 0.17947-1e-3 0.35894-4e-3 0.5384-6e-3 0.84234-0.0208 1.7117-0.0159 2.4867-0.39311 0.70703-0.45626 1.2404-1.1669 1.5797-1.9315 0.19758-0.93241-0.24283-0.95861-1.0889-1.0235-0.95301-0.0684-1.9033-0.19957-2.7866-0.58733-0.79071-0.36433-1.4889-0.84396-2.2084-1.3301-0.80021-0.59559-1.478-1.3224-2.1822-2.0245-0.86359-0.83565-1.6661-1.741-2.6462-2.4462-0.28587-0.19581-0.69118-0.50245-1.0275-0.6258-0.13141-0.0482-0.55393-0.0646-0.41406-0.0697 1.9487-0.071 3.8994-0.0724 5.8485-0.12841 0.10429-3e-3 -0.2152-0.071-0.3115-0.0308-0.10565 0.0441-0.1525 0.17075-0.22875 0.25613-0.3948 0.72538-0.72603 1.5096-0.94518 2.3034-0.0599 1.3388 0.47859 2.1649 1.4852 3.0306 1.1432 0.95856 2.2648 1.9469 3.4483 2.8541 0.51101 0.29367 1.0032 0.54132 1.5773 0.69085 0.19226 0.0501 0.78149 0.11736 0.58294 0.12416-1.6564 0.0567-7.8842 0.043-5.013 0.0484 0.24322-5.3e-4 2.8357-0.33596 1.9812 0.74424-1.0308-0.30359-2.0617-0.60354-3.0583-1.011-1.1225-0.49338-2.1549-1.1198-3.155-1.829-1.2103-0.84338-2.318-1.7939-3.381-2.8169-0.91342-0.85821-1.7672-1.7596-2.4561-2.8138l6.3284-0.29363z"/>
  <path d="m174.58 264.23c0.88548 0.61941 1.9532 0.85339 3.002 1.0198 0.74402 0.0845 0.37546 0.0495 1.1056 0.10574 0 0-6.1589 0.91198-6.1589 0.91198-0.72386-0.0908-0.3582-0.0373-1.0968-0.16161-1.0883-0.24039-2.0939-0.66773-3.1377-1.0376l6.2858-0.83831z"/>
  <path d="m169.4 245.07c0.2719-0.85564 0.29867-1.7599 0.42844-2.642 0.20567-0.90599 0.2805-1.8324 0.43196-2.7467 0.2271-1.1007 0.33345-2.2192 0.3872-3.3401 0.026-0.93247 0.13162-1.8913-0.26029-2.761-0.07-0.14317-0.26181-0.59303-0.41573-0.71472-0.0499-0.0395-0.12661-0.013-0.18992-0.0195 2.059 0.0583 4.1174 0.14127 6.177 0.17486 0.0398 5.3e-4 -0.0711-0.10924-0.0925-0.0756-0.0552 0.0868-0.0352 0.20272-0.0527 0.30407 0.1965 1.3844 0.36896 2.7697 0.49844 4.1624 0.12789 1.344 0.14064 2.695 0.16644 4.0437-0.0143 1.1786 0.0542 2.3596-0.0434 3.5352-0.17698 1.0701-0.6009 2.0463-1.2982 2.8743-0.10852 0.11394-1.0204 0.80851-1.175 0.75545-0.0368-0.0127 0.0417-0.11184 3e-3 -0.11679-2.042-0.26163-4.0932-0.44631-6.1398-0.66946 1.0303-0.0512 1.8805-0.6506 2.6831-1.2415 0.85919-0.72594 1.5868-1.6048 2.2392-2.5182 0.73285-0.99252 1.4892-1.9584 2.192-2.9732 0.6945-1.0839 1.1662-2.3039 1.6194-3.5061 0.37647-1.0025 0.47865-2.0616 0.52648-3.1219 4e-3 -0.1613 7e-3 -0.3226 0.0112-0.4839l6.2437 0.0188c-6e-3 0.16575-0.0122 0.33151-0.0184 0.49727-0.0652 1.1242-0.1581 2.2563-0.57258 3.3157-0.47979 1.2405-0.95525 2.5075-1.6386 3.6487-0.68097 1.0234-1.4067 2.0047-2.1498 2.9836-0.66289 0.97227-1.4226 1.8765-2.275 2.6907-0.75004 0.66309-1.6183 1.3154-2.5802 1.6107-2.1746-0.20833-4.3576-0.34191-6.5237-0.625-0.13619-0.0178 0.13836-0.26349 0.26571-0.31492 0.35441-0.1431 0.74111-0.20232 1.0559-0.43577 0.75674-0.63978 1.0719-1.5036 1.3117-2.4463 0.12079-1.1518 0.0325-2.3159 0.0592-3.4725 5e-3 -1.3323-0.0159-2.6651-0.1064-3.9948-0.11762-1.4305-0.35176-2.8386-0.61922-4.2476-7e-3 -0.41756-0.045-1.0458 0.10089-1.0543 5.7286-0.33519 5.7358-1.612 6.982 1.1838 0.34236 0.985 0.31602 1.9957 0.23543 3.0273-0.0679 1.1423-0.1643 2.281-0.36771 3.4085-0.14966 0.91403-0.18024 1.848-0.42908 2.7471-0.16509 0.88907-0.15704 1.8044-0.33068 2.6951l-6.3396-0.15534z"/>
  <path d="m181.86 231.74c-0.83701-2e-3 -1.6639 0.18587-2.4259 0.5251-0.73552 0.36769-1.3989 0.84543-1.9754 1.4294-0.72632 0.6486-1.43 1.2926-2.0634 2.0355-0.0868 0.11594-1.0193 1.0808-0.7027 1.2015 0.1445 0.0551 0.30604-0.0448 0.45938-0.0648-1.9792-0.0337-3.9585-0.0606-5.9375-0.10105-0.10779-2e-3 0.21786 9e-3 0.32316-0.0137 0.12372-0.0272 0.24184-0.0786 0.3551-0.1353 0.40276-0.20175 0.76311-0.50328 1.1171-0.77739 0.65674-0.61871 0.97019-1.5188 1.3092-2.339 0.34835-0.91308 0.73317-1.8452 1.2631-2.6707 4.3046-4.3565 6.6041-1.2192 7.5432 1.5229 0.29853 0.99072 0.48513 2.0204 0.43636 3.0559-0.044 1.2433-0.86695 1.9342-1.8467 2.5429-0.90297 0.63057-1.8365 1.1086-2.9265 1.2841-6.0415-0.0775-6.3516 1.2049-8.3326-2.4895-0.54398-0.88468-1.0482-1.7797-1.6873-2.6049-0.0309-0.0292-0.44537-0.4522-0.56998-0.48115-0.0545-0.0127-0.20418 0.0816-0.14827 0.0789 2.125-0.10493 4.2439-0.34731 6.3712-0.38615 0.0916-2e-3 0.0297 0.18139 0.0571 0.2688 0.0414 0.13197 0.0991 0.25827 0.14867 0.38741 0.35056 1.0465 0.98083 1.9621 1.5773 2.8802 0.59225 0.62193 1.0583 1.4134 1.7751 1.8979 2.3645 0.72574 8.8779 0.52163-1.5559 0.46129l6.0403 0.94625c-0.85324-1.1e-4 -7.7984 0.43811-10.153-0.54283-0.2002-0.0834-0.38028-0.20859-0.57041-0.31288-0.65639-0.63166-1.2246-1.3498-1.7451-2.0967-0.60181-0.96016-1.2137-1.9197-1.622-2.9827-0.0665-0.14516-0.13419-0.2898-0.19958-0.43546-0.0465-0.10354-0.24843-0.29649-0.13603-0.31212 6.2893-0.87414 5.1144-2.0646 6.9363 0.22644 0.63612 0.858 1.1697 1.7748 1.7068 2.6968 0.24328 0.43915 0.4715 0.88857 0.81882 1.2582 1.4909 1.5869 6.0252 0.398-4.8599 0.61006 1.0787 0.0364 2.019-0.35929 2.8908-0.98799 0.82014-0.48737 1.7348-0.84719 1.7772-1.9423 0.0645-0.94693-0.11846-1.8986-0.41289-2.7973-0.13828-0.3375-0.28421-0.85292-0.60006-1.0844-0.0638-0.0467-0.30407-0.0724-0.22503-0.0752 4.0618-0.14407 8.117-0.11846 5.7789-0.13193-0.0887 0.0666-0.1986 0.11175-0.26607 0.19978-0.0831 0.10834-0.3715 0.77845-0.42573 0.89145-0.21602 0.45013-0.49958 0.86864-0.60627 1.3645-0.36106 0.91008-0.69414 1.8817-1.3093 2.6454-2.7383 2.4543-2.8383 1.5001-8.3476 1.2657-1.0366-0.76391-0.39463-1.6029 0.27658-2.3557 0.62331-0.75882 1.2495-1.4878 2.05-2.0675 0.58202-0.66946 1.2269-1.2194 1.9916-1.6742 0.27039-0.12928 0.52742-0.28619 0.8015-0.40743 0.5083-0.22486 1.0669-0.19478 1.5811-0.3987 0 0 6.2656 0.99237 6.2656 0.99237z"/>
  <path d="m176.78 236.39c0.79927-0.42618 1.4204-1.0111 1.8887-1.7815 0.5343-0.93658 0.8176-2.0079 1.4408-2.8885 0.11625-0.10079 0.21647-0.22378 0.34874-0.30239 0.14071-0.0836 0.2944-0.1729 0.45804-0.17708 3.3727-0.0864 5.956-1.2152 8.0987 1.0082 0.86561 1.1614 1.1478 1.9198 0.63143 3.3078-0.5334 1.0345-1.3759 1.8407-2.172 2.6706-0.79972 0.86666-1.8962 1.0188-2.9947 1.2356-1.1865 0.23601-2.3444 0.58769-3.5002 0.94003-0.78925 0.2223-1.5236 0.57291-2.2322 0.97905 0 0-6.2238-0.6274-6.2238-0.6274 0.69604-0.48346 1.4679-0.88367 2.2816-1.1282 1.1558-0.41231 2.3572-0.69301 3.5395-1.018 1.0015-0.18091 2.0894-0.23354 2.9193-0.87605 0.7972-0.73346 1.5556-1.5238 2.1574-2.4278 0.53556-1.0569 0.15391-1.6968-0.59665-2.5279-0.37946-0.27142-0.46856-0.38411-0.92742-0.51502-0.15907-0.0454-0.65587-0.0714-0.4905-0.0753 1.9016-0.0444 3.8044-7e-3 5.7062-0.0464 0.13947-3e-3 -0.27431-0.0689-0.4137-0.0634-0.11887 5e-3 -0.22959 0.0624-0.34439 0.0937-0.68848 0.59866-1.0333 1.9247-1.4656 2.7446-0.41397 0.86695-0.99753 1.5603-1.7893 2.0985l-6.3201-0.62314z"/>
  <path d="m142.63 236.33c0.93754-0.17369 1.6682-0.77074 2.3237-1.4267 0.63049-0.82409 0.83687-1.874 1.2054-2.8297 0.35947-0.91096 0.46908-1.883 0.53055-2.8521 0.044-0.87609 0.14606-1.7886-0.22387-2.6088-0.0765-0.15689-0.23084-0.63764-0.50207-0.60733-0.0645 7e-3 -0.21639 0.12144-0.15146 0.12252 6.2906 0.10446 7.2418 1.7529 6.1559-0.0833 0.0304 0.57977 0.40375 1.1212 0.60776 1.6648 0.22443 0.76955 0.69643 1.4112 0.95753 2.1718 0.24886 0.8309 0.48085 1.6572 0.60815 2.5168 0.12642 1.0054 0.11973 2.011-0.0177 3.0129-0.18568 1.1041-0.73214 2.0879-1.3116 3.029-0.47229 0.73705-1.1175 1.3334-1.6595 2.0156-1.5111 2.0212-6.8667 3.0987-7.5804 0.35254-0.0427-0.16421-0.0385-0.33714-0.0577-0.50571-0.0281-1.1115 0.21722-2.2113 0.48232-3.2849 0.21875-1.061 0.55823-2.0908 0.78978-3.1484 0.10705-0.81273 0.32656-1.6837 0.11527-2.4908-0.35436-0.79436-0.43452-1.6732-0.71227-2.4868-0.35179-0.73623-0.95193-1.3148-1.5821-1.8165-0.12263-0.0806-0.24526-0.16125-0.36788-0.24188l6.2238-0.59188c0.13056 0.10114 0.26112 0.20228 0.39167 0.30342 0.65024 0.63286 1.3086 1.2877 1.6102 2.1666 0.21757 0.8488 0.38748 1.7085 0.69734 2.5324 0.17287 0.91585 0.0306 1.8502-0.13031 2.7624-0.24051 1.0634-0.61214 2.0896-0.83261 3.1583-0.23181 0.98664-0.48238 2.001-0.39864 3.0209 0.0259 0.0706 0.0271 0.15611 0.0776 0.21173 0.0365 0.0401 0.21026 0.0442 0.15609 0.0453-2.0189 0.0403-4.0384 0.0473-6.0576 0.0724-0.0938 1e-3 0.191 0.0246 0.28129-8e-4 0.27854-0.078 0.44565-0.2756 0.65234-0.46022 0.49909-0.70342 1.1053-1.3088 1.6581-1.967 0.56023-0.85778 1.1538-1.7193 1.3274-2.7538 0.10874-0.94883 0.13418-1.8914-0.0196-2.8398-0.12894-0.81799-0.36096-1.6045-0.61556-2.3916-0.28812-0.7343-0.75444-1.3836-0.95671-2.1535-0.28433-0.66717-0.70466-1.3051-0.68468-2.057 0.38795-3.0833 6.4814-2.1369 7.1288 0.50578 0.27225 0.93792 0.23523 1.8987 0.19337 2.867-0.0738 1.0328-0.20729 2.0635-0.54978 3.0465-0.42577 1.0338-0.65272 2.1031-1.2219 3.0594-0.63612 0.73154-1.3608 1.397-2.2546 1.7987 0 0-6.2858-0.8383-6.2858-0.8383z"/>
  <path d="m145.82 228.9c0.0914-0.78966 0.0485-1.5567-0.20675-2.3098-0.23203-0.41777-0.46945-0.75564-0.87597-1.0098l6.269-0.54552c0.37733 0.40186 0.6798 0.84525 0.87444 1.3664 0.23622 0.82039 0.26177 1.6496 0.28292 2.4988h-6.3437z"/>
  <path d="m112.32 267.81c-0.7465 0.6443-1.4954 1.286-2.1585 2.0169-0.70118 0.88451-1.3837 1.7629-1.4914 2.9182 0.0629 0.99535 0.79641 1.428 1.6273 1.7839 1.0648 0.37861 2.0966 0.84381 3.1083 1.3456 8e-3 4e-3 0.0166 8e-3 0.0248 0.0119 0.0894 0.10531 0.17926 0.21026 0.26769 0.31626l-1.4532 0.0822c0.28255 0.45819 0.58718 0.9023 0.84594 1.3746 0.45268 0.73359 0.75806 1.5295 1.3596 2.1797 0.56855 0.57128 1.216 0.96701 2.0278 1.0749 2.9912 5e-3 5.9832 0.0339 8.9741-0.0202 1.0084-0.0346 2.0184-0.091 3.0065-0.31161 0.99555-0.21597 2.0037-0.40446 2.9616-0.75913 0.72756-0.26774 1.4901-0.45388 2.1952-0.76687-0.0107-0.27374 0.0351-0.55554-0.032-0.82114-2e-3 -6e-3 -0.27123-0.0119-0.52813-0.0222-0.3814-0.0153-0.76284-0.0361-1.1436-0.0636 0.0223-7e-3 0.0448-0.0129 0.0672-0.0196 0.11816-0.0425 0.2564-0.0492 0.3545-0.12764 0.23535-0.18819 0.40375-0.76431 0.13746-0.98134 5e-3 -4e-3 0.0111-8e-3 0.0165-0.0124 0.6929-0.52417 1.4462-0.98927 2.0076-1.664 0.0822-0.0892 0.14636-0.17291 0.20258-0.25373-0.0282-3e-3 -0.0568-6e-3 -0.0853-9e-3 0.0182-6e-3 0.0363-0.0121 0.0553-0.0155 0.0109-2e-3 0.0282 2.2e-4 0.045 2e-3 1.3214-1.9655-4.9141-1.4414-6.8833-0.56585-0.78322 0.18261-1.5286 0.448-2.2686 0.76222-0.1509 0.0572-0.30204 0.1123-0.4532 0.16692-1.0917-0.44549-2.2097-0.83466-3.3445-1.1555-1.3116-0.42828-2.6199-0.88901-3.8809-1.4485-1.1676-0.44823-1.918-0.61953-2.8122-0.64389 0.25608-0.71097 0.81997-1.2901 1.2919-1.8857 0.69066-0.69684 1.4389-1.3514 2.2779-1.865zm22.393 7.258c-5e-3 8e-3 -0.01 0.0149-0.015 0.0227 0.0466 4e-3 0.0953 0.0125 0.14108 0.0155 0.0473 3e-3 -0.0543-0.0303-0.12609-0.0382zm-24.523-1.7348c0.0407-4e-3 0.12936 1.6e-4 0.23978 0.0109 4e-3 7e-3 8e-3 0.0197 0.0114 0.0248 0.0129 0.0184 0.0291 0.0335 0.045 0.0491-0.29068-0.0375-0.38371-0.0752-0.29611-0.0847zm4.9832 4.7578c0.1945 0.20163 0.40222 0.38801 0.62425 0.55707-0.0592-5.3e-4 -0.11851-8e-5 -0.17776-5.3e-4 -1.0706-0.0908-1.5246-0.4539-0.44649-0.55655zm12.909 1.5306c1.0103 1e-3 0.39277 3e-3 -0.0114 4e-3 4e-3 -1e-3 8e-3 -2e-3 0.0114-4e-3zm-10.712 0.31523c0.92057-2.2e-4 0.1835-5e-5 0.9183 0 5e-3 1e-3 9e-3 3e-3 0.0139 4e-3 -0.8005-1e-3 -1.6082-4e-3 -0.93224-4e-3z"/>
  <path d="m109.66 266.67c-0.35828 0.22551-0.74271 0.41036-1.1493 0.52296 0.0431 0.19564-0.44904 0.33015-0.63459 0.50178-0.20243 0.18725-0.40087 0.37824-0.60151 0.56741-0.30693 0.2007-0.57483 0.48063-0.92088 0.60203-1.1066 0.3882-2.7147 0.46159-3.9543 0.46819-0.46582 0.76755-1.0254 1.4456-1.7823 1.9942-0.99634 0.75914-2.0233 1.4532-3.222 1.8619-0.43365 0.17571-0.8379 0.35088-1.2873 0.48575-0.64384 0.19325-1.4433 0.2793-1.9668 0.3173 0.26533-9e-3 0.65943-0.018 1.201-0.0264l-6.0994 0.96584c1.372-0.0153 2.7445-0.0137 4.1165-0.0145 2.7363-0.0519 5.5658 0.52553 8.2181-0.22427 0.67195-0.18996 1.3075-0.50934 1.9513-0.77463 1.2253-0.45795 2.27-1.2255 3.2908-2.0221 0.99069-0.8215 1.6168-1.8687 2.1921-2.9972 0.369-0.70602 0.54924-1.4569 0.64854-2.2283zm-15.519 7.3215c-0.72842 0.0259-0.55119 0.04 0 0zm2.8918-0.0434c0.85091-3e-3 1.8898-2e-3 3.1476 6e-3 0.25197 2e-3 -0.50405 7.9e-4 -0.75602 1e-3 -0.85544-5.3e-4 -1.7108-2e-3 -2.5663-6e-3 0.07079-2.7e-4 0.10109-1e-3 0.17467-2e-3z"/>
  <path d="m107.7 267.87c-0.14047 0.13234-0.28066 0.26492-0.42116 0.39739-0.30693 0.2007-0.57483 0.48063-0.92088 0.60203-1.1864 0.41619-2.966 0.47421-4.2308 0.47181-0.43196 0.1745 0.15635 0.10856 0.10904 0.14676-0.91013 0.73488-0.97264 0.41798-2.0562 0.84181-0.0484 0.0189-7e-3 0.11808-0.0491 0.14779-0.20584 0.14345-0.4441 0.23348-0.6661 0.35037-0.12711 0.042-0.20589 0.0704-0.30437 0.1049-0.0479 0.0553-0.0945 0.11164-0.14315 0.1664-0.644 0.87053-1.4182 1.6179-2.1642 2.3952l6.2022 0.47077c0.73457-0.78826 1.4471-1.5939 2.1234-2.4334 0.88794-1.1044 1.7009-2.2538 2.4102-3.4814 0.0383-0.0597 0.074-0.12028 0.1111-0.18035z"/>
  <path d="m100.79 270.13c-0.16591 0.041-0.3608 0.098-0.61495 0.19741-0.0484 0.0189-7e-3 0.11808-0.0491 0.14779-0.20584 0.14345-0.4441 0.23348-0.6661 0.35037-0.94876 0.31361-0.96784 0.41408-2.0298 0.34933-0.0029-1.7e-4 -0.0084-2.7e-4 -0.01138-5.3e-4 -0.05239 0.0159-0.11048 0.0328-0.14314 0.0439-0.24758 0.0842-0.50124 0.14925-0.75189 0.22375 9e-3 0.0178 0.04386 0.0438 0.02635 0.0532-0.49022 0.26267-1.0232 0.41649-1.5777 0.47439-0.11678 0.0122-0.2344 0.01-0.35192 4e-3 -0.0259 0.0237-0.05241 0.0478-0.077 0.0698-0.0044 5e-3 -0.0091 0.01-0.0155 0.0134-0.70345 0.62353-0.89747 0.53522-2.0397 0.80615-0.11077 0.0263-0.52085 0.13174-0.85576 0.20774-1.1 0.63135-0.87767 0.56199-1.5544 0.56999-0.13236 0.0736-0.27868 0.15054-0.83664 0.45269l6.025 0.65319c1.1855-0.62398 0.62938-0.30761 1.6733-0.93948 1.1461-0.81199 2.1928-1.7146 3.0835-2.8081 0.25857-0.28744 0.51402-0.57733 0.76688-0.86919z"/>
  <path d="m101.2 270.49c-0.71346 0.51518-1.2244 1.2221-1.9647 1.7033-0.9024 0.56677-1.8283 1.1268-2.7941 1.5792-1.0617 0.41176-2.1049 0.86308-3.2045 1.1668-1.0635 0.35792-2.1538 0.64775-3.2014 1.0501-0.62913 0.21238-0.30808 0.12034-0.96428 0.27388l6.18 0.81184c0.66771-0.20535 0.34329-0.0976 0.97358-0.32195 1.0582-0.34861 2.1106-0.71369 3.1812-1.0232 1.0908-0.36517 2.1626-0.78909 3.2065-1.2728 0.97094-0.52019 1.9558-1.0303 2.8479-1.68 0.70157-0.57982 1.3193-1.2543 2.0593-1.7896z"/>
  <path d="m97.545 275.79c-1.0093-0.0106-2.0186-6e-3 -3.028-8e-3 -1.1676 5.3e-4 -2.3352-5.3e-4 -3.5028-3e-3 -1.1215-2.4e-4 -2.2429 3e-3 -3.3644 4e-3 -1.0279-0.0219-2.0054 0.29772-2.9906 0.5403-1.0794 0.20269-2.1741 0.28201-3.2589 0.45592-0.98827 0.17518-1.9884 0.23904-2.99 0.26738-3.1726 0.0484-6.3459 0.0216-9.5187 0.0205-1.0752-3e-3 -2.1505-2e-3 -3.2257-8e-4 -0.97112 8e-4 -1.9422-1e-3 -2.9134-5.3e-4 -2.2185 2e-3 -2.6032 2e-3 5.2232 8e-4 0.17138-3e-5 -0.34276-8e-4 -0.51413-1e-3 -0.50929-7.9e-4 -1.0186-1.4e-4 -1.5279 2.3e-4 -1.0963-1e-3 -2.1926-2e-3 -3.2889-1e-3 -3.2054 2e-3 -6.4108 3e-3 -9.6161-4e-3 -1.3909-3e-3 -2.7819 2e-3 -4.1728 1e-3 -2.3195-0.014-9.6447-0.01 0.18307-0.016-2.1962-1.9e-4 -4.3924 2e-3 -6.5886 9e-3 -1.36 7e-3 -2.7199 9e-3 -4.0799 7e-3 -3.834 4e-3 -7.6681-4e-3 -11.502-0.0155-2.0988-4e-3 -4.1977 8e-3 -6.2965 0.0107-0.30175-7.9e-4 -0.6035-2e-3 -0.90524-2e-3 -3.4579-6e-3 1.9074 6e-3 -2.0744-7e-3 -0.40649-1e-3 -1.626-1e-3 -1.2195-2e-3 3.4662-6e-3 6.5065-2e-3 3.0684-6e-3 -2.753-8e-4 -5.506-2e-3 -8.259 6e-3 -0.26413 1e-3 -1.4452 4e-3 -1.7979 0.0113-0.08103 2e-3 -0.23817 0.0941-0.24278 0.0131-0.01912-0.3354-0.03016-0.73408 0.18709-0.99033 0.1378-0.16253 0.426 0.0124 0.63906 0.0159 0.37272 6e-3 0.74549 8e-3 1.1182 0.0125 3.5778 0.031 7.1557 0.0205 10.734 0.0128 2.3326-0.0115 4.6651-0.0169 6.9977-0.0187 1.5429 0.0541 3.0988-0.11211 4.6344 0.0661 1.5079 0.10756 2.9788 0.37048 4.4542 0.68776 1.7362 0.39844 3.5212 0.39842 5.2846 0.56778 2.12 0.37453 4.2295 0.78515 6.3681 1.0462 1.5692 0.18629 3.1512 0.19001 4.729 0.20481 2.0851 7e-3 6.5541 0.0137-2.8249 5e-3 -0.3301-2.7e-4 0.6602-2e-3 0.9903-3e-3 0.52291-2e-3 1.121-6e-3 1.6471-9e-3 1.197-6e-3 2.394-0.0111 3.5911-0.0107 1.8441-0.20666 10.236 1.0264 7.0011 0.97667-1.5826-0.0171-3.1654-0.0128-4.7481-8e-3 -1.1862 6e-3 -2.3724 5e-3 -3.5586 2e-3 -3.5886-5.3e-4 -7.1772-4e-3 -10.766-5e-3 -1.5213 4e-3 -3.0426 5e-3 -4.5639-7.9e-4l-0.9606-3e-3c-0.33812-8e-4 -0.67624-1e-3 -1.0144-1e-3 -4.4861-3e-3 7.3636-2e-3 2.9911 1e-3 -0.31416 2.5e-4 -0.62833 5.3e-4 -0.94249 8e-4 -1.7529 3e-3 -3.5058 2e-3 -5.2587 2e-3 -3.4418 9e-3 -6.8837 7e-3 -10.326 7e-3 -1.452-2e-3 -2.9039-4e-3 -4.3559-5e-3 -0.31701-0.0436-3.5071 0.28363-2.8843-0.78054 0.15595-0.26645 0.48745-0.37902 0.73118-0.56853 2.8277-0.34674 5.6366-0.81576 8.4512-1.2546 2.0143-0.32887 4.0516-0.42968 6.0885-0.47977 3.4072-0.0571 6.8152-0.044 10.223-0.0252 1.9905 0.0729 3.9599 0.43327 5.9454 0.61756 2.0604 0.17913 4.1285 0.22815 6.1956 0.24866 0.77244 3e-3 0.74898 4e-3 1.49 3e-3 0.20751-2.6e-4 0.83005-2e-3 0.62254-2e-3 -9.9182-8e-3 -6.7534 2e-3 -4.6187-6e-3 0.14979-5.3e-4 0.29958-1e-3 0.44936-2e-3 0 0 6.1801 0.97746 6.1801 0.97746-0.15225 1.4e-4 -0.3045 2.6e-4 -0.45674 5.3e-4 -3.2348 2e-3 -6.47 0.0281-9.7045-0.0253-2.031-0.0427-4.0624-0.11343-6.0849-0.31521-2.0442-0.20597-4.0833-0.55519-6.1423-0.52966-2.1398-7.9e-4 -5.6024 6e-3 4.3133-6e-3 0.23747-2.6e-4 -0.47494-2e-3 -0.71241-3e-3 -0.84247-1e-3 -0.81637 1.7e-4 -1.6894 5e-3 -2.0715 0.0308-4.1452 0.0987-6.2001 0.38609-2.743 0.3805-5.4693 0.86834-8.2121 1.2448-0.40271-0.23741-0.80411-0.41312-0.57713-0.54457 0.11318-0.0655 0.25649 0.0541 0.3867 0.0664 0.75206 0.0706 1.5092 0.0116 2.2626 0.0317 1.475-1e-3 2.95-3e-3 4.425-5e-3 -11.036 1e-4 -4.3788-2.5e-4 -1.8352 7e-3 1.7614 2.6e-4 3.5229-1e-3 5.2843 2e-3 3.9909 3e-3 7.9818 8e-3 11.973-2e-3 1.5246-6e-3 3.0493-5e-3 4.5739-8e-4 0.82612-2.6e-4 1.6522-7.9e-4 2.4784-2e-3 0.26138-2.7e-4 1.0455-8e-4 0.78412-1e-3 -5.0134-2e-3 -7.1999 3e-3 -4.6569-3e-3 1.1952-3e-3 2.3905-4e-3 3.5857 2e-3 1.5473 4e-3 3.0948 0.01 4.642-8e-3 2.9893-0.0571 9.8443 1.2228 5.3363 0.97712-1.2239 1e-3 -2.4478-2e-3 -3.6717-3e-3 -3.9621-8e-3 -7.9243 4e-3 -11.886-6e-3 -1.588-0.0117-3.1806-0.0347-4.7538-0.27827-2.1158-0.3122-4.2087-0.76172-6.3316-1.0222-1.7932-0.13664-3.598-0.20196-5.3539-0.63268-1.4877-0.30633-2.9893-0.47785-4.5028-0.59994-1.5046-0.0597-3.0114-0.0203-4.5168-0.0362-2.2537-2e-3 -4.5074-7e-3 -6.7611-0.0187-3.6318-8e-3 -7.2637-0.0172-10.895 0.0128-0.42541 4e-3 -0.85084 7e-3 -1.2762 0.0125-0.27988 4e-3 -0.64222 0.21437-0.83957 0.0159-0.23473-0.23608-0.22079-0.67024-0.12929-0.99033 4e-5 -1.4e-4 2.3386 0.0572 2.3492 0.0244 2.7776 8e-3 5.5553 7e-3 8.333 6e-3 4.3399-5e-3 8.6798-1e-3 13.02-0.0163 2.0538 3e-3 4.1076 0.0152 6.1615 0.0107 0.79002-2e-3 1.58-4e-3 2.3701-6e-3 0.34012-1e-3 1.3605-3e-3 1.0204-4e-3 -9.5282-0.0204-5.9906-2e-3 -3.9084-5e-3 1.3895-2e-3 2.7791 5.3e-4 4.1686 7e-3 2.234 7e-3 4.468 9e-3 6.702 9e-3 3.9434-2e-3 7.8868-8e-4 11.83-0.016 1.3865-5.3e-4 2.7729 4e-3 4.1594 1e-3 2.2034-5e-3 5.9489 9e-5 -4.1891-5e-3 -1.5513-7.9e-4 3.1124-4e-3 1.5636 2.7e-4 1.0907 7.9e-4 2.1815-1.4e-4 3.2722-1e-3 3.0496 2e-3 6.0991-8e-3 9.1487-1.8e-4 0.97237 5.3e-4 1.9447-1e-3 2.9171 2.3e-4 1.0677 2e-3 2.1354 5e-3 3.203 5e-3 2.365 4e-3 1.1135 1e-3 -5.0277 1e-3 -0.18876 0 0.37752-5.3e-4 0.56628-5.3e-4 0.56266-2.7e-4 1.1253 1e-4 1.688-7e-3 0.99254-0.0164 1.9871-0.0409 2.9709-0.18739 1.0774-0.16218 2.1448-0.33973 3.2324-0.41879 1.0128-0.20159 1.9817-0.56812 3.0129-0.67527 1.1403 2e-3 2.2805 5e-3 3.4208 4e-3 1.1559-2e-3 2.3118-3e-3 3.4677-3e-3 0.97568-2e-3 1.9514 3e-3 2.927-8e-3 0 0 6.2479 0.98958 6.2479 0.98958z"/>
  <path d="m53.084 279.05c0.72815 0.60808 1.3482 1.3349 2.0692 1.9501 0.10728 0.11111 0.21456 0.22221 0.32183 0.33332l-6.2398 0.48809c-0.1027-0.10088-0.20541-0.20177-0.30811-0.30265-0.6999-0.68012-1.3909-1.371-2.163-1.9714l6.3198-0.49738z"/>
  <path d="m54.391 291.05c0.10379 1e-3 0.20758 3e-3 0.31137 4e-3 0.34782 3e-3 1.2392 4e-3 0.83883 3e-3 -9.6855-0.029-6.9849 0.25949-4.7813-0.16439 0.91462-0.24787 1.5659-0.93092 2.1831-1.6087 0.53755-0.5944 0.86866-1.3401 1.2361-2.046 0.36188-0.78499 0.5825-1.3422-0.5047-1.3774-2.2445 0.66439-0.05354-0.0201 5.5168 0.12126 0.02096 5.3e-4 -0.27545 0.024-0.56755 0.32488-0.25477 0.26241-0.30806 0.41398-0.4842 0.73582-0.50205 0.88088-0.72027 1.869-0.99964 2.8326-0.35748 0.99577-0.87703 1.9304-1.4275 2.8314-0.58992 0.88989-1.3186 1.6977-2.12 2.4027-0.70583 0.57666-1.5826 0.66889-2.4547 0.75861-0.56756 0.0564 0.85775-0.84308-0.0075-0.95395-8.3452-1.0693-7.7592 9e-3 -5.2448 3e-3 1.4331 3e-3 2.8661-5.3e-4 4.2992-8e-4 1.3597 0.01 2.7285 0.0677 4.0148-0.42471 0.9204-0.41878 1.4573-1.1108 1.7252-2.0621 0.18751-0.94025 0.15903-1.9062 0.15134-2.8602-0.01326-0.96933-7e-3 -1.9386-0.01423-2.9081-0.08763-0.83171 0.21212-1.8038-0.23746-2.5475-0.53808-0.5819-1.1151-1.1029-1.7839-1.5386-0.64949-0.13939-1.271-0.31856-1.8849-0.5736 0 0 6.1798-0.75392 6.1798-0.75392 0.66284 0.21876 1.3668 0.35149 1.96 0.73649 0.67608 0.54319 1.3432 1.1078 1.7913 1.8646 0.32506 0.9096 0.21002 1.8564 0.21766 2.8101 6.9e-5 0.96964 0.01887 1.9388 0.02249 2.9084-0.0016 1.0089 0.0019 2.023-0.14397 3.0238-0.27594 1.107-0.80713 2.0138-1.8219 2.6049-0.44584 0.23954-0.70697 0.41788-1.2128 0.53058-0.94365 0.21022-1.9376 0.12945-2.8941 0.15068-1.3925 2e-3 -2.785-8e-5 -4.1775 0.0162-2.3845 0.0253-5.1134 0.25997-7.2398 0.0171-0.26103-0.0298-0.14111-0.50827-0.17222-0.76914-0.0085-0.0714 0.0019-0.16079 0.05561-0.20853 0.04682-0.0415 0.12506-5e-3 0.18759-7e-3 0.82668-0.0333 1.6911-0.0139 2.4492-0.38988 0.85076-0.55477 1.5383-1.3776 2.1534-2.1743 0.53702-0.8464 0.98562-1.7493 1.3831-2.6681 0.30773-0.98985 0.51981-2.0114 1.0103-2.935 1.3668-3.0814 3.843-2.9162 8.0047-1.6719 1.0379 0.66426 0.981 1.39 0.52404 2.4384-0.35986 0.77134-0.73127 1.5622-1.2561 2.2321-0.69185 0.70652-1.3043 1.52-2.2237 1.9542-2.8148 0.93685-5.888 0.22901-8.8269 0.33196 0 0 6.2656-0.99237 6.2656-0.99237z"/>
  <path d="m55.866 282.77c-0.51027-0.48782-1.1014-0.93349-1.6887-1.3416-0.72343-0.35897-1.3836-0.82153-2.1151-1.1632 0 0 6.1693-0.68567 6.1693-0.68567 0.74385 0.39584 1.4934 0.792 2.1919 1.2642 0.57512 0.45161 1.1744 0.87205 1.7627 1.3032l-6.3201 0.62315z"/>
  <path d="m56.529 279.93c0.47017 0.22989 1.0006 0.20175 1.4855 0.39017 0.29922 0.11628 0.5794 0.2767 0.87174 0.40933 0 0-6.2128 0.72462-6.2128 0.72462-0.75827-0.31435-1.5876-0.52248-2.41-0.53174 0 0 6.2656-0.99238 6.2656-0.99238z"/>
  <path d="m61.487 290.52c-0.13735 1.225-0.79035 2.2286-1.6095 3.1105-0.74605 0.74921-1.6445 1.2493-2.6283 1.6064-0.95097 0.32902-1.9131 0.61647-2.8839 0.87983-0.8479 0.32848-1.7403 0.47132-2.6401 0.55882-0.94139 0.0724-1.8864 0.0626-2.8298 0.0731-2.1526 8e-4 -4.3053 2e-3 -6.4579 3e-3 -0.03269 6e-5 -0.099 0.0328-0.09807 1.7e-4 0.0094-0.33345 0.0019-0.68322 0.12621-0.99277 0.01844-0.0459 0.96712 3e-3 1.0235 3e-3 1.0185 5e-3 2.0342 0.0257 3.0481-0.0806 1.1269-0.0944 2.2082-0.42052 3.2872-0.73705 1.0365-0.19924 2.0219-0.55727 3.0235-0.87864 0.70494-0.20906 0.36483-0.0953 1.0214-0.33799 0 0 6.1871 0.72655 6.1871 0.72655-0.66504 0.3181-0.32289 0.18107-1.0267 0.41057-1.0256 0.27264-1.9742 0.75261-3.032 0.88689-1.1016 0.28759-2.1743 0.70911-3.3135 0.82663-0.99729 0.13966-1.9846 0.20925-2.9936 0.16502-0.28112 1e-3 -0.92498 0.0182-0.92866 7e-3 -1.0005-2.9438 4.6363-0.98164-6.0713-0.98492 0.9493 9e-3 1.8991 8e-3 2.848-0.0232 0.88099-0.0455 1.7805-0.10008 2.6143-0.41187 0.9374-0.34863 1.9538-0.48678 2.8903-0.85204 0.93845-0.35597 1.8834-0.62377 2.6435-1.3323 0.76256-0.72049 1.4733-1.5113 1.4743-2.6266h6.3258z"/>
 </g>
</svg>
