<?xml version="1.0" encoding="UTF-8"?>
<!-- Created with Inkscape (http://www.inkscape.org/) -->
<svg width="210mm" height="222mm" version="1.1" viewBox="0 0 210 222" xmlns="http://www.w3.org/2000/svg" xmlns:cc="http://creativecommons.org/ns#" xmlns:dc="http://purl.org/dc/elements/1.1/" xmlns:rdf="http://www.w3.org/1999/02/22-rdf-syntax-ns#">
 <metadata>
  <rdf:RDF>
   <cc:Work rdf:about="">
    <dc:format>image/svg+xml</dc:format>
    <dc:type rdf:resource="http://purl.org/dc/dcmitype/StillImage"/>
    <dc:title/>
   </cc:Work>
  </rdf:RDF>
 </metadata>
 <g transform="translate(0,-75)">
  <path d="m159.56 185.32a54.963 55.16 0 0 1 -54.884 55.16 54.963 55.16 0 0 1 -55.041 -55.003 54.963 55.16 0 0 1 54.728 -55.316 54.963 55.16 0 0 1 55.196 54.845" stroke-width=".18399"/>
  <path d="m113.89 80.652c-0.0807 2.1633-0.16135 4.3267-0.24202 6.49-0.0709 1.9007-0.14176 3.8014-0.21264 5.7021-0.0317 0.84934-0.0634 1.6987-0.095 2.548-0.0376 1.008-0.0752 2.016-0.11277 3.0239-0.0854 1.5368-0.11551 3.0706-0.0603 4.6079 0.1002 2.3207 0.069 4.643 0.0243 6.9643-0.0296 1.4138-0.075 2.8272-0.12722 4.2406-0.0313 0.82401-0.0635 1.648-0.0942 2.472 0.15978 0.87227 0.19189 1.7729 0.23479 2.6566 0.0267 0.60257 0.0234 1.2055 0.015 1.8083-0.0885 6.1162-11.092 6.0179-11.004-0.0984 7e-3 -0.46243 0.0112-0.92498-8e-3 -1.3873-0.0498-1.0811-0.18934-2.1568-0.23753-3.2377 0.0312-0.82144 0.0633-1.6428 0.0939-2.4643 0.0507-1.3735 0.0954-2.7471 0.12387-4.121 0.0426-2.1966 0.0743-4.3943-0.0212-6.5904-0.0602-1.7026-0.0336-3.4021 0.0607-5.104 0.0376-1.008 0.0752-2.0159 0.11277-3.0239 0.0317-0.84934 0.0633-1.6987 0.095-2.548 0.0709-1.9007 0.14176-3.8014 0.21264-5.7021 0.0807-2.1633 0.16135-4.3267 0.24202-6.49 0.228-6.114 11.228-5.8605 11 0.25346z" stroke-width=".23458"/>
  <path d="m191.65 114.97c-1.4666 1.4819-2.9333 2.9639-4.3999 4.4458-1.2886 1.302-2.5772 2.6041-3.8657 3.9061-0.57582 0.5818-1.1516 1.1636-1.7274 1.7455-0.68336 0.69048-1.3667 1.381-2.0501 2.0715-1.0566 1.0374-2.0822 2.1029-3.0654 3.2175-1.4753 1.6919-3.0206 3.313-4.5723 4.926-0.9463 0.9811-1.9007 1.9534-2.8586 2.9218-0.55892 0.56415-1.1183 1.1278-1.6769 1.6923-0.49043 0.70269-1.0665 1.3556-1.6258 2.0024-0.3827 0.43967-0.78138 0.86318-1.1826 1.2838-4.0732 4.2661-9.783-1.8205-5.7098-6.0866 0.30812-0.32238 0.61485-0.64638 0.90915-0.983 0.68564-0.78987 1.3206-1.625 2.007-2.4138 0.55718-0.56239 1.1148-1.1243 1.6717-1.687 0.93087-0.94116 1.8587-1.8857 2.7782-2.8393 1.4685-1.5262 2.932-3.0592 4.3278-4.6606 1.0894-1.234 2.2222-2.4183 3.3922-3.5672 0.68335-0.69048 1.3667-1.381 2.05-2.0715 0.57581-0.5818 1.1516-1.1637 1.7274-1.7455 1.2886-1.302 2.5772-2.6041 3.8657-3.9061 1.4666-1.4819 2.9332-2.9639 4.3999-4.4458 4.145-4.1882 9.7506 2.0055 5.6056 6.1938z" stroke-width=".20046"/>
  <path d="m23.397 112.44c1.5558 1.6173 3.1116 3.2346 4.6674 4.8519 1.3669 1.421 2.7338 2.8419 4.1007 4.2629 0.61079 0.63498 1.2216 1.27 1.8324 1.9049 0.72489 0.75356 1.4498 1.5071 2.1747 2.2607 1.0892 1.1653 2.2077 2.2962 3.3774 3.3799 1.7754 1.6262 3.4771 3.33 5.1703 5.041 1.0299 1.0434 2.0506 2.0959 3.0673 3.1522 0.59226 0.61635 1.184 1.2332 1.7766 1.8492 0.73692 0.54007 1.4221 1.1751 2.1008 1.7915 0.46137 0.42183 0.90591 0.8614 1.3474 1.3038 4.4781 4.4912-1.8673 10.83-6.3454 6.3391-0.3384-0.33974-0.6785-0.67793-1.0318-1.0023-0.82887-0.75572-1.7048-1.4552-2.5327-2.2118-0.59044-0.6144-1.1803-1.2294-1.7711-1.8435-0.98806-1.0265-1.9796-2.0496-2.9807-3.0635-1.6021-1.6193-3.2112-3.233-4.8917-4.7714-1.295-1.2008-2.5381-2.4499-3.7445-3.7402-0.72489-0.75356-1.4498-1.5071-2.1747-2.2607-0.61081-0.63496-1.2216-1.2699-1.8324-1.9049-1.3669-1.421-2.7338-2.8419-4.1007-4.2629-1.5558-1.6173-3.1116-3.2346-4.6674-4.8519-4.3969-4.5708 2.061-10.795 6.4579-6.2242z" stroke-width=".21565"/>
  <path d="m204.64 190.16c-2.085-5e-3 -4.17-0.0107-6.2549-0.016-1.8319-5e-3 -3.6637-9e-3 -5.4956-0.014l-2.4557-6e-3c-0.97146-2e-3 -1.9429-5e-3 -2.9144-7e-3 -1.4806-0.025-2.9594-8e-3 -4.4434 0.0732-2.2407 0.13577-4.48 0.17203-6.7181 0.19803-1.363 0.014-2.7255 0.0161-4.0876 0.013-0.79414-2e-3 -1.5882-6e-3 -2.3824-8e-3 -0.8448 0.14355-1.7142 0.1911-2.5675 0.24639-0.58179 0.0358-1.1633 0.0488-1.7445 0.058-5.8976 0.0907-5.5667-8.2483 0.33099-8.339 0.4459-7e-3 0.89197-0.0154 1.3383-0.0419 1.0439-0.0656 2.0844-0.19907 3.1281-0.26346 0.79166 2e-3 1.5833 6e-3 2.375 8e-3 1.3237 3e-3 2.6477 1e-3 3.9724-0.0124 2.1179-0.0244 4.237-0.057 6.3574-0.18603 1.6436-0.0895 3.2823-0.1132 4.9219-0.0857 0.97145 2e-3 1.9429 5e-3 2.9144 7e-3l2.4557 6e-3c1.8319 5e-3 3.6637 9e-3 5.4956 0.014 2.085 5e-3 4.17 0.0107 6.2549 0.016 5.8925 0.0151 5.412 8.355-0.4805 8.34z" stroke-width=".20046"/>
  <path d="m43.349 190.16c-2.085-5e-3 -4.17-0.0107-6.2549-0.016-1.8319-5e-3 -3.6637-9e-3 -5.4956-0.014l-2.4557-6e-3c-0.97146-2e-3 -1.9429-5e-3 -2.9144-7e-3 -1.4806-0.025-2.9594-8e-3 -4.4434 0.0732-2.2407 0.13577-4.48 0.17203-6.7181 0.19803-1.363 0.014-2.7255 0.0161-4.0876 0.013-0.79414-2e-3 -1.5882-6e-3 -2.3824-8e-3 -0.8448 0.14355-1.7142 0.1911-2.5675 0.24639-0.58179 0.0358-1.1633 0.0488-1.7445 0.058-5.8976 0.0907-5.5667-8.2483 0.33099-8.339 0.4459-7e-3 0.89197-0.0154 1.3383-0.0419 1.0439-0.0656 2.0844-0.19907 3.1281-0.26346 0.79166 2e-3 1.5833 6e-3 2.375 8e-3 1.3237 3e-3 2.6477 1e-3 3.9724-0.0124 2.1179-0.0244 4.237-0.057 6.3574-0.18603 1.6436-0.0895 3.2823-0.1132 4.9219-0.0857 0.97145 2e-3 1.9429 5e-3 2.9144 7e-3l2.4557 6e-3c1.8319 5e-3 3.6637 9e-3 5.4956 0.014 2.085 5e-3 4.17 0.0107 6.2549 0.016 5.8925 0.0151 5.412 8.355-0.4805 8.34z" stroke-width=".20046"/>
  <path d="m110.92 251.55c-0.0807 2.1633-0.16135 4.3267-0.24202 6.49-0.0709 1.9007-0.14176 3.8014-0.21264 5.7021-0.0317 0.84933-0.0634 1.6987-0.095 2.548-0.0376 1.008-0.0752 2.016-0.11277 3.0239-0.0854 1.5368-0.11551 3.0706-0.0603 4.6079 0.1002 2.3207 0.069 4.643 0.0243 6.9643-0.0296 1.4137-0.075 2.8272-0.12722 4.2406-0.0313 0.824-0.0635 1.648-0.0942 2.472 0.15978 0.87227 0.19189 1.7729 0.23479 2.6566 0.0267 0.60257 0.0234 1.2055 0.015 1.8083-0.0885 6.1162-11.092 6.0178-11.004-0.0984 7e-3 -0.46243 0.0112-0.92498-8e-3 -1.3873-0.0498-1.0811-0.18934-2.1568-0.23753-3.2377 0.0312-0.82144 0.0633-1.6428 0.0939-2.4643 0.0507-1.3735 0.0954-2.7471 0.12387-4.121 0.0426-2.1966 0.0743-4.3942-0.0212-6.5904-0.0602-1.7026-0.0336-3.4021 0.0607-5.104 0.0376-1.008 0.0752-2.016 0.11277-3.0239 0.0317-0.84934 0.0633-1.6987 0.095-2.548 0.0709-1.9007 0.14176-3.8014 0.21264-5.7021 0.0807-2.1634 0.16135-4.3267 0.24202-6.49 0.228-6.114 11.228-5.8605 11 0.25346z" stroke-width=".23458"/>
  <path d="m60.78 243.76c-1.4666 1.4819-2.9333 2.9639-4.3999 4.4458-1.2886 1.302-2.5772 2.6041-3.8657 3.9061-0.57582 0.5818-1.1516 1.1636-1.7274 1.7455-0.68336 0.69048-1.3667 1.381-2.0501 2.0714-1.0566 1.0374-2.0822 2.1029-3.0654 3.2175-1.4753 1.6919-3.0206 3.313-4.5723 4.926-0.9463 0.98109-1.9007 1.9534-2.8586 2.9218-0.55892 0.56415-1.1183 1.1278-1.6769 1.6923-0.49043 0.70268-1.0665 1.3555-1.6258 2.0024-0.3827 0.43966-0.78138 0.86317-1.1826 1.2838-4.0732 4.2661-9.783-1.8205-5.7098-6.0865 0.30812-0.32238 0.61485-0.64637 0.90915-0.983 0.68564-0.78986 1.3206-1.625 2.007-2.4138 0.55718-0.56239 1.1148-1.1243 1.6717-1.687 0.93087-0.94116 1.8587-1.8857 2.7782-2.8393 1.4685-1.5262 2.932-3.0591 4.3278-4.6605 1.0894-1.234 2.2222-2.4183 3.3922-3.5672 0.68335-0.69048 1.3667-1.381 2.05-2.0715 0.57581-0.5818 1.1516-1.1637 1.7274-1.7455 1.2886-1.302 2.5772-2.6041 3.8657-3.9061 1.4666-1.4819 2.9333-2.9639 4.3999-4.4458 4.145-4.1882 9.7506 2.0055 5.6056 6.1938z" stroke-width=".20046"/>
  <path d="m154.73 241.83c1.5558 1.6173 3.1116 3.2346 4.6674 4.8519 1.3669 1.421 2.7338 2.8419 4.1007 4.2629 0.61079 0.63498 1.2216 1.27 1.8324 1.9049 0.72489 0.75356 1.4498 1.5071 2.1747 2.2607 1.0892 1.1653 2.2077 2.2962 3.3774 3.3799 1.7754 1.6262 3.4771 3.33 5.1703 5.041 1.0299 1.0434 2.0506 2.0959 3.0672 3.1522 0.59227 0.61635 1.184 1.2332 1.7766 1.8492 0.73693 0.54007 1.422 1.1751 2.1008 1.7915 0.46138 0.42184 0.90591 0.8614 1.3474 1.3038 4.4781 4.4911-1.8672 10.83-6.3454 6.339-0.3384-0.33974-0.6785-0.67793-1.0318-1.0023-0.82887-0.75572-1.7048-1.4552-2.5327-2.2118-0.59044-0.6144-1.1803-1.2293-1.7711-1.8434-0.98805-1.0265-1.9796-2.0496-2.9806-3.0635-1.6021-1.6193-3.2112-3.233-4.8917-4.7714-1.295-1.2008-2.5382-2.4499-3.7445-3.7402-0.72489-0.75355-1.4498-1.5071-2.1747-2.2607-0.61081-0.63495-1.2216-1.2699-1.8324-1.9049-1.3669-1.421-2.7338-2.8419-4.1007-4.2629-1.5558-1.6173-3.1116-3.2346-4.6674-4.8519-4.3969-4.5708 2.061-10.795 6.4579-6.2241z" stroke-width=".21565"/>
 </g>
</svg>
