<?xml version="1.0" encoding="UTF-8"?>
<!-- Created with Inkscape (http://www.inkscape.org/) -->
<svg width="204mm" height="260mm" version="1.1" viewBox="0 0 204 260" xmlns="http://www.w3.org/2000/svg" xmlns:cc="http://creativecommons.org/ns#" xmlns:dc="http://purl.org/dc/elements/1.1/" xmlns:rdf="http://www.w3.org/1999/02/22-rdf-syntax-ns#">
 <metadata>
  <rdf:RDF>
   <cc:Work rdf:about="">
    <dc:format>image/svg+xml</dc:format>
    <dc:type rdf:resource="http://purl.org/dc/dcmitype/StillImage"/>
    <dc:title/>
   </cc:Work>
  </rdf:RDF>
 </metadata>
 <g transform="translate(1.2306 -38.765)">
  <path d="m84.609 297.11c0.60346-9.3208 0.57993-18.7 0.68676-28.05 0.13597-11.887-0.06702-23.772-0.16539-35.658-0.19246-8.5326-0.13176-17.067-0.08311-25.602 0.04319-10.717 0.19756-21.432 0.1983-32.149 0.32012-7.6054-0.55044-15.054-1.6445-22.476 0 0 27.138-0.72737 27.138-0.72737 1.1777 7.6578 1.9914 15.349 1.6405 23.204 7.9e-4 10.718 0.15511 21.432 0.1983 32.149 0.0487 8.5345 0.10935 17.069-0.0831 25.602-0.0984 11.886-0.30136 23.77-0.16539 35.658 0.10683 9.35 0.0833 18.729 0.68676 28.05h-28.407z" stroke-width=".30658"/>
  <g stroke-width=".26458">
   <path d="m113.14 122.64a47.031 52.071 0 0 1 -46.964 52.071 47.031 52.071 0 0 1 -47.097 -51.923 47.031 52.071 0 0 1 46.83 -52.219 47.031 52.071 0 0 1 47.231 51.774"/>
   <path d="m199.98 107.18a51.994 53.84 0 0 1 -51.92 53.84 51.994 53.84 0 0 1 -52.067 -53.686 51.994 53.84 0 0 1 51.772 -53.992 51.994 53.84 0 0 1 52.215 53.533"/>
   <path d="m155.06 125.33a37.842 52.917 0 0 1 -37.788 52.917 37.842 52.917 0 0 1 -37.895 -52.766 37.842 52.917 0 0 1 37.68 -53.067 37.842 52.917 0 0 1 38.002 52.615"/>
   <path d="m147.37 93.948a51.994 53.84 0 0 1 -51.92 53.84 51.994 53.84 0 0 1 -52.067 -53.686 51.994 53.84 0 0 1 51.772 -53.992 51.994 53.84 0 0 1 52.215 53.533"/>
   <path d="m179.36 93.332a51.994 53.84 0 0 1 -51.92 53.84 51.994 53.84 0 0 1 -52.067 -53.686 51.994 53.84 0 0 1 51.772 -53.992 51.994 53.84 0 0 1 52.215 53.533"/>
   <path d="m203.98 132.71a51.994 53.84 0 0 1 -51.92 53.84 51.994 53.84 0 0 1 -52.067 -53.686 51.994 53.84 0 0 1 51.772 -53.992 51.994 53.84 0 0 1 52.215 53.533"/>
   <path d="m104.91 92.102a51.994 53.84 0 0 1 -51.92 53.84 51.994 53.84 0 0 1 -52.067 -53.686 51.994 53.84 0 0 1 51.772 -53.992 51.994 53.84 0 0 1 52.215 53.533"/>
   <path d="m104.3 137.63a51.994 53.84 0 0 1 -51.92 53.84 51.994 53.84 0 0 1 -52.067 -53.686 51.994 53.84 0 0 1 51.772 -53.992 51.994 53.84 0 0 1 52.215 53.533"/>
  </g>
  <path d="m172.9 108.72a60.916 70.453 0 0 1 -60.829 70.453 60.916 70.453 0 0 1 -61.002 -70.252 60.916 70.453 0 0 1 60.656 -70.653 60.916 70.453 0 0 1 61.175 70.052" stroke-width=".3276"/>
 </g>
</svg>
